solid OpenSCAD_Model
  facet normal -1 0 0
    outer loop
      vertex -7.65 -15.15 -5
      vertex -7.65 16.15 5
      vertex -7.65 16.15 -5
    endloop
  endfacet
  facet normal -1 -0 0
    outer loop
      vertex -7.65 16.15 5
      vertex -7.65 -15.15 -5
      vertex -7.65 -15.15 5
    endloop
  endfacet
  facet normal 0 0 1
    outer loop
      vertex 7.65 16.15 5
      vertex 6.65 15.15 5
      vertex 7.65 -15.15 5
    endloop
  endfacet
  facet normal 0 0 1
    outer loop
      vertex 7.65 16.15 5
      vertex -6.65 15.15 5
      vertex 6.65 15.15 5
    endloop
  endfacet
  facet normal -0 0 1
    outer loop
      vertex -7.65 16.15 5
      vertex -6.65 15.15 5
      vertex 7.65 16.15 5
    endloop
  endfacet
  facet normal 0 0 1
    outer loop
      vertex -7.65 -15.15 5
      vertex -6.65 15.15 5
      vertex -7.65 16.15 5
    endloop
  endfacet
  facet normal 0 0 1
    outer loop
      vertex -6.65 15.15 5
      vertex -7.65 -15.15 5
      vertex -6.65 -15.15 5
    endloop
  endfacet
  facet normal 0 0 1
    outer loop
      vertex 7.65 -15.15 5
      vertex 6.65 15.15 5
      vertex 6.65 -15.15 5
    endloop
  endfacet
  facet normal 1 -0 0
    outer loop
      vertex 7.65 -15.15 5
      vertex 7.65 16.15 -5
      vertex 7.65 16.15 5
    endloop
  endfacet
  facet normal 1 0 0
    outer loop
      vertex 7.65 16.15 -5
      vertex 7.65 -15.15 5
      vertex 7.65 -15.15 -5
    endloop
  endfacet
  facet normal 0 1 -0
    outer loop
      vertex 7.65 16.15 -5
      vertex -7.65 16.15 5
      vertex 7.65 16.15 5
    endloop
  endfacet
  facet normal 0 1 0
    outer loop
      vertex -7.65 16.15 5
      vertex 7.65 16.15 -5
      vertex -7.65 16.15 -5
    endloop
  endfacet
  facet normal 0 0 -1
    outer loop
      vertex -7.65 -15.15 -5
      vertex 7.65 16.15 -5
      vertex 7.65 -15.15 -5
    endloop
  endfacet
  facet normal -0 0 -1
    outer loop
      vertex 7.65 16.15 -5
      vertex -7.65 -15.15 -5
      vertex -7.65 16.15 -5
    endloop
  endfacet
  facet normal 1 -0 0
    outer loop
      vertex -6.65 -15.15 5
      vertex -6.65 15.15 -3
      vertex -6.65 15.15 5
    endloop
  endfacet
  facet normal 1 0 0
    outer loop
      vertex -6.65 15.15 -3
      vertex -6.65 -15.15 5
      vertex -6.65 -15.15 -3
    endloop
  endfacet
  facet normal -1 0 0
    outer loop
      vertex 6.65 -15.15 -3
      vertex 6.65 15.15 5
      vertex 6.65 15.15 -3
    endloop
  endfacet
  facet normal -1 -0 0
    outer loop
      vertex 6.65 15.15 5
      vertex 6.65 -15.15 -3
      vertex 6.65 -15.15 5
    endloop
  endfacet
  facet normal -0 0 1
    outer loop
      vertex 0.949188 -7.95107 -3
      vertex 6.65 -15.15 -3
      vertex 6.65 15.15 -3
    endloop
  endfacet
  facet normal 0 0 1
    outer loop
      vertex 6.65 -15.15 -3
      vertex 1.04873 -8.34848 -3
      vertex 1.05 -8.4 -3
    endloop
  endfacet
  facet normal 0 0 1
    outer loop
      vertex 6.65 -15.15 -3
      vertex 1.04494 -8.29708 -3
      vertex 1.04873 -8.34848 -3
    endloop
  endfacet
  facet normal 0 0 1
    outer loop
      vertex 6.65 -15.15 -3
      vertex 1.03864 -8.24593 -3
      vertex 1.04494 -8.29708 -3
    endloop
  endfacet
  facet normal 0 0 1
    outer loop
      vertex 6.65 -15.15 -3
      vertex 1.02982 -8.19516 -3
      vertex 1.03864 -8.24593 -3
    endloop
  endfacet
  facet normal 0 0 1
    outer loop
      vertex 6.65 -15.15 -3
      vertex 1.01853 -8.14487 -3
      vertex 1.02982 -8.19516 -3
    endloop
  endfacet
  facet normal 0 0 1
    outer loop
      vertex 6.65 -15.15 -3
      vertex 1.00479 -8.0952 -3
      vertex 1.01853 -8.14487 -3
    endloop
  endfacet
  facet normal 0 0 1
    outer loop
      vertex 6.65 -15.15 -3
      vertex 0.988621 -8.04627 -3
      vertex 1.00479 -8.0952 -3
    endloop
  endfacet
  facet normal 0 0 1
    outer loop
      vertex 6.65 -15.15 -3
      vertex 0.970073 -7.99818 -3
      vertex 0.988621 -8.04627 -3
    endloop
  endfacet
  facet normal 0 0 1
    outer loop
      vertex 6.65 -15.15 -3
      vertex 0.949188 -7.95107 -3
      vertex 0.970073 -7.99818 -3
    endloop
  endfacet
  facet normal 0 0 1
    outer loop
      vertex 6.65 15.15 -3
      vertex 0.926017 -7.90503 -3
      vertex 0.949188 -7.95107 -3
    endloop
  endfacet
  facet normal 0 0 1
    outer loop
      vertex 6.65 15.15 -3
      vertex 0.900615 -7.86019 -3
      vertex 0.926017 -7.90503 -3
    endloop
  endfacet
  facet normal 0 0 1
    outer loop
      vertex 6.65 15.15 -3
      vertex 0.873043 -7.81665 -3
      vertex 0.900615 -7.86019 -3
    endloop
  endfacet
  facet normal 0 0 1
    outer loop
      vertex 6.65 15.15 -3
      vertex 0.843368 -7.77452 -3
      vertex 0.873043 -7.81665 -3
    endloop
  endfacet
  facet normal 0 0 1
    outer loop
      vertex 6.65 15.15 -3
      vertex 0.811661 -7.73389 -3
      vertex 0.843368 -7.77452 -3
    endloop
  endfacet
  facet normal 0 0 1
    outer loop
      vertex 6.65 15.15 -3
      vertex 0.777998 -7.69486 -3
      vertex 0.811661 -7.73389 -3
    endloop
  endfacet
  facet normal 0 0 1
    outer loop
      vertex 6.65 15.15 -3
      vertex 0.742461 -7.65754 -3
      vertex 0.777998 -7.69486 -3
    endloop
  endfacet
  facet normal 0 0 1
    outer loop
      vertex 6.65 15.15 -3
      vertex 0.705136 -7.622 -3
      vertex 0.742461 -7.65754 -3
    endloop
  endfacet
  facet normal 0 0 1
    outer loop
      vertex 6.65 15.15 -3
      vertex 0.666113 -7.58834 -3
      vertex 0.705136 -7.622 -3
    endloop
  endfacet
  facet normal 0 0 1
    outer loop
      vertex 6.65 15.15 -3
      vertex 0.625484 -7.55663 -3
      vertex 0.666113 -7.58834 -3
    endloop
  endfacet
  facet normal 0 0 1
    outer loop
      vertex 6.65 15.15 -3
      vertex 0.583348 -7.52696 -3
      vertex 0.625484 -7.55663 -3
    endloop
  endfacet
  facet normal 0 0 1
    outer loop
      vertex 6.65 15.15 -3
      vertex 0.539807 -7.49938 -3
      vertex 0.583348 -7.52696 -3
    endloop
  endfacet
  facet normal 0 0 1
    outer loop
      vertex 6.65 15.15 -3
      vertex 0.494967 -7.47398 -3
      vertex 0.539807 -7.49938 -3
    endloop
  endfacet
  facet normal 0 0 1
    outer loop
      vertex 6.65 15.15 -3
      vertex 0.448933 -7.45081 -3
      vertex 0.494967 -7.47398 -3
    endloop
  endfacet
  facet normal 0 0 1
    outer loop
      vertex 6.65 15.15 -3
      vertex 0.401817 -7.42993 -3
      vertex 0.448933 -7.45081 -3
    endloop
  endfacet
  facet normal 0 0 1
    outer loop
      vertex 6.65 15.15 -3
      vertex 0.353734 -7.41138 -3
      vertex 0.401817 -7.42993 -3
    endloop
  endfacet
  facet normal 0 0 1
    outer loop
      vertex 6.65 15.15 -3
      vertex 0.304798 -7.39521 -3
      vertex 0.353734 -7.41138 -3
    endloop
  endfacet
  facet normal 0 0 1
    outer loop
      vertex 6.65 15.15 -3
      vertex 0.255129 -7.38147 -3
      vertex 0.304798 -7.39521 -3
    endloop
  endfacet
  facet normal 0 0 1
    outer loop
      vertex 6.65 15.15 -3
      vertex 0.204844 -7.37018 -3
      vertex 0.255129 -7.38147 -3
    endloop
  endfacet
  facet normal 0 0 1
    outer loop
      vertex 6.65 15.15 -3
      vertex 0.154066 -7.36136 -3
      vertex 0.204844 -7.37018 -3
    endloop
  endfacet
  facet normal 0 0 1
    outer loop
      vertex 6.65 15.15 -3
      vertex 0.102918 -7.35506 -3
      vertex 0.154066 -7.36136 -3
    endloop
  endfacet
  facet normal 0 0 1
    outer loop
      vertex 6.65 15.15 -3
      vertex 0.0515203 -7.35126 -3
      vertex 0.102918 -7.35506 -3
    endloop
  endfacet
  facet normal 0 0 1
    outer loop
      vertex 6.65 15.15 -3
      vertex 0 -7.35 -3
      vertex 0.0515203 -7.35126 -3
    endloop
  endfacet
  facet normal -0 0 1
    outer loop
      vertex -6.65 15.15 -3
      vertex 0 -7.35 -3
      vertex 6.65 15.15 -3
    endloop
  endfacet
  facet normal 0 0 1
    outer loop
      vertex 0 -7.35 -3
      vertex -6.65 15.15 -3
      vertex -0.0515203 -7.35126 -3
    endloop
  endfacet
  facet normal 0 0 1
    outer loop
      vertex -0.0515203 -7.35126 -3
      vertex -6.65 15.15 -3
      vertex -0.102918 -7.35506 -3
    endloop
  endfacet
  facet normal 0 0 1
    outer loop
      vertex -0.102918 -7.35506 -3
      vertex -6.65 15.15 -3
      vertex -0.154066 -7.36136 -3
    endloop
  endfacet
  facet normal 0 0 1
    outer loop
      vertex -0.154066 -7.36136 -3
      vertex -6.65 15.15 -3
      vertex -0.204844 -7.37018 -3
    endloop
  endfacet
  facet normal 0 0 1
    outer loop
      vertex -0.204844 -7.37018 -3
      vertex -6.65 15.15 -3
      vertex -0.255129 -7.38147 -3
    endloop
  endfacet
  facet normal 0 0 1
    outer loop
      vertex -0.255129 -7.38147 -3
      vertex -6.65 15.15 -3
      vertex -0.304798 -7.39521 -3
    endloop
  endfacet
  facet normal 0 0 1
    outer loop
      vertex -0.304798 -7.39521 -3
      vertex -6.65 15.15 -3
      vertex -0.353734 -7.41138 -3
    endloop
  endfacet
  facet normal 0 0 1
    outer loop
      vertex -0.353734 -7.41138 -3
      vertex -6.65 15.15 -3
      vertex -0.401817 -7.42993 -3
    endloop
  endfacet
  facet normal 0 0 1
    outer loop
      vertex -0.401817 -7.42993 -3
      vertex -6.65 15.15 -3
      vertex -0.448933 -7.45081 -3
    endloop
  endfacet
  facet normal 0 0 1
    outer loop
      vertex -0.448933 -7.45081 -3
      vertex -6.65 15.15 -3
      vertex -0.494967 -7.47398 -3
    endloop
  endfacet
  facet normal 0 0 1
    outer loop
      vertex -0.494967 -7.47398 -3
      vertex -6.65 15.15 -3
      vertex -0.539807 -7.49938 -3
    endloop
  endfacet
  facet normal 0 0 1
    outer loop
      vertex -0.539807 -7.49938 -3
      vertex -6.65 15.15 -3
      vertex -0.583348 -7.52696 -3
    endloop
  endfacet
  facet normal 0 0 1
    outer loop
      vertex -0.583348 -7.52696 -3
      vertex -6.65 15.15 -3
      vertex -0.625484 -7.55663 -3
    endloop
  endfacet
  facet normal 0 0 1
    outer loop
      vertex -0.625484 -7.55663 -3
      vertex -6.65 15.15 -3
      vertex -0.666113 -7.58834 -3
    endloop
  endfacet
  facet normal 0 0 1
    outer loop
      vertex -0.666113 -7.58834 -3
      vertex -6.65 15.15 -3
      vertex -0.705136 -7.622 -3
    endloop
  endfacet
  facet normal 0 0 1
    outer loop
      vertex -0.705136 -7.622 -3
      vertex -6.65 15.15 -3
      vertex -0.742461 -7.65754 -3
    endloop
  endfacet
  facet normal 0 0 1
    outer loop
      vertex -0.742461 -7.65754 -3
      vertex -6.65 15.15 -3
      vertex -0.777998 -7.69486 -3
    endloop
  endfacet
  facet normal 0 0 1
    outer loop
      vertex -0.777998 -7.69486 -3
      vertex -6.65 15.15 -3
      vertex -0.811661 -7.73389 -3
    endloop
  endfacet
  facet normal 0 0 1
    outer loop
      vertex -0.811661 -7.73389 -3
      vertex -6.65 15.15 -3
      vertex -0.843368 -7.77452 -3
    endloop
  endfacet
  facet normal 0 0 1
    outer loop
      vertex -0.843368 -7.77452 -3
      vertex -6.65 15.15 -3
      vertex -0.873043 -7.81665 -3
    endloop
  endfacet
  facet normal 0 0 1
    outer loop
      vertex -0.873043 -7.81665 -3
      vertex -6.65 15.15 -3
      vertex -0.900615 -7.86019 -3
    endloop
  endfacet
  facet normal 0 0 1
    outer loop
      vertex -0.900615 -7.86019 -3
      vertex -6.65 15.15 -3
      vertex -0.926017 -7.90503 -3
    endloop
  endfacet
  facet normal 0 0 1
    outer loop
      vertex -0.926017 -7.90503 -3
      vertex -6.65 15.15 -3
      vertex -0.949188 -7.95107 -3
    endloop
  endfacet
  facet normal 0 0 1
    outer loop
      vertex -6.65 -15.15 -3
      vertex -0.949188 -7.95107 -3
      vertex -6.65 15.15 -3
    endloop
  endfacet
  facet normal 0 0 1
    outer loop
      vertex -0.949188 -7.95107 -3
      vertex -6.65 -15.15 -3
      vertex -0.970073 -7.99818 -3
    endloop
  endfacet
  facet normal 0 0 1
    outer loop
      vertex -1.04494 -8.29708 -3
      vertex -6.65 -15.15 -3
      vertex -1.04873 -8.34848 -3
    endloop
  endfacet
  facet normal 0 0 1
    outer loop
      vertex -1.03864 -8.24593 -3
      vertex -6.65 -15.15 -3
      vertex -1.04494 -8.29708 -3
    endloop
  endfacet
  facet normal 0 0 1
    outer loop
      vertex -1.02982 -8.19516 -3
      vertex -6.65 -15.15 -3
      vertex -1.03864 -8.24593 -3
    endloop
  endfacet
  facet normal 0 0 1
    outer loop
      vertex -1.01853 -8.14487 -3
      vertex -6.65 -15.15 -3
      vertex -1.02982 -8.19516 -3
    endloop
  endfacet
  facet normal 0 0 1
    outer loop
      vertex -1.00479 -8.0952 -3
      vertex -6.65 -15.15 -3
      vertex -1.01853 -8.14487 -3
    endloop
  endfacet
  facet normal 0 0 1
    outer loop
      vertex -0.988621 -8.04627 -3
      vertex -6.65 -15.15 -3
      vertex -1.00479 -8.0952 -3
    endloop
  endfacet
  facet normal 0 0 1
    outer loop
      vertex -0.970073 -7.99818 -3
      vertex -6.65 -15.15 -3
      vertex -0.988621 -8.04627 -3
    endloop
  endfacet
  facet normal -0 0 1
    outer loop
      vertex 1.04873 -8.45152 -3
      vertex 6.65 -15.15 -3
      vertex 1.05 -8.4 -3
    endloop
  endfacet
  facet normal -0 0 1
    outer loop
      vertex 1.04494 -8.50292 -3
      vertex 6.65 -15.15 -3
      vertex 1.04873 -8.45152 -3
    endloop
  endfacet
  facet normal -0 0 1
    outer loop
      vertex 1.03864 -8.55407 -3
      vertex 6.65 -15.15 -3
      vertex 1.04494 -8.50292 -3
    endloop
  endfacet
  facet normal -0 0 1
    outer loop
      vertex 1.02982 -8.60484 -3
      vertex 6.65 -15.15 -3
      vertex 1.03864 -8.55407 -3
    endloop
  endfacet
  facet normal -0 0 1
    outer loop
      vertex 1.01853 -8.65513 -3
      vertex 6.65 -15.15 -3
      vertex 1.02982 -8.60484 -3
    endloop
  endfacet
  facet normal -0 0 1
    outer loop
      vertex 1.00479 -8.7048 -3
      vertex 6.65 -15.15 -3
      vertex 1.01853 -8.65513 -3
    endloop
  endfacet
  facet normal -0 0 1
    outer loop
      vertex 0.988621 -8.75373 -3
      vertex 6.65 -15.15 -3
      vertex 1.00479 -8.7048 -3
    endloop
  endfacet
  facet normal -0 0 1
    outer loop
      vertex 0.970073 -8.80182 -3
      vertex 6.65 -15.15 -3
      vertex 0.988621 -8.75373 -3
    endloop
  endfacet
  facet normal -0 0 1
    outer loop
      vertex 0.949188 -8.84893 -3
      vertex 6.65 -15.15 -3
      vertex 0.970073 -8.80182 -3
    endloop
  endfacet
  facet normal -0 0 1
    outer loop
      vertex 0.926017 -8.89497 -3
      vertex 6.65 -15.15 -3
      vertex 0.949188 -8.84893 -3
    endloop
  endfacet
  facet normal -0 0 1
    outer loop
      vertex 0.900615 -8.93981 -3
      vertex 6.65 -15.15 -3
      vertex 0.926017 -8.89497 -3
    endloop
  endfacet
  facet normal -0 0 1
    outer loop
      vertex 0.873043 -8.98335 -3
      vertex 6.65 -15.15 -3
      vertex 0.900615 -8.93981 -3
    endloop
  endfacet
  facet normal -0 0 1
    outer loop
      vertex 0.843368 -9.02548 -3
      vertex 6.65 -15.15 -3
      vertex 0.873043 -8.98335 -3
    endloop
  endfacet
  facet normal -0 0 1
    outer loop
      vertex 0.811661 -9.06611 -3
      vertex 6.65 -15.15 -3
      vertex 0.843368 -9.02548 -3
    endloop
  endfacet
  facet normal -0 0 1
    outer loop
      vertex 0.777998 -9.10514 -3
      vertex 6.65 -15.15 -3
      vertex 0.811661 -9.06611 -3
    endloop
  endfacet
  facet normal -0 0 1
    outer loop
      vertex 0.742461 -9.14246 -3
      vertex 6.65 -15.15 -3
      vertex 0.777998 -9.10514 -3
    endloop
  endfacet
  facet normal -0 0 1
    outer loop
      vertex 0.705136 -9.178 -3
      vertex 6.65 -15.15 -3
      vertex 0.742461 -9.14246 -3
    endloop
  endfacet
  facet normal -0 0 1
    outer loop
      vertex 0.666113 -9.21166 -3
      vertex 6.65 -15.15 -3
      vertex 0.705136 -9.178 -3
    endloop
  endfacet
  facet normal -0 0 1
    outer loop
      vertex 0.625484 -9.24337 -3
      vertex 6.65 -15.15 -3
      vertex 0.666113 -9.21166 -3
    endloop
  endfacet
  facet normal -0 0 1
    outer loop
      vertex 0.583348 -9.27304 -3
      vertex 6.65 -15.15 -3
      vertex 0.625484 -9.24337 -3
    endloop
  endfacet
  facet normal -0 0 1
    outer loop
      vertex 0.539807 -9.30061 -3
      vertex 6.65 -15.15 -3
      vertex 0.583348 -9.27304 -3
    endloop
  endfacet
  facet normal -0 0 1
    outer loop
      vertex 0.494967 -9.32602 -3
      vertex 6.65 -15.15 -3
      vertex 0.539807 -9.30061 -3
    endloop
  endfacet
  facet normal -0 0 1
    outer loop
      vertex 0.448933 -9.34919 -3
      vertex 6.65 -15.15 -3
      vertex 0.494967 -9.32602 -3
    endloop
  endfacet
  facet normal -0 0 1
    outer loop
      vertex 0.401817 -9.37007 -3
      vertex 6.65 -15.15 -3
      vertex 0.448933 -9.34919 -3
    endloop
  endfacet
  facet normal -0 0 1
    outer loop
      vertex 0.353734 -9.38862 -3
      vertex 6.65 -15.15 -3
      vertex 0.401817 -9.37007 -3
    endloop
  endfacet
  facet normal -0 0 1
    outer loop
      vertex 0.304798 -9.40479 -3
      vertex 6.65 -15.15 -3
      vertex 0.353734 -9.38862 -3
    endloop
  endfacet
  facet normal -0 0 1
    outer loop
      vertex 0.255129 -9.41853 -3
      vertex 6.65 -15.15 -3
      vertex 0.304798 -9.40479 -3
    endloop
  endfacet
  facet normal -0 0 1
    outer loop
      vertex 0.204844 -9.42982 -3
      vertex 6.65 -15.15 -3
      vertex 0.255129 -9.41853 -3
    endloop
  endfacet
  facet normal -0 0 1
    outer loop
      vertex 0.154066 -9.43863 -3
      vertex 6.65 -15.15 -3
      vertex 0.204844 -9.42982 -3
    endloop
  endfacet
  facet normal -0 0 1
    outer loop
      vertex 0.102918 -9.44494 -3
      vertex 6.65 -15.15 -3
      vertex 0.154066 -9.43863 -3
    endloop
  endfacet
  facet normal -0 0 1
    outer loop
      vertex 0.0515203 -9.44873 -3
      vertex 6.65 -15.15 -3
      vertex 0.102918 -9.44494 -3
    endloop
  endfacet
  facet normal -0 0 1
    outer loop
      vertex 0 -9.45 -3
      vertex 6.65 -15.15 -3
      vertex 0.0515203 -9.44873 -3
    endloop
  endfacet
  facet normal 0 0 1
    outer loop
      vertex -6.65 -15.15 -3
      vertex 0 -9.45 -3
      vertex -0.0515203 -9.44873 -3
    endloop
  endfacet
  facet normal 0 0 1
    outer loop
      vertex -6.65 -15.15 -3
      vertex -0.0515203 -9.44873 -3
      vertex -0.102918 -9.44494 -3
    endloop
  endfacet
  facet normal 0 0 1
    outer loop
      vertex -6.65 -15.15 -3
      vertex -0.102918 -9.44494 -3
      vertex -0.154066 -9.43863 -3
    endloop
  endfacet
  facet normal 0 0 1
    outer loop
      vertex -6.65 -15.15 -3
      vertex -0.154066 -9.43863 -3
      vertex -0.204844 -9.42982 -3
    endloop
  endfacet
  facet normal 0 0 1
    outer loop
      vertex -6.65 -15.15 -3
      vertex -0.204844 -9.42982 -3
      vertex -0.255129 -9.41853 -3
    endloop
  endfacet
  facet normal 0 0 1
    outer loop
      vertex -6.65 -15.15 -3
      vertex -0.255129 -9.41853 -3
      vertex -0.304798 -9.40479 -3
    endloop
  endfacet
  facet normal 0 0 1
    outer loop
      vertex -6.65 -15.15 -3
      vertex -0.304798 -9.40479 -3
      vertex -0.353734 -9.38862 -3
    endloop
  endfacet
  facet normal 0 0 1
    outer loop
      vertex -6.65 -15.15 -3
      vertex -0.353734 -9.38862 -3
      vertex -0.401817 -9.37007 -3
    endloop
  endfacet
  facet normal 0 0 1
    outer loop
      vertex -6.65 -15.15 -3
      vertex -0.401817 -9.37007 -3
      vertex -0.448933 -9.34919 -3
    endloop
  endfacet
  facet normal 0 0 1
    outer loop
      vertex -6.65 -15.15 -3
      vertex -0.448933 -9.34919 -3
      vertex -0.494967 -9.32602 -3
    endloop
  endfacet
  facet normal 0 0 1
    outer loop
      vertex -6.65 -15.15 -3
      vertex -0.494967 -9.32602 -3
      vertex -0.539807 -9.30061 -3
    endloop
  endfacet
  facet normal 0 0 1
    outer loop
      vertex -6.65 -15.15 -3
      vertex -0.539807 -9.30061 -3
      vertex -0.583348 -9.27304 -3
    endloop
  endfacet
  facet normal 0 0 1
    outer loop
      vertex -6.65 -15.15 -3
      vertex -0.583348 -9.27304 -3
      vertex -0.625484 -9.24337 -3
    endloop
  endfacet
  facet normal 0 0 1
    outer loop
      vertex -6.65 -15.15 -3
      vertex -0.625484 -9.24337 -3
      vertex -0.666113 -9.21166 -3
    endloop
  endfacet
  facet normal 0 0 1
    outer loop
      vertex -1.04873 -8.34848 -3
      vertex -6.65 -15.15 -3
      vertex -1.05 -8.4 -3
    endloop
  endfacet
  facet normal 0 0 1
    outer loop
      vertex -1.05 -8.4 -3
      vertex -6.65 -15.15 -3
      vertex -1.04873 -8.45152 -3
    endloop
  endfacet
  facet normal 0 0 1
    outer loop
      vertex -1.04873 -8.45152 -3
      vertex -6.65 -15.15 -3
      vertex -1.04494 -8.50292 -3
    endloop
  endfacet
  facet normal 0 0 1
    outer loop
      vertex -1.04494 -8.50292 -3
      vertex -6.65 -15.15 -3
      vertex -1.03864 -8.55407 -3
    endloop
  endfacet
  facet normal 0 0 1
    outer loop
      vertex -1.03864 -8.55407 -3
      vertex -6.65 -15.15 -3
      vertex -1.02982 -8.60484 -3
    endloop
  endfacet
  facet normal 0 0 1
    outer loop
      vertex 0 -9.45 -3
      vertex -6.65 -15.15 -3
      vertex 6.65 -15.15 -3
    endloop
  endfacet
  facet normal 0 0 1
    outer loop
      vertex -0.705136 -9.178 -3
      vertex -6.65 -15.15 -3
      vertex -0.666113 -9.21166 -3
    endloop
  endfacet
  facet normal 0 0 1
    outer loop
      vertex -0.742461 -9.14246 -3
      vertex -6.65 -15.15 -3
      vertex -0.705136 -9.178 -3
    endloop
  endfacet
  facet normal 0 0 1
    outer loop
      vertex -0.777998 -9.10514 -3
      vertex -6.65 -15.15 -3
      vertex -0.742461 -9.14246 -3
    endloop
  endfacet
  facet normal 0 0 1
    outer loop
      vertex -0.811661 -9.06611 -3
      vertex -6.65 -15.15 -3
      vertex -0.777998 -9.10514 -3
    endloop
  endfacet
  facet normal 0 0 1
    outer loop
      vertex -0.843368 -9.02548 -3
      vertex -6.65 -15.15 -3
      vertex -0.811661 -9.06611 -3
    endloop
  endfacet
  facet normal 0 0 1
    outer loop
      vertex -0.873043 -8.98335 -3
      vertex -6.65 -15.15 -3
      vertex -0.843368 -9.02548 -3
    endloop
  endfacet
  facet normal 0 0 1
    outer loop
      vertex -0.900615 -8.93981 -3
      vertex -6.65 -15.15 -3
      vertex -0.873043 -8.98335 -3
    endloop
  endfacet
  facet normal 0 0 1
    outer loop
      vertex -0.926017 -8.89497 -3
      vertex -6.65 -15.15 -3
      vertex -0.900615 -8.93981 -3
    endloop
  endfacet
  facet normal 0 0 1
    outer loop
      vertex -0.949188 -8.84893 -3
      vertex -6.65 -15.15 -3
      vertex -0.926017 -8.89497 -3
    endloop
  endfacet
  facet normal 0 0 1
    outer loop
      vertex -0.970073 -8.80182 -3
      vertex -6.65 -15.15 -3
      vertex -0.949188 -8.84893 -3
    endloop
  endfacet
  facet normal 0 0 1
    outer loop
      vertex -0.988621 -8.75373 -3
      vertex -6.65 -15.15 -3
      vertex -0.970073 -8.80182 -3
    endloop
  endfacet
  facet normal 0 0 1
    outer loop
      vertex -1.00479 -8.7048 -3
      vertex -6.65 -15.15 -3
      vertex -0.988621 -8.75373 -3
    endloop
  endfacet
  facet normal 0 0 1
    outer loop
      vertex -1.01853 -8.65513 -3
      vertex -6.65 -15.15 -3
      vertex -1.00479 -8.7048 -3
    endloop
  endfacet
  facet normal 0 0 1
    outer loop
      vertex -1.02982 -8.60484 -3
      vertex -6.65 -15.15 -3
      vertex -1.01853 -8.65513 -3
    endloop
  endfacet
  facet normal 0 -1 0
    outer loop
      vertex -7.65 -15.15 5
      vertex -6.65 -15.15 -3
      vertex -6.65 -15.15 5
    endloop
  endfacet
  facet normal 0 -1 -0
    outer loop
      vertex -6.65 -15.15 -3
      vertex -7.65 -15.15 -5
      vertex 6.65 -15.15 -3
    endloop
  endfacet
  facet normal 0 -1 0
    outer loop
      vertex -7.65 -15.15 -5
      vertex -6.65 -15.15 -3
      vertex -7.65 -15.15 5
    endloop
  endfacet
  facet normal 0 -1 0
    outer loop
      vertex 6.65 -15.15 -3
      vertex 7.65 -15.15 5
      vertex 6.65 -15.15 5
    endloop
  endfacet
  facet normal 0 -1 0
    outer loop
      vertex 6.65 -15.15 -3
      vertex 7.65 -15.15 -5
      vertex 7.65 -15.15 5
    endloop
  endfacet
  facet normal 0 -1 0
    outer loop
      vertex 7.65 -15.15 -5
      vertex 6.65 -15.15 -3
      vertex -7.65 -15.15 -5
    endloop
  endfacet
  facet normal 0 -1 0
    outer loop
      vertex -6.65 15.15 -3
      vertex 6.65 15.15 5
      vertex -6.65 15.15 5
    endloop
  endfacet
  facet normal 0 -1 -0
    outer loop
      vertex 6.65 15.15 5
      vertex -6.65 15.15 -3
      vertex 6.65 15.15 -3
    endloop
  endfacet
  facet normal -1 0 0
    outer loop
      vertex -7.65 -30 -5
      vertex -7.65 -20 -4
      vertex -7.65 -20 -5
    endloop
  endfacet
  facet normal -1 -0 0
    outer loop
      vertex -7.65 -20 -4
      vertex -7.65 -30 -5
      vertex -7.65 -30 -4
    endloop
  endfacet
  facet normal 0 -1 0
    outer loop
      vertex -7.65 -30 -5
      vertex 7.65 -30 -4
      vertex -7.65 -30 -4
    endloop
  endfacet
  facet normal 0 -1 -0
    outer loop
      vertex 7.65 -30 -4
      vertex -7.65 -30 -5
      vertex 7.65 -30 -5
    endloop
  endfacet
  facet normal 1 0 0
    outer loop
      vertex 7.65 -30 -4
      vertex 7.65 -20 -5
      vertex 7.65 -20 -4
    endloop
  endfacet
  facet normal 1 0 0
    outer loop
      vertex 7.65 -20 -5
      vertex 7.65 -30 -4
      vertex 7.65 -30 -5
    endloop
  endfacet
  facet normal -2.76427e-008 9.53674e-008 1
    outer loop
      vertex 7.65 -20 -4
      vertex 4.2 -23.5 -4
      vertex 7.65 -30 -4
    endloop
  endfacet
  facet normal 0 6.81196e-008 1
    outer loop
      vertex 7.65 -20 -4
      vertex -4.2 -23.5 -4
      vertex 4.2 -23.5 -4
    endloop
  endfacet
  facet normal 9.21425e-008 1.58946e-007 1
    outer loop
      vertex -4.2 -23.5 -4
      vertex -7.65 -20 -4
      vertex -4.2 -26.5 -4
    endloop
  endfacet
  facet normal -0 6.81196e-008 1
    outer loop
      vertex -7.65 -20 -4
      vertex -4.2 -23.5 -4
      vertex 7.65 -20 -4
    endloop
  endfacet
  facet normal 9.21425e-008 1.58946e-007 1
    outer loop
      vertex 4.2 -26.5 -4
      vertex 7.65 -30 -4
      vertex 4.2 -23.5 -4
    endloop
  endfacet
  facet normal -0 6.81196e-008 1
    outer loop
      vertex -4.2 -26.5 -4
      vertex 7.65 -30 -4
      vertex 4.2 -26.5 -4
    endloop
  endfacet
  facet normal 0 6.81196e-008 1
    outer loop
      vertex -4.2 -26.5 -4
      vertex -7.65 -30 -4
      vertex 7.65 -30 -4
    endloop
  endfacet
  facet normal -2.76427e-008 9.53674e-008 1
    outer loop
      vertex -7.65 -30 -4
      vertex -4.2 -26.5 -4
      vertex -7.65 -20 -4
    endloop
  endfacet
  facet normal 0 1 -0
    outer loop
      vertex 7.65 -20 -5
      vertex -7.65 -20 -4
      vertex 7.65 -20 -4
    endloop
  endfacet
  facet normal 0 1 0
    outer loop
      vertex -7.65 -20 -4
      vertex 7.65 -20 -5
      vertex -7.65 -20 -5
    endloop
  endfacet
  facet normal 4.14641e-008 -9.53674e-008 -1
    outer loop
      vertex 7.65 -30 -5
      vertex 4.2 -26.5 -5
      vertex 7.65 -20 -5
    endloop
  endfacet
  facet normal 0 -1.36239e-007 -1
    outer loop
      vertex 7.65 -30 -5
      vertex -4.2 -26.5 -5
      vertex 4.2 -26.5 -5
    endloop
  endfacet
  facet normal -1.38214e-007 0 -1
    outer loop
      vertex -4.2 -26.5 -5
      vertex -7.65 -30 -5
      vertex -4.2 -23.5 -5
    endloop
  endfacet
  facet normal 0 -1.36239e-007 -1
    outer loop
      vertex -7.65 -30 -5
      vertex -4.2 -26.5 -5
      vertex 7.65 -30 -5
    endloop
  endfacet
  facet normal -1.38214e-007 -0 -1
    outer loop
      vertex 4.2 -23.5 -5
      vertex 7.65 -20 -5
      vertex 4.2 -26.5 -5
    endloop
  endfacet
  facet normal 0 -1.36239e-007 -1
    outer loop
      vertex -4.2 -23.5 -5
      vertex 7.65 -20 -5
      vertex 4.2 -23.5 -5
    endloop
  endfacet
  facet normal 0 -1.36239e-007 -1
    outer loop
      vertex -4.2 -23.5 -5
      vertex -7.65 -20 -5
      vertex 7.65 -20 -5
    endloop
  endfacet
  facet normal 4.14641e-008 -9.53674e-008 -1
    outer loop
      vertex -7.65 -20 -5
      vertex -4.2 -23.5 -5
      vertex -7.65 -30 -5
    endloop
  endfacet
  facet normal 1 0 0
    outer loop
      vertex -4.2 -26.5 -4
      vertex -4.2 -23.5 -5
      vertex -4.2 -23.5 -4
    endloop
  endfacet
  facet normal 1 0 0
    outer loop
      vertex -4.2 -23.5 -5
      vertex -4.2 -26.5 -4
      vertex -4.2 -26.5 -5
    endloop
  endfacet
  facet normal -1 0 0
    outer loop
      vertex 4.2 -26.5 -5
      vertex 4.2 -23.5 -4
      vertex 4.2 -23.5 -5
    endloop
  endfacet
  facet normal -1 -0 0
    outer loop
      vertex 4.2 -23.5 -4
      vertex 4.2 -26.5 -5
      vertex 4.2 -26.5 -4
    endloop
  endfacet
  facet normal 0 -1 0
    outer loop
      vertex -4.2 -23.5 -5
      vertex 4.2 -23.5 -4
      vertex -4.2 -23.5 -4
    endloop
  endfacet
  facet normal 0 -1 -0
    outer loop
      vertex 4.2 -23.5 -4
      vertex -4.2 -23.5 -5
      vertex 4.2 -23.5 -5
    endloop
  endfacet
  facet normal 0 1 -0
    outer loop
      vertex 4.2 -26.5 -5
      vertex -4.2 -26.5 -4
      vertex 4.2 -26.5 -4
    endloop
  endfacet
  facet normal 0 1 0
    outer loop
      vertex -4.2 -26.5 -4
      vertex 4.2 -26.5 -5
      vertex -4.2 -26.5 -5
    endloop
  endfacet
  facet normal 0.999699 0.0245373 0
    outer loop
      vertex 1.05 -8.4 -1
      vertex 1.04873 -8.34848 -3
      vertex 1.04873 -8.34848 -1
    endloop
  endfacet
  facet normal 0.999699 0.0245373 0
    outer loop
      vertex 1.04873 -8.34848 -3
      vertex 1.05 -8.4 -1
      vertex 1.05 -8.4 -3
    endloop
  endfacet
  facet normal -0.999699 0.0245373 0
    outer loop
      vertex -1.05 -8.4 -3
      vertex -1.04873 -8.34848 -1
      vertex -1.04873 -8.34848 -3
    endloop
  endfacet
  facet normal -0.999699 0.0245373 0
    outer loop
      vertex -1.04873 -8.34848 -1
      vertex -1.05 -8.4 -3
      vertex -1.05 -8.4 -1
    endloop
  endfacet
  facet normal -0.0245377 0.999699 0
    outer loop
      vertex 0 -7.35 -3
      vertex -0.0515203 -7.35126 -1
      vertex 0 -7.35 -1
    endloop
  endfacet
  facet normal -0.0245377 0.999699 0
    outer loop
      vertex -0.0515203 -7.35126 -1
      vertex 0 -7.35 -3
      vertex -0.0515203 -7.35126 -3
    endloop
  endfacet
  facet normal -0.0245562 -0.999698 0
    outer loop
      vertex -0.0515203 -9.44873 -3
      vertex 0 -9.45 -1
      vertex -0.0515203 -9.44873 -1
    endloop
  endfacet
  facet normal -0.0245562 -0.999698 -0
    outer loop
      vertex 0 -9.45 -1
      vertex -0.0515203 -9.44873 -3
      vertex 0 -9.45 -3
    endloop
  endfacet
  facet normal 0.689546 0.724242 -0
    outer loop
      vertex 0.742461 -7.65754 -3
      vertex 0.705136 -7.622 -1
      vertex 0.742461 -7.65754 -1
    endloop
  endfacet
  facet normal 0.689546 0.724242 0
    outer loop
      vertex 0.705136 -7.622 -1
      vertex 0.742461 -7.65754 -3
      vertex 0.705136 -7.622 -3
    endloop
  endfacet
  facet normal -0.724242 0.689546 0
    outer loop
      vertex -0.777998 -7.69486 -3
      vertex -0.742461 -7.65754 -1
      vertex -0.742461 -7.65754 -3
    endloop
  endfacet
  facet normal -0.724242 0.689546 0
    outer loop
      vertex -0.742461 -7.65754 -1
      vertex -0.777998 -7.69486 -3
      vertex -0.777998 -7.69486 -1
    endloop
  endfacet
  facet normal -0.932991 -0.359899 0
    outer loop
      vertex -0.970073 -8.80182 -3
      vertex -0.988621 -8.75373 -1
      vertex -0.988621 -8.75373 -3
    endloop
  endfacet
  facet normal -0.932991 -0.359899 0
    outer loop
      vertex -0.988621 -8.75373 -1
      vertex -0.970073 -8.80182 -3
      vertex -0.970073 -8.80182 -1
    endloop
  endfacet
  facet normal 0.914212 0.405237 0
    outer loop
      vertex 0.970073 -7.99818 -1
      vertex 0.949188 -7.95107 -3
      vertex 0.949188 -7.95107 -1
    endloop
  endfacet
  facet normal 0.914212 0.405237 0
    outer loop
      vertex 0.949188 -7.95107 -3
      vertex 0.970073 -7.99818 -1
      vertex 0.970073 -7.99818 -3
    endloop
  endfacet
  facet normal -0.870091 0.492891 0
    outer loop
      vertex -0.926017 -7.90503 -3
      vertex -0.900615 -7.86019 -1
      vertex -0.900615 -7.86019 -3
    endloop
  endfacet
  facet normal -0.870091 0.492891 0
    outer loop
      vertex -0.900615 -7.86019 -1
      vertex -0.926017 -7.90503 -3
      vertex -0.926017 -7.90503 -1
    endloop
  endfacet
  facet normal -0.788346 0.615232 0
    outer loop
      vertex -0.843368 -7.77452 -3
      vertex -0.811661 -7.73389 -1
      vertex -0.811661 -7.73389 -3
    endloop
  endfacet
  facet normal -0.788346 0.615232 0
    outer loop
      vertex -0.811661 -7.73389 -1
      vertex -0.843368 -7.77452 -3
      vertex -0.843368 -7.77452 -1
    endloop
  endfacet
  facet normal -0.170964 0.985277 0
    outer loop
      vertex -0.154066 -7.36136 -3
      vertex -0.204844 -7.37018 -1
      vertex -0.154066 -7.36136 -1
    endloop
  endfacet
  facet normal -0.170964 0.985277 0
    outer loop
      vertex -0.204844 -7.37018 -1
      vertex -0.154066 -7.36136 -3
      vertex -0.204844 -7.37018 -3
    endloop
  endfacet
  facet normal 0.870086 -0.492899 0
    outer loop
      vertex 0.900615 -8.93981 -1
      vertex 0.926017 -8.89497 -3
      vertex 0.926017 -8.89497 -1
    endloop
  endfacet
  facet normal 0.870086 -0.492899 0
    outer loop
      vertex 0.926017 -8.89497 -3
      vertex 0.900615 -8.93981 -1
      vertex 0.900615 -8.93981 -3
    endloop
  endfacet
  facet normal 0.219097 -0.975703 0
    outer loop
      vertex 0.204844 -9.42982 -3
      vertex 0.255129 -9.41853 -1
      vertex 0.204844 -9.42982 -1
    endloop
  endfacet
  facet normal 0.219097 -0.975703 0
    outer loop
      vertex 0.255129 -9.41853 -1
      vertex 0.204844 -9.42982 -3
      vertex 0.255129 -9.41853 -3
    endloop
  endfacet
  facet normal 0.689546 -0.724242 0
    outer loop
      vertex 0.705136 -9.178 -3
      vertex 0.742461 -9.14246 -1
      vertex 0.705136 -9.178 -1
    endloop
  endfacet
  facet normal 0.689546 -0.724242 0
    outer loop
      vertex 0.742461 -9.14246 -1
      vertex 0.705136 -9.178 -3
      vertex 0.742461 -9.14246 -3
    endloop
  endfacet
  facet normal -0.359883 -0.932997 0
    outer loop
      vertex -0.401817 -9.37007 -3
      vertex -0.353734 -9.38862 -1
      vertex -0.401817 -9.37007 -1
    endloop
  endfacet
  facet normal -0.359883 -0.932997 -0
    outer loop
      vertex -0.353734 -9.38862 -1
      vertex -0.401817 -9.37007 -3
      vertex -0.353734 -9.38862 -3
    endloop
  endfacet
  facet normal -0.757207 -0.653175 0
    outer loop
      vertex -0.777998 -9.10514 -3
      vertex -0.811661 -9.06611 -1
      vertex -0.811661 -9.06611 -3
    endloop
  endfacet
  facet normal -0.757207 -0.653175 0
    outer loop
      vertex -0.811661 -9.06611 -1
      vertex -0.777998 -9.10514 -3
      vertex -0.777998 -9.10514 -1
    endloop
  endfacet
  facet normal -0.99248 -0.122408 0
    outer loop
      vertex -1.03864 -8.55407 -3
      vertex -1.04494 -8.50292 -1
      vertex -1.04494 -8.50292 -3
    endloop
  endfacet
  facet normal -0.99248 -0.122408 0
    outer loop
      vertex -1.04494 -8.50292 -1
      vertex -1.03864 -8.55407 -3
      vertex -1.03864 -8.55407 -1
    endloop
  endfacet
  facet normal 0.985277 0.170967 0
    outer loop
      vertex 1.03864 -8.24593 -1
      vertex 1.02982 -8.19516 -3
      vertex 1.02982 -8.19516 -1
    endloop
  endfacet
  facet normal 0.985277 0.170967 0
    outer loop
      vertex 1.02982 -8.19516 -3
      vertex 1.03864 -8.24593 -1
      vertex 1.03864 -8.24593 -3
    endloop
  endfacet
  facet normal 0.219097 0.975703 -0
    outer loop
      vertex 0.255129 -7.38147 -3
      vertex 0.204844 -7.37018 -1
      vertex 0.255129 -7.38147 -1
    endloop
  endfacet
  facet normal 0.219097 0.975703 0
    outer loop
      vertex 0.204844 -7.37018 -1
      vertex 0.255129 -7.38147 -3
      vertex 0.204844 -7.37018 -3
    endloop
  endfacet
  facet normal 0.266712 0.963776 -0
    outer loop
      vertex 0.304798 -7.39521 -3
      vertex 0.255129 -7.38147 -1
      vertex 0.304798 -7.39521 -1
    endloop
  endfacet
  facet normal 0.266712 0.963776 0
    outer loop
      vertex 0.255129 -7.38147 -1
      vertex 0.304798 -7.39521 -3
      vertex 0.255129 -7.38147 -3
    endloop
  endfacet
  facet normal -0.975703 0.219097 0
    outer loop
      vertex -1.02982 -8.19516 -3
      vertex -1.01853 -8.14487 -1
      vertex -1.01853 -8.14487 -3
    endloop
  endfacet
  facet normal -0.975703 0.219097 0
    outer loop
      vertex -1.01853 -8.14487 -1
      vertex -1.02982 -8.19516 -3
      vertex -1.02982 -8.19516 -1
    endloop
  endfacet
  facet normal -0.81758 0.575815 0
    outer loop
      vertex -0.873043 -7.81665 -3
      vertex -0.843368 -7.77452 -1
      vertex -0.843368 -7.77452 -3
    endloop
  endfacet
  facet normal -0.81758 0.575815 0
    outer loop
      vertex -0.843368 -7.77452 -1
      vertex -0.873043 -7.81665 -3
      vertex -0.873043 -7.81665 -1
    endloop
  endfacet
  facet normal -0.893225 0.44961 0
    outer loop
      vertex -0.949188 -7.95107 -3
      vertex -0.926017 -7.90503 -1
      vertex -0.926017 -7.90503 -3
    endloop
  endfacet
  facet normal -0.893225 0.44961 0
    outer loop
      vertex -0.926017 -7.90503 -1
      vertex -0.949188 -7.95107 -3
      vertex -0.949188 -7.95107 -1
    endloop
  endfacet
  facet normal -0.963773 0.266725 0
    outer loop
      vertex -1.01853 -8.14487 -3
      vertex -1.00479 -8.0952 -1
      vertex -1.00479 -8.0952 -3
    endloop
  endfacet
  facet normal -0.963773 0.266725 0
    outer loop
      vertex -1.00479 -8.0952 -1
      vertex -1.01853 -8.14487 -3
      vertex -1.01853 -8.14487 -1
    endloop
  endfacet
  facet normal -0.99248 0.122408 0
    outer loop
      vertex -1.04494 -8.29708 -3
      vertex -1.03864 -8.24593 -1
      vertex -1.03864 -8.24593 -3
    endloop
  endfacet
  facet normal -0.99248 0.122408 0
    outer loop
      vertex -1.03864 -8.24593 -1
      vertex -1.04494 -8.29708 -3
      vertex -1.04494 -8.29708 -1
    endloop
  endfacet
  facet normal -0.492913 0.870079 0
    outer loop
      vertex -0.494967 -7.47398 -3
      vertex -0.539807 -7.49938 -1
      vertex -0.494967 -7.47398 -1
    endloop
  endfacet
  facet normal -0.492913 0.870079 0
    outer loop
      vertex -0.539807 -7.49938 -1
      vertex -0.494967 -7.47398 -3
      vertex -0.539807 -7.49938 -3
    endloop
  endfacet
  facet normal -0.534993 0.844856 0
    outer loop
      vertex -0.539807 -7.49938 -3
      vertex -0.583348 -7.52696 -1
      vertex -0.539807 -7.49938 -1
    endloop
  endfacet
  facet normal -0.534993 0.844856 0
    outer loop
      vertex -0.583348 -7.52696 -1
      vertex -0.539807 -7.49938 -3
      vertex -0.583348 -7.52696 -3
    endloop
  endfacet
  facet normal -0.122411 0.99248 0
    outer loop
      vertex -0.102918 -7.35506 -3
      vertex -0.154066 -7.36136 -1
      vertex -0.102918 -7.35506 -1
    endloop
  endfacet
  facet normal -0.122411 0.99248 0
    outer loop
      vertex -0.154066 -7.36136 -1
      vertex -0.102918 -7.35506 -3
      vertex -0.154066 -7.36136 -3
    endloop
  endfacet
  facet normal 0.975703 -0.219097 0
    outer loop
      vertex 1.01853 -8.65513 -1
      vertex 1.02982 -8.60484 -3
      vertex 1.02982 -8.60484 -1
    endloop
  endfacet
  facet normal 0.975703 -0.219097 0
    outer loop
      vertex 1.02982 -8.60484 -3
      vertex 1.01853 -8.65513 -1
      vertex 1.01853 -8.65513 -3
    endloop
  endfacet
  facet normal 0.122411 -0.99248 0
    outer loop
      vertex 0.102918 -9.44494 -3
      vertex 0.154066 -9.43863 -1
      vertex 0.102918 -9.44494 -1
    endloop
  endfacet
  facet normal 0.122411 -0.99248 0
    outer loop
      vertex 0.154066 -9.43863 -1
      vertex 0.102918 -9.44494 -3
      vertex 0.154066 -9.43863 -3
    endloop
  endfacet
  facet normal 0.492899 -0.870086 0
    outer loop
      vertex 0.494967 -9.32602 -3
      vertex 0.539807 -9.30061 -1
      vertex 0.494967 -9.32602 -1
    endloop
  endfacet
  facet normal 0.492899 -0.870086 0
    outer loop
      vertex 0.539807 -9.30061 -1
      vertex 0.494967 -9.32602 -3
      vertex 0.539807 -9.30061 -3
    endloop
  endfacet
  facet normal 0.99248 -0.122408 0
    outer loop
      vertex 1.03864 -8.55407 -1
      vertex 1.04494 -8.50292 -3
      vertex 1.04494 -8.50292 -1
    endloop
  endfacet
  facet normal 0.99248 -0.122408 0
    outer loop
      vertex 1.04494 -8.50292 -3
      vertex 1.03864 -8.55407 -1
      vertex 1.03864 -8.55407 -3
    endloop
  endfacet
  facet normal -0.615223 -0.788353 0
    outer loop
      vertex -0.666113 -9.21166 -3
      vertex -0.625484 -9.24337 -1
      vertex -0.666113 -9.21166 -1
    endloop
  endfacet
  facet normal -0.615223 -0.788353 -0
    outer loop
      vertex -0.625484 -9.24337 -1
      vertex -0.666113 -9.21166 -3
      vertex -0.625484 -9.24337 -3
    endloop
  endfacet
  facet normal -0.405252 -0.914205 0
    outer loop
      vertex -0.448933 -9.34919 -3
      vertex -0.401817 -9.37007 -1
      vertex -0.448933 -9.34919 -1
    endloop
  endfacet
  facet normal -0.405252 -0.914205 -0
    outer loop
      vertex -0.401817 -9.37007 -1
      vertex -0.448933 -9.34919 -3
      vertex -0.401817 -9.37007 -3
    endloop
  endfacet
  facet normal -0.170964 -0.985277 0
    outer loop
      vertex -0.204844 -9.42982 -3
      vertex -0.154066 -9.43863 -1
      vertex -0.204844 -9.42982 -1
    endloop
  endfacet
  facet normal -0.170964 -0.985277 -0
    outer loop
      vertex -0.154066 -9.43863 -1
      vertex -0.204844 -9.42982 -3
      vertex -0.154066 -9.43863 -3
    endloop
  endfacet
  facet normal -0.949529 -0.313678 0
    outer loop
      vertex -0.988621 -8.75373 -3
      vertex -1.00479 -8.7048 -1
      vertex -1.00479 -8.7048 -3
    endloop
  endfacet
  facet normal -0.949529 -0.313678 0
    outer loop
      vertex -1.00479 -8.7048 -1
      vertex -0.988621 -8.75373 -3
      vertex -0.988621 -8.75373 -1
    endloop
  endfacet
  facet normal 0.99248 0.122408 0
    outer loop
      vertex 1.04494 -8.29708 -1
      vertex 1.03864 -8.24593 -3
      vertex 1.03864 -8.24593 -1
    endloop
  endfacet
  facet normal 0.99248 0.122408 0
    outer loop
      vertex 1.03864 -8.24593 -3
      vertex 1.04494 -8.29708 -1
      vertex 1.04494 -8.29708 -3
    endloop
  endfacet
  facet normal 0.997291 0.0735574 0
    outer loop
      vertex 1.04873 -8.34848 -1
      vertex 1.04494 -8.29708 -3
      vertex 1.04494 -8.29708 -1
    endloop
  endfacet
  facet normal 0.997291 0.0735574 0
    outer loop
      vertex 1.04494 -8.29708 -3
      vertex 1.04873 -8.34848 -1
      vertex 1.04873 -8.34848 -3
    endloop
  endfacet
  facet normal 0.975703 0.219097 0
    outer loop
      vertex 1.02982 -8.19516 -1
      vertex 1.01853 -8.14487 -3
      vertex 1.01853 -8.14487 -1
    endloop
  endfacet
  facet normal 0.975703 0.219097 0
    outer loop
      vertex 1.01853 -8.14487 -3
      vertex 1.02982 -8.19516 -1
      vertex 1.02982 -8.19516 -3
    endloop
  endfacet
  facet normal 0.963773 0.266725 0
    outer loop
      vertex 1.01853 -8.14487 -1
      vertex 1.00479 -8.0952 -3
      vertex 1.00479 -8.0952 -1
    endloop
  endfacet
  facet normal 0.963773 0.266725 0
    outer loop
      vertex 1.00479 -8.0952 -3
      vertex 1.01853 -8.14487 -1
      vertex 1.01853 -8.14487 -3
    endloop
  endfacet
  facet normal 0.932991 0.359899 0
    outer loop
      vertex 0.988621 -8.04627 -1
      vertex 0.970073 -7.99818 -3
      vertex 0.970073 -7.99818 -1
    endloop
  endfacet
  facet normal 0.932991 0.359899 0
    outer loop
      vertex 0.970073 -7.99818 -3
      vertex 0.988621 -8.04627 -1
      vertex 0.988621 -8.04627 -3
    endloop
  endfacet
  facet normal 0.949529 0.313678 0
    outer loop
      vertex 1.00479 -8.0952 -1
      vertex 0.988621 -8.04627 -3
      vertex 0.988621 -8.04627 -1
    endloop
  endfacet
  facet normal 0.949529 0.313678 0
    outer loop
      vertex 0.988621 -8.04627 -3
      vertex 1.00479 -8.0952 -1
      vertex 1.00479 -8.0952 -3
    endloop
  endfacet
  facet normal 0.788346 0.615232 0
    outer loop
      vertex 0.843368 -7.77452 -1
      vertex 0.811661 -7.73389 -3
      vertex 0.811661 -7.73389 -1
    endloop
  endfacet
  facet normal 0.788346 0.615232 0
    outer loop
      vertex 0.811661 -7.73389 -3
      vertex 0.843368 -7.77452 -1
      vertex 0.843368 -7.77452 -3
    endloop
  endfacet
  facet normal 0.724242 0.689546 0
    outer loop
      vertex 0.777998 -7.69486 -1
      vertex 0.742461 -7.65754 -3
      vertex 0.742461 -7.65754 -1
    endloop
  endfacet
  facet normal 0.724242 0.689546 0
    outer loop
      vertex 0.742461 -7.65754 -3
      vertex 0.777998 -7.69486 -1
      vertex 0.777998 -7.69486 -3
    endloop
  endfacet
  facet normal 0.757207 0.653175 0
    outer loop
      vertex 0.811661 -7.73389 -1
      vertex 0.777998 -7.69486 -3
      vertex 0.777998 -7.69486 -1
    endloop
  endfacet
  facet normal 0.757207 0.653175 0
    outer loop
      vertex 0.777998 -7.69486 -3
      vertex 0.811661 -7.73389 -1
      vertex 0.811661 -7.73389 -3
    endloop
  endfacet
  facet normal 0.81758 0.575815 0
    outer loop
      vertex 0.873043 -7.81665 -1
      vertex 0.843368 -7.77452 -3
      vertex 0.843368 -7.77452 -1
    endloop
  endfacet
  facet normal 0.81758 0.575815 0
    outer loop
      vertex 0.843368 -7.77452 -3
      vertex 0.873043 -7.81665 -1
      vertex 0.873043 -7.81665 -3
    endloop
  endfacet
  facet normal 0.870091 0.492891 0
    outer loop
      vertex 0.926017 -7.90503 -1
      vertex 0.900615 -7.86019 -3
      vertex 0.900615 -7.86019 -1
    endloop
  endfacet
  facet normal 0.870091 0.492891 0
    outer loop
      vertex 0.900615 -7.86019 -3
      vertex 0.926017 -7.90503 -1
      vertex 0.926017 -7.90503 -3
    endloop
  endfacet
  facet normal 0.893225 0.44961 0
    outer loop
      vertex 0.949188 -7.95107 -1
      vertex 0.926017 -7.90503 -3
      vertex 0.926017 -7.90503 -1
    endloop
  endfacet
  facet normal 0.893225 0.44961 0
    outer loop
      vertex 0.926017 -7.90503 -3
      vertex 0.949188 -7.95107 -1
      vertex 0.949188 -7.95107 -3
    endloop
  endfacet
  facet normal 0.0735745 0.99729 -0
    outer loop
      vertex 0.102918 -7.35506 -3
      vertex 0.0515203 -7.35126 -1
      vertex 0.102918 -7.35506 -1
    endloop
  endfacet
  facet normal 0.0735745 0.99729 0
    outer loop
      vertex 0.0515203 -7.35126 -1
      vertex 0.102918 -7.35506 -3
      vertex 0.0515203 -7.35126 -3
    endloop
  endfacet
  facet normal 0.313673 0.949531 -0
    outer loop
      vertex 0.353734 -7.41138 -3
      vertex 0.304798 -7.39521 -1
      vertex 0.353734 -7.41138 -1
    endloop
  endfacet
  facet normal 0.313673 0.949531 0
    outer loop
      vertex 0.304798 -7.39521 -1
      vertex 0.353734 -7.41138 -3
      vertex 0.304798 -7.39521 -3
    endloop
  endfacet
  facet normal 0.170964 0.985277 -0
    outer loop
      vertex 0.204844 -7.37018 -3
      vertex 0.154066 -7.36136 -1
      vertex 0.204844 -7.37018 -1
    endloop
  endfacet
  facet normal 0.170964 0.985277 0
    outer loop
      vertex 0.154066 -7.36136 -1
      vertex 0.204844 -7.37018 -3
      vertex 0.154066 -7.36136 -3
    endloop
  endfacet
  facet normal 0.122411 0.99248 -0
    outer loop
      vertex 0.154066 -7.36136 -3
      vertex 0.102918 -7.35506 -1
      vertex 0.154066 -7.36136 -1
    endloop
  endfacet
  facet normal 0.122411 0.99248 0
    outer loop
      vertex 0.102918 -7.35506 -1
      vertex 0.154066 -7.36136 -3
      vertex 0.102918 -7.35506 -3
    endloop
  endfacet
  facet normal 0.0245377 0.999699 -0
    outer loop
      vertex 0.0515203 -7.35126 -3
      vertex 0 -7.35 -1
      vertex 0.0515203 -7.35126 -1
    endloop
  endfacet
  facet normal 0.0245377 0.999699 0
    outer loop
      vertex 0 -7.35 -1
      vertex 0.0515203 -7.35126 -3
      vertex 0 -7.35 -3
    endloop
  endfacet
  facet normal 0.359899 0.932991 -0
    outer loop
      vertex 0.401817 -7.42993 -3
      vertex 0.353734 -7.41138 -1
      vertex 0.401817 -7.42993 -1
    endloop
  endfacet
  facet normal 0.359899 0.932991 0
    outer loop
      vertex 0.353734 -7.41138 -1
      vertex 0.401817 -7.42993 -3
      vertex 0.353734 -7.41138 -3
    endloop
  endfacet
  facet normal 0.492913 0.870079 -0
    outer loop
      vertex 0.539807 -7.49938 -3
      vertex 0.494967 -7.47398 -1
      vertex 0.539807 -7.49938 -1
    endloop
  endfacet
  facet normal 0.492913 0.870079 0
    outer loop
      vertex 0.494967 -7.47398 -1
      vertex 0.539807 -7.49938 -3
      vertex 0.494967 -7.47398 -3
    endloop
  endfacet
  facet normal 0.44961 0.893225 -0
    outer loop
      vertex 0.494967 -7.47398 -3
      vertex 0.448933 -7.45081 -1
      vertex 0.494967 -7.47398 -1
    endloop
  endfacet
  facet normal 0.44961 0.893225 0
    outer loop
      vertex 0.448933 -7.45081 -1
      vertex 0.494967 -7.47398 -3
      vertex 0.448933 -7.45081 -3
    endloop
  endfacet
  facet normal 0.534993 0.844856 -0
    outer loop
      vertex 0.583348 -7.52696 -3
      vertex 0.539807 -7.49938 -1
      vertex 0.583348 -7.52696 -1
    endloop
  endfacet
  facet normal 0.534993 0.844856 0
    outer loop
      vertex 0.539807 -7.49938 -1
      vertex 0.583348 -7.52696 -3
      vertex 0.539807 -7.49938 -3
    endloop
  endfacet
  facet normal 0.615223 0.788353 -0
    outer loop
      vertex 0.666113 -7.58834 -3
      vertex 0.625484 -7.55663 -1
      vertex 0.666113 -7.58834 -1
    endloop
  endfacet
  facet normal 0.615223 0.788353 0
    outer loop
      vertex 0.625484 -7.55663 -1
      vertex 0.666113 -7.58834 -3
      vertex 0.625484 -7.55663 -3
    endloop
  endfacet
  facet normal 0.575815 0.81758 -0
    outer loop
      vertex 0.625484 -7.55663 -3
      vertex 0.583348 -7.52696 -1
      vertex 0.625484 -7.55663 -1
    endloop
  endfacet
  facet normal 0.575815 0.81758 0
    outer loop
      vertex 0.583348 -7.52696 -1
      vertex 0.625484 -7.55663 -3
      vertex 0.583348 -7.52696 -3
    endloop
  endfacet
  facet normal 0.653173 0.757209 -0
    outer loop
      vertex 0.705136 -7.622 -3
      vertex 0.666113 -7.58834 -1
      vertex 0.705136 -7.622 -1
    endloop
  endfacet
  facet normal 0.653173 0.757209 0
    outer loop
      vertex 0.666113 -7.58834 -1
      vertex 0.705136 -7.622 -3
      vertex 0.666113 -7.58834 -3
    endloop
  endfacet
  facet normal -0.757207 0.653175 0
    outer loop
      vertex -0.811661 -7.73389 -3
      vertex -0.777998 -7.69486 -1
      vertex -0.777998 -7.69486 -3
    endloop
  endfacet
  facet normal -0.757207 0.653175 0
    outer loop
      vertex -0.777998 -7.69486 -1
      vertex -0.811661 -7.73389 -3
      vertex -0.811661 -7.73389 -1
    endloop
  endfacet
  facet normal -0.932991 0.359899 0
    outer loop
      vertex -0.988621 -8.04627 -3
      vertex -0.970073 -7.99818 -1
      vertex -0.970073 -7.99818 -3
    endloop
  endfacet
  facet normal -0.932991 0.359899 0
    outer loop
      vertex -0.970073 -7.99818 -1
      vertex -0.988621 -8.04627 -3
      vertex -0.988621 -8.04627 -1
    endloop
  endfacet
  facet normal -0.949529 0.313678 0
    outer loop
      vertex -1.00479 -8.0952 -3
      vertex -0.988621 -8.04627 -1
      vertex -0.988621 -8.04627 -3
    endloop
  endfacet
  facet normal -0.949529 0.313678 0
    outer loop
      vertex -0.988621 -8.04627 -1
      vertex -1.00479 -8.0952 -3
      vertex -1.00479 -8.0952 -1
    endloop
  endfacet
  facet normal -0.985277 0.170967 0
    outer loop
      vertex -1.03864 -8.24593 -3
      vertex -1.02982 -8.19516 -1
      vertex -1.02982 -8.19516 -3
    endloop
  endfacet
  facet normal -0.985277 0.170967 0
    outer loop
      vertex -1.02982 -8.19516 -1
      vertex -1.03864 -8.24593 -3
      vertex -1.03864 -8.24593 -1
    endloop
  endfacet
  facet normal -0.997291 0.0735574 0
    outer loop
      vertex -1.04873 -8.34848 -3
      vertex -1.04494 -8.29708 -1
      vertex -1.04494 -8.29708 -3
    endloop
  endfacet
  facet normal -0.997291 0.0735574 0
    outer loop
      vertex -1.04494 -8.29708 -1
      vertex -1.04873 -8.34848 -3
      vertex -1.04873 -8.34848 -1
    endloop
  endfacet
  facet normal 0 0 1
    outer loop
      vertex 1.04873 -8.34848 -1
      vertex 1.04873 -8.45152 -1
      vertex 1.05 -8.4 -1
    endloop
  endfacet
  facet normal 0 0 1
    outer loop
      vertex 1.04494 -8.29708 -1
      vertex 1.04873 -8.45152 -1
      vertex 1.04873 -8.34848 -1
    endloop
  endfacet
  facet normal 0 0 1
    outer loop
      vertex 1.04494 -8.29708 -1
      vertex 1.04494 -8.50292 -1
      vertex 1.04873 -8.45152 -1
    endloop
  endfacet
  facet normal 0 0 1
    outer loop
      vertex 1.03864 -8.24593 -1
      vertex 1.04494 -8.50292 -1
      vertex 1.04494 -8.29708 -1
    endloop
  endfacet
  facet normal 0 0 1
    outer loop
      vertex 1.03864 -8.24593 -1
      vertex 1.03864 -8.55407 -1
      vertex 1.04494 -8.50292 -1
    endloop
  endfacet
  facet normal 0 0 1
    outer loop
      vertex 1.02982 -8.19516 -1
      vertex 1.03864 -8.55407 -1
      vertex 1.03864 -8.24593 -1
    endloop
  endfacet
  facet normal 0 0 1
    outer loop
      vertex 1.02982 -8.19516 -1
      vertex 1.02982 -8.60484 -1
      vertex 1.03864 -8.55407 -1
    endloop
  endfacet
  facet normal 0 0 1
    outer loop
      vertex 1.01853 -8.14487 -1
      vertex 1.02982 -8.60484 -1
      vertex 1.02982 -8.19516 -1
    endloop
  endfacet
  facet normal 0 0 1
    outer loop
      vertex 1.01853 -8.14487 -1
      vertex 1.01853 -8.65513 -1
      vertex 1.02982 -8.60484 -1
    endloop
  endfacet
  facet normal 0 0 1
    outer loop
      vertex 1.00479 -8.0952 -1
      vertex 1.01853 -8.65513 -1
      vertex 1.01853 -8.14487 -1
    endloop
  endfacet
  facet normal 0 0 1
    outer loop
      vertex 1.00479 -8.0952 -1
      vertex 1.00479 -8.7048 -1
      vertex 1.01853 -8.65513 -1
    endloop
  endfacet
  facet normal 0 0 1
    outer loop
      vertex 0.988621 -8.04627 -1
      vertex 1.00479 -8.7048 -1
      vertex 1.00479 -8.0952 -1
    endloop
  endfacet
  facet normal 0 0 1
    outer loop
      vertex 0.988621 -8.04627 -1
      vertex 0.988621 -8.75373 -1
      vertex 1.00479 -8.7048 -1
    endloop
  endfacet
  facet normal 0 0 1
    outer loop
      vertex 0.970073 -7.99818 -1
      vertex 0.988621 -8.75373 -1
      vertex 0.988621 -8.04627 -1
    endloop
  endfacet
  facet normal 0 0 1
    outer loop
      vertex 0.970073 -7.99818 -1
      vertex 0.970073 -8.80182 -1
      vertex 0.988621 -8.75373 -1
    endloop
  endfacet
  facet normal 0 0 1
    outer loop
      vertex 0.949188 -7.95107 -1
      vertex 0.970073 -8.80182 -1
      vertex 0.970073 -7.99818 -1
    endloop
  endfacet
  facet normal 0 0 1
    outer loop
      vertex 0.949188 -7.95107 -1
      vertex 0.949188 -8.84893 -1
      vertex 0.970073 -8.80182 -1
    endloop
  endfacet
  facet normal 0 0 1
    outer loop
      vertex 0.926017 -7.90503 -1
      vertex 0.949188 -8.84893 -1
      vertex 0.949188 -7.95107 -1
    endloop
  endfacet
  facet normal 0 0 1
    outer loop
      vertex 0.926017 -7.90503 -1
      vertex 0.926017 -8.89497 -1
      vertex 0.949188 -8.84893 -1
    endloop
  endfacet
  facet normal 0 0 1
    outer loop
      vertex 0.900615 -7.86019 -1
      vertex 0.926017 -8.89497 -1
      vertex 0.926017 -7.90503 -1
    endloop
  endfacet
  facet normal 0 0 1
    outer loop
      vertex 0.900615 -7.86019 -1
      vertex 0.900615 -8.93981 -1
      vertex 0.926017 -8.89497 -1
    endloop
  endfacet
  facet normal 0 0 1
    outer loop
      vertex 0.873043 -7.81665 -1
      vertex 0.900615 -8.93981 -1
      vertex 0.900615 -7.86019 -1
    endloop
  endfacet
  facet normal 0 0 1
    outer loop
      vertex 0.873043 -7.81665 -1
      vertex 0.873043 -8.98335 -1
      vertex 0.900615 -8.93981 -1
    endloop
  endfacet
  facet normal 0 0 1
    outer loop
      vertex 0.843368 -7.77452 -1
      vertex 0.873043 -8.98335 -1
      vertex 0.873043 -7.81665 -1
    endloop
  endfacet
  facet normal 0 0 1
    outer loop
      vertex 0.843368 -7.77452 -1
      vertex 0.843368 -9.02548 -1
      vertex 0.873043 -8.98335 -1
    endloop
  endfacet
  facet normal 0 0 1
    outer loop
      vertex 0.811661 -7.73389 -1
      vertex 0.843368 -9.02548 -1
      vertex 0.843368 -7.77452 -1
    endloop
  endfacet
  facet normal 0 0 1
    outer loop
      vertex 0.811661 -7.73389 -1
      vertex 0.811661 -9.06611 -1
      vertex 0.843368 -9.02548 -1
    endloop
  endfacet
  facet normal 0 0 1
    outer loop
      vertex 0.777998 -7.69486 -1
      vertex 0.811661 -9.06611 -1
      vertex 0.811661 -7.73389 -1
    endloop
  endfacet
  facet normal 0 0 1
    outer loop
      vertex 0.777998 -7.69486 -1
      vertex 0.777998 -9.10514 -1
      vertex 0.811661 -9.06611 -1
    endloop
  endfacet
  facet normal 0 0 1
    outer loop
      vertex 0.742461 -7.65754 -1
      vertex 0.777998 -9.10514 -1
      vertex 0.777998 -7.69486 -1
    endloop
  endfacet
  facet normal 0 0 1
    outer loop
      vertex 0.742461 -7.65754 -1
      vertex 0.742461 -9.14246 -1
      vertex 0.777998 -9.10514 -1
    endloop
  endfacet
  facet normal 0 0 1
    outer loop
      vertex 0.705136 -7.622 -1
      vertex 0.742461 -9.14246 -1
      vertex 0.742461 -7.65754 -1
    endloop
  endfacet
  facet normal 0 0 1
    outer loop
      vertex 0.705136 -7.622 -1
      vertex 0.705136 -9.178 -1
      vertex 0.742461 -9.14246 -1
    endloop
  endfacet
  facet normal 0 0 1
    outer loop
      vertex 0.666113 -7.58834 -1
      vertex 0.705136 -9.178 -1
      vertex 0.705136 -7.622 -1
    endloop
  endfacet
  facet normal 0 0 1
    outer loop
      vertex 0.666113 -7.58834 -1
      vertex 0.666113 -9.21166 -1
      vertex 0.705136 -9.178 -1
    endloop
  endfacet
  facet normal 0 0 1
    outer loop
      vertex 0.625484 -7.55663 -1
      vertex 0.666113 -9.21166 -1
      vertex 0.666113 -7.58834 -1
    endloop
  endfacet
  facet normal 0 0 1
    outer loop
      vertex 0.625484 -7.55663 -1
      vertex 0.625484 -9.24337 -1
      vertex 0.666113 -9.21166 -1
    endloop
  endfacet
  facet normal 0 0 1
    outer loop
      vertex 0.583348 -7.52696 -1
      vertex 0.625484 -9.24337 -1
      vertex 0.625484 -7.55663 -1
    endloop
  endfacet
  facet normal 0 0 1
    outer loop
      vertex 0.583348 -7.52696 -1
      vertex 0.583348 -9.27304 -1
      vertex 0.625484 -9.24337 -1
    endloop
  endfacet
  facet normal 0 0 1
    outer loop
      vertex 0.539807 -7.49938 -1
      vertex 0.583348 -9.27304 -1
      vertex 0.583348 -7.52696 -1
    endloop
  endfacet
  facet normal 0 0 1
    outer loop
      vertex 0.539807 -7.49938 -1
      vertex 0.539807 -9.30061 -1
      vertex 0.583348 -9.27304 -1
    endloop
  endfacet
  facet normal 0 0 1
    outer loop
      vertex 0.494967 -7.47398 -1
      vertex 0.539807 -9.30061 -1
      vertex 0.539807 -7.49938 -1
    endloop
  endfacet
  facet normal 0 0 1
    outer loop
      vertex 0.494967 -7.47398 -1
      vertex 0.494967 -9.32602 -1
      vertex 0.539807 -9.30061 -1
    endloop
  endfacet
  facet normal 0 0 1
    outer loop
      vertex 0.448933 -7.45081 -1
      vertex 0.494967 -9.32602 -1
      vertex 0.494967 -7.47398 -1
    endloop
  endfacet
  facet normal 0 0 1
    outer loop
      vertex 0.448933 -7.45081 -1
      vertex 0.448933 -9.34919 -1
      vertex 0.494967 -9.32602 -1
    endloop
  endfacet
  facet normal 0 0 1
    outer loop
      vertex 0.401817 -7.42993 -1
      vertex 0.448933 -9.34919 -1
      vertex 0.448933 -7.45081 -1
    endloop
  endfacet
  facet normal 0 0 1
    outer loop
      vertex 0.401817 -7.42993 -1
      vertex 0.401817 -9.37007 -1
      vertex 0.448933 -9.34919 -1
    endloop
  endfacet
  facet normal 0 0 1
    outer loop
      vertex 0.353734 -7.41138 -1
      vertex 0.401817 -9.37007 -1
      vertex 0.401817 -7.42993 -1
    endloop
  endfacet
  facet normal 0 0 1
    outer loop
      vertex 0.353734 -7.41138 -1
      vertex 0.353734 -9.38862 -1
      vertex 0.401817 -9.37007 -1
    endloop
  endfacet
  facet normal 0 0 1
    outer loop
      vertex 0.304798 -7.39521 -1
      vertex 0.353734 -9.38862 -1
      vertex 0.353734 -7.41138 -1
    endloop
  endfacet
  facet normal 0 0 1
    outer loop
      vertex 0.304798 -7.39521 -1
      vertex 0.304798 -9.40479 -1
      vertex 0.353734 -9.38862 -1
    endloop
  endfacet
  facet normal 0 0 1
    outer loop
      vertex 0.255129 -7.38147 -1
      vertex 0.304798 -9.40479 -1
      vertex 0.304798 -7.39521 -1
    endloop
  endfacet
  facet normal 0 0 1
    outer loop
      vertex 0.255129 -7.38147 -1
      vertex 0.255129 -9.41853 -1
      vertex 0.304798 -9.40479 -1
    endloop
  endfacet
  facet normal 0 0 1
    outer loop
      vertex 0.204844 -7.37018 -1
      vertex 0.255129 -9.41853 -1
      vertex 0.255129 -7.38147 -1
    endloop
  endfacet
  facet normal 0 0 1
    outer loop
      vertex 0.204844 -7.37018 -1
      vertex 0.204844 -9.42982 -1
      vertex 0.255129 -9.41853 -1
    endloop
  endfacet
  facet normal 0 0 1
    outer loop
      vertex 0.154066 -7.36136 -1
      vertex 0.204844 -9.42982 -1
      vertex 0.204844 -7.37018 -1
    endloop
  endfacet
  facet normal 0 0 1
    outer loop
      vertex 0.154066 -7.36136 -1
      vertex 0.154066 -9.43863 -1
      vertex 0.204844 -9.42982 -1
    endloop
  endfacet
  facet normal 0 0 1
    outer loop
      vertex 0.102918 -7.35506 -1
      vertex 0.154066 -9.43863 -1
      vertex 0.154066 -7.36136 -1
    endloop
  endfacet
  facet normal 0 0 1
    outer loop
      vertex 0.102918 -7.35506 -1
      vertex 0.102918 -9.44494 -1
      vertex 0.154066 -9.43863 -1
    endloop
  endfacet
  facet normal 0 0 1
    outer loop
      vertex 0.0515203 -7.35126 -1
      vertex 0.102918 -9.44494 -1
      vertex 0.102918 -7.35506 -1
    endloop
  endfacet
  facet normal 0 0 1
    outer loop
      vertex 0.0515203 -7.35126 -1
      vertex 0.0515203 -9.44873 -1
      vertex 0.102918 -9.44494 -1
    endloop
  endfacet
  facet normal 0 0 1
    outer loop
      vertex 0 -7.35 -1
      vertex 0.0515203 -9.44873 -1
      vertex 0.0515203 -7.35126 -1
    endloop
  endfacet
  facet normal 0 0 1
    outer loop
      vertex 0 -7.35 -1
      vertex 0 -9.45 -1
      vertex 0.0515203 -9.44873 -1
    endloop
  endfacet
  facet normal -0 0 1
    outer loop
      vertex -0.0515203 -7.35126 -1
      vertex 0 -9.45 -1
      vertex 0 -7.35 -1
    endloop
  endfacet
  facet normal 0 0 1
    outer loop
      vertex -0.0515203 -7.35126 -1
      vertex -0.0515203 -9.44873 -1
      vertex 0 -9.45 -1
    endloop
  endfacet
  facet normal -0 0 1
    outer loop
      vertex -0.102918 -7.35506 -1
      vertex -0.0515203 -9.44873 -1
      vertex -0.0515203 -7.35126 -1
    endloop
  endfacet
  facet normal 0 0 1
    outer loop
      vertex -0.102918 -7.35506 -1
      vertex -0.102918 -9.44494 -1
      vertex -0.0515203 -9.44873 -1
    endloop
  endfacet
  facet normal -0 0 1
    outer loop
      vertex -0.154066 -7.36136 -1
      vertex -0.102918 -9.44494 -1
      vertex -0.102918 -7.35506 -1
    endloop
  endfacet
  facet normal 0 0 1
    outer loop
      vertex -0.154066 -7.36136 -1
      vertex -0.154066 -9.43863 -1
      vertex -0.102918 -9.44494 -1
    endloop
  endfacet
  facet normal -0 0 1
    outer loop
      vertex -0.204844 -7.37018 -1
      vertex -0.154066 -9.43863 -1
      vertex -0.154066 -7.36136 -1
    endloop
  endfacet
  facet normal 0 0 1
    outer loop
      vertex -0.204844 -7.37018 -1
      vertex -0.204844 -9.42982 -1
      vertex -0.154066 -9.43863 -1
    endloop
  endfacet
  facet normal -0 0 1
    outer loop
      vertex -0.255129 -7.38147 -1
      vertex -0.204844 -9.42982 -1
      vertex -0.204844 -7.37018 -1
    endloop
  endfacet
  facet normal 0 0 1
    outer loop
      vertex -0.255129 -7.38147 -1
      vertex -0.255129 -9.41853 -1
      vertex -0.204844 -9.42982 -1
    endloop
  endfacet
  facet normal -0 0 1
    outer loop
      vertex -0.304798 -7.39521 -1
      vertex -0.255129 -9.41853 -1
      vertex -0.255129 -7.38147 -1
    endloop
  endfacet
  facet normal 0 0 1
    outer loop
      vertex -0.304798 -7.39521 -1
      vertex -0.304798 -9.40479 -1
      vertex -0.255129 -9.41853 -1
    endloop
  endfacet
  facet normal -0 0 1
    outer loop
      vertex -0.353734 -7.41138 -1
      vertex -0.304798 -9.40479 -1
      vertex -0.304798 -7.39521 -1
    endloop
  endfacet
  facet normal 0 0 1
    outer loop
      vertex -0.353734 -7.41138 -1
      vertex -0.353734 -9.38862 -1
      vertex -0.304798 -9.40479 -1
    endloop
  endfacet
  facet normal -0 0 1
    outer loop
      vertex -0.401817 -7.42993 -1
      vertex -0.353734 -9.38862 -1
      vertex -0.353734 -7.41138 -1
    endloop
  endfacet
  facet normal 0 0 1
    outer loop
      vertex -0.401817 -7.42993 -1
      vertex -0.401817 -9.37007 -1
      vertex -0.353734 -9.38862 -1
    endloop
  endfacet
  facet normal -0 0 1
    outer loop
      vertex -0.448933 -7.45081 -1
      vertex -0.401817 -9.37007 -1
      vertex -0.401817 -7.42993 -1
    endloop
  endfacet
  facet normal 0 0 1
    outer loop
      vertex -0.448933 -7.45081 -1
      vertex -0.448933 -9.34919 -1
      vertex -0.401817 -9.37007 -1
    endloop
  endfacet
  facet normal -0 0 1
    outer loop
      vertex -0.494967 -7.47398 -1
      vertex -0.448933 -9.34919 -1
      vertex -0.448933 -7.45081 -1
    endloop
  endfacet
  facet normal 0 0 1
    outer loop
      vertex -0.494967 -7.47398 -1
      vertex -0.494967 -9.32602 -1
      vertex -0.448933 -9.34919 -1
    endloop
  endfacet
  facet normal -0 0 1
    outer loop
      vertex -0.539807 -7.49938 -1
      vertex -0.494967 -9.32602 -1
      vertex -0.494967 -7.47398 -1
    endloop
  endfacet
  facet normal 0 0 1
    outer loop
      vertex -0.539807 -7.49938 -1
      vertex -0.539807 -9.30061 -1
      vertex -0.494967 -9.32602 -1
    endloop
  endfacet
  facet normal -0 0 1
    outer loop
      vertex -0.583348 -7.52696 -1
      vertex -0.539807 -9.30061 -1
      vertex -0.539807 -7.49938 -1
    endloop
  endfacet
  facet normal 0 0 1
    outer loop
      vertex -0.583348 -7.52696 -1
      vertex -0.583348 -9.27304 -1
      vertex -0.539807 -9.30061 -1
    endloop
  endfacet
  facet normal -0 0 1
    outer loop
      vertex -0.625484 -7.55663 -1
      vertex -0.583348 -9.27304 -1
      vertex -0.583348 -7.52696 -1
    endloop
  endfacet
  facet normal 0 0 1
    outer loop
      vertex -0.625484 -7.55663 -1
      vertex -0.625484 -9.24337 -1
      vertex -0.583348 -9.27304 -1
    endloop
  endfacet
  facet normal -0 0 1
    outer loop
      vertex -0.666113 -7.58834 -1
      vertex -0.625484 -9.24337 -1
      vertex -0.625484 -7.55663 -1
    endloop
  endfacet
  facet normal 0 0 1
    outer loop
      vertex -0.666113 -7.58834 -1
      vertex -0.666113 -9.21166 -1
      vertex -0.625484 -9.24337 -1
    endloop
  endfacet
  facet normal -0 0 1
    outer loop
      vertex -0.705136 -7.622 -1
      vertex -0.666113 -9.21166 -1
      vertex -0.666113 -7.58834 -1
    endloop
  endfacet
  facet normal 0 0 1
    outer loop
      vertex -0.705136 -7.622 -1
      vertex -0.705136 -9.178 -1
      vertex -0.666113 -9.21166 -1
    endloop
  endfacet
  facet normal -0 0 1
    outer loop
      vertex -0.742461 -7.65754 -1
      vertex -0.705136 -9.178 -1
      vertex -0.705136 -7.622 -1
    endloop
  endfacet
  facet normal 0 0 1
    outer loop
      vertex -0.742461 -7.65754 -1
      vertex -0.742461 -9.14246 -1
      vertex -0.705136 -9.178 -1
    endloop
  endfacet
  facet normal -0 0 1
    outer loop
      vertex -0.777998 -7.69486 -1
      vertex -0.742461 -9.14246 -1
      vertex -0.742461 -7.65754 -1
    endloop
  endfacet
  facet normal 0 0 1
    outer loop
      vertex -0.777998 -7.69486 -1
      vertex -0.777998 -9.10514 -1
      vertex -0.742461 -9.14246 -1
    endloop
  endfacet
  facet normal -0 0 1
    outer loop
      vertex -0.811661 -7.73389 -1
      vertex -0.777998 -9.10514 -1
      vertex -0.777998 -7.69486 -1
    endloop
  endfacet
  facet normal 0 0 1
    outer loop
      vertex -0.811661 -7.73389 -1
      vertex -0.811661 -9.06611 -1
      vertex -0.777998 -9.10514 -1
    endloop
  endfacet
  facet normal -0 0 1
    outer loop
      vertex -0.843368 -7.77452 -1
      vertex -0.811661 -9.06611 -1
      vertex -0.811661 -7.73389 -1
    endloop
  endfacet
  facet normal 0 0 1
    outer loop
      vertex -0.843368 -7.77452 -1
      vertex -0.843368 -9.02548 -1
      vertex -0.811661 -9.06611 -1
    endloop
  endfacet
  facet normal -0 0 1
    outer loop
      vertex -0.873043 -7.81665 -1
      vertex -0.843368 -9.02548 -1
      vertex -0.843368 -7.77452 -1
    endloop
  endfacet
  facet normal 0 0 1
    outer loop
      vertex -0.873043 -7.81665 -1
      vertex -0.873043 -8.98335 -1
      vertex -0.843368 -9.02548 -1
    endloop
  endfacet
  facet normal -0 0 1
    outer loop
      vertex -0.900615 -7.86019 -1
      vertex -0.873043 -8.98335 -1
      vertex -0.873043 -7.81665 -1
    endloop
  endfacet
  facet normal 0 0 1
    outer loop
      vertex -0.900615 -7.86019 -1
      vertex -0.900615 -8.93981 -1
      vertex -0.873043 -8.98335 -1
    endloop
  endfacet
  facet normal -0 0 1
    outer loop
      vertex -0.926017 -7.90503 -1
      vertex -0.900615 -8.93981 -1
      vertex -0.900615 -7.86019 -1
    endloop
  endfacet
  facet normal 0 0 1
    outer loop
      vertex -0.926017 -7.90503 -1
      vertex -0.926017 -8.89497 -1
      vertex -0.900615 -8.93981 -1
    endloop
  endfacet
  facet normal -0 0 1
    outer loop
      vertex -0.949188 -7.95107 -1
      vertex -0.926017 -8.89497 -1
      vertex -0.926017 -7.90503 -1
    endloop
  endfacet
  facet normal 0 0 1
    outer loop
      vertex -0.949188 -7.95107 -1
      vertex -0.949188 -8.84893 -1
      vertex -0.926017 -8.89497 -1
    endloop
  endfacet
  facet normal -0 0 1
    outer loop
      vertex -0.970073 -7.99818 -1
      vertex -0.949188 -8.84893 -1
      vertex -0.949188 -7.95107 -1
    endloop
  endfacet
  facet normal 0 0 1
    outer loop
      vertex -0.970073 -7.99818 -1
      vertex -0.970073 -8.80182 -1
      vertex -0.949188 -8.84893 -1
    endloop
  endfacet
  facet normal -0 0 1
    outer loop
      vertex -0.988621 -8.04627 -1
      vertex -0.970073 -8.80182 -1
      vertex -0.970073 -7.99818 -1
    endloop
  endfacet
  facet normal 0 0 1
    outer loop
      vertex -0.988621 -8.04627 -1
      vertex -0.988621 -8.75373 -1
      vertex -0.970073 -8.80182 -1
    endloop
  endfacet
  facet normal -0 0 1
    outer loop
      vertex -1.00479 -8.0952 -1
      vertex -0.988621 -8.75373 -1
      vertex -0.988621 -8.04627 -1
    endloop
  endfacet
  facet normal 0 0 1
    outer loop
      vertex -1.00479 -8.0952 -1
      vertex -1.00479 -8.7048 -1
      vertex -0.988621 -8.75373 -1
    endloop
  endfacet
  facet normal -0 0 1
    outer loop
      vertex -1.01853 -8.14487 -1
      vertex -1.00479 -8.7048 -1
      vertex -1.00479 -8.0952 -1
    endloop
  endfacet
  facet normal 0 0 1
    outer loop
      vertex -1.01853 -8.14487 -1
      vertex -1.01853 -8.65513 -1
      vertex -1.00479 -8.7048 -1
    endloop
  endfacet
  facet normal -0 0 1
    outer loop
      vertex -1.02982 -8.19516 -1
      vertex -1.01853 -8.65513 -1
      vertex -1.01853 -8.14487 -1
    endloop
  endfacet
  facet normal 0 0 1
    outer loop
      vertex -1.02982 -8.19516 -1
      vertex -1.02982 -8.60484 -1
      vertex -1.01853 -8.65513 -1
    endloop
  endfacet
  facet normal -0 0 1
    outer loop
      vertex -1.03864 -8.24593 -1
      vertex -1.02982 -8.60484 -1
      vertex -1.02982 -8.19516 -1
    endloop
  endfacet
  facet normal 0 0 1
    outer loop
      vertex -1.03864 -8.24593 -1
      vertex -1.03864 -8.55407 -1
      vertex -1.02982 -8.60484 -1
    endloop
  endfacet
  facet normal -0 0 1
    outer loop
      vertex -1.04494 -8.29708 -1
      vertex -1.03864 -8.55407 -1
      vertex -1.03864 -8.24593 -1
    endloop
  endfacet
  facet normal 0 0 1
    outer loop
      vertex -1.04494 -8.29708 -1
      vertex -1.04494 -8.50292 -1
      vertex -1.03864 -8.55407 -1
    endloop
  endfacet
  facet normal -0 0 1
    outer loop
      vertex -1.04873 -8.34848 -1
      vertex -1.04494 -8.50292 -1
      vertex -1.04494 -8.29708 -1
    endloop
  endfacet
  facet normal 0 0 1
    outer loop
      vertex -1.04873 -8.34848 -1
      vertex -1.04873 -8.45152 -1
      vertex -1.04494 -8.50292 -1
    endloop
  endfacet
  facet normal 0 -0 1
    outer loop
      vertex -1.04873 -8.45152 -1
      vertex -1.04873 -8.34848 -1
      vertex -1.05 -8.4 -1
    endloop
  endfacet
  facet normal -0.44961 0.893225 0
    outer loop
      vertex -0.448933 -7.45081 -3
      vertex -0.494967 -7.47398 -1
      vertex -0.448933 -7.45081 -1
    endloop
  endfacet
  facet normal -0.44961 0.893225 0
    outer loop
      vertex -0.494967 -7.47398 -1
      vertex -0.448933 -7.45081 -3
      vertex -0.494967 -7.47398 -3
    endloop
  endfacet
  facet normal -0.615223 0.788353 0
    outer loop
      vertex -0.625484 -7.55663 -3
      vertex -0.666113 -7.58834 -1
      vertex -0.625484 -7.55663 -1
    endloop
  endfacet
  facet normal -0.615223 0.788353 0
    outer loop
      vertex -0.666113 -7.58834 -1
      vertex -0.625484 -7.55663 -3
      vertex -0.666113 -7.58834 -3
    endloop
  endfacet
  facet normal -0.575815 0.81758 0
    outer loop
      vertex -0.583348 -7.52696 -3
      vertex -0.625484 -7.55663 -1
      vertex -0.583348 -7.52696 -1
    endloop
  endfacet
  facet normal -0.575815 0.81758 0
    outer loop
      vertex -0.625484 -7.55663 -1
      vertex -0.583348 -7.52696 -3
      vertex -0.625484 -7.55663 -3
    endloop
  endfacet
  facet normal -0.653173 0.757209 0
    outer loop
      vertex -0.666113 -7.58834 -3
      vertex -0.705136 -7.622 -1
      vertex -0.666113 -7.58834 -1
    endloop
  endfacet
  facet normal -0.653173 0.757209 0
    outer loop
      vertex -0.705136 -7.622 -1
      vertex -0.666113 -7.58834 -3
      vertex -0.705136 -7.622 -3
    endloop
  endfacet
  facet normal -0.405237 0.914212 0
    outer loop
      vertex -0.401817 -7.42993 -3
      vertex -0.448933 -7.45081 -1
      vertex -0.401817 -7.42993 -1
    endloop
  endfacet
  facet normal -0.405237 0.914212 0
    outer loop
      vertex -0.448933 -7.45081 -1
      vertex -0.401817 -7.42993 -3
      vertex -0.448933 -7.45081 -3
    endloop
  endfacet
  facet normal -0.266712 0.963776 0
    outer loop
      vertex -0.255129 -7.38147 -3
      vertex -0.304798 -7.39521 -1
      vertex -0.255129 -7.38147 -1
    endloop
  endfacet
  facet normal -0.266712 0.963776 0
    outer loop
      vertex -0.304798 -7.39521 -1
      vertex -0.255129 -7.38147 -3
      vertex -0.304798 -7.39521 -3
    endloop
  endfacet
  facet normal -0.313673 0.949531 0
    outer loop
      vertex -0.304798 -7.39521 -3
      vertex -0.353734 -7.41138 -1
      vertex -0.304798 -7.39521 -1
    endloop
  endfacet
  facet normal -0.313673 0.949531 0
    outer loop
      vertex -0.353734 -7.41138 -1
      vertex -0.304798 -7.39521 -3
      vertex -0.353734 -7.41138 -3
    endloop
  endfacet
  facet normal -0.219097 0.975703 0
    outer loop
      vertex -0.204844 -7.37018 -3
      vertex -0.255129 -7.38147 -1
      vertex -0.204844 -7.37018 -1
    endloop
  endfacet
  facet normal -0.219097 0.975703 0
    outer loop
      vertex -0.255129 -7.38147 -1
      vertex -0.204844 -7.37018 -3
      vertex -0.255129 -7.38147 -3
    endloop
  endfacet
  facet normal -0.0735745 0.99729 0
    outer loop
      vertex -0.0515203 -7.35126 -3
      vertex -0.102918 -7.35506 -1
      vertex -0.0515203 -7.35126 -1
    endloop
  endfacet
  facet normal -0.0735745 0.99729 0
    outer loop
      vertex -0.102918 -7.35506 -1
      vertex -0.0515203 -7.35126 -3
      vertex -0.102918 -7.35506 -3
    endloop
  endfacet
  facet normal 0.999699 -0.0245373 0
    outer loop
      vertex 1.04873 -8.45152 -1
      vertex 1.05 -8.4 -3
      vertex 1.05 -8.4 -1
    endloop
  endfacet
  facet normal 0.999699 -0.0245373 0
    outer loop
      vertex 1.05 -8.4 -3
      vertex 1.04873 -8.45152 -1
      vertex 1.04873 -8.45152 -3
    endloop
  endfacet
  facet normal 0.0245562 -0.999698 0
    outer loop
      vertex 0 -9.45 -3
      vertex 0.0515203 -9.44873 -1
      vertex 0 -9.45 -1
    endloop
  endfacet
  facet normal 0.0245562 -0.999698 0
    outer loop
      vertex 0.0515203 -9.44873 -1
      vertex 0 -9.45 -3
      vertex 0.0515203 -9.44873 -3
    endloop
  endfacet
  facet normal 0.31369 -0.949526 0
    outer loop
      vertex 0.304798 -9.40479 -3
      vertex 0.353734 -9.38862 -1
      vertex 0.304798 -9.40479 -1
    endloop
  endfacet
  facet normal 0.31369 -0.949526 0
    outer loop
      vertex 0.353734 -9.38862 -1
      vertex 0.304798 -9.40479 -3
      vertex 0.353734 -9.38862 -3
    endloop
  endfacet
  facet normal 0.359883 -0.932997 0
    outer loop
      vertex 0.353734 -9.38862 -3
      vertex 0.401817 -9.37007 -1
      vertex 0.353734 -9.38862 -1
    endloop
  endfacet
  facet normal 0.359883 -0.932997 0
    outer loop
      vertex 0.401817 -9.37007 -1
      vertex 0.353734 -9.38862 -3
      vertex 0.401817 -9.37007 -3
    endloop
  endfacet
  facet normal 0.266712 -0.963776 0
    outer loop
      vertex 0.255129 -9.41853 -3
      vertex 0.304798 -9.40479 -1
      vertex 0.255129 -9.41853 -1
    endloop
  endfacet
  facet normal 0.266712 -0.963776 0
    outer loop
      vertex 0.304798 -9.40479 -1
      vertex 0.255129 -9.41853 -3
      vertex 0.304798 -9.40479 -3
    endloop
  endfacet
  facet normal 0.575815 -0.81758 0
    outer loop
      vertex 0.583348 -9.27304 -3
      vertex 0.625484 -9.24337 -1
      vertex 0.583348 -9.27304 -1
    endloop
  endfacet
  facet normal 0.575815 -0.81758 0
    outer loop
      vertex 0.625484 -9.24337 -1
      vertex 0.583348 -9.27304 -3
      vertex 0.625484 -9.24337 -3
    endloop
  endfacet
  facet normal 0.653173 -0.757209 0
    outer loop
      vertex 0.666113 -9.21166 -3
      vertex 0.705136 -9.178 -1
      vertex 0.666113 -9.21166 -1
    endloop
  endfacet
  facet normal 0.653173 -0.757209 0
    outer loop
      vertex 0.705136 -9.178 -1
      vertex 0.666113 -9.21166 -3
      vertex 0.705136 -9.178 -3
    endloop
  endfacet
  facet normal 0.615223 -0.788353 0
    outer loop
      vertex 0.625484 -9.24337 -3
      vertex 0.666113 -9.21166 -1
      vertex 0.625484 -9.24337 -1
    endloop
  endfacet
  facet normal 0.615223 -0.788353 0
    outer loop
      vertex 0.666113 -9.21166 -1
      vertex 0.625484 -9.24337 -3
      vertex 0.666113 -9.21166 -3
    endloop
  endfacet
  facet normal 0.405252 -0.914205 0
    outer loop
      vertex 0.401817 -9.37007 -3
      vertex 0.448933 -9.34919 -1
      vertex 0.401817 -9.37007 -1
    endloop
  endfacet
  facet normal 0.405252 -0.914205 0
    outer loop
      vertex 0.448933 -9.34919 -1
      vertex 0.401817 -9.37007 -3
      vertex 0.448933 -9.34919 -3
    endloop
  endfacet
  facet normal 0.817586 -0.575806 0
    outer loop
      vertex 0.843368 -9.02548 -1
      vertex 0.873043 -8.98335 -3
      vertex 0.873043 -8.98335 -1
    endloop
  endfacet
  facet normal 0.817586 -0.575806 0
    outer loop
      vertex 0.873043 -8.98335 -3
      vertex 0.843368 -9.02548 -1
      vertex 0.843368 -9.02548 -3
    endloop
  endfacet
  facet normal 0.757207 -0.653175 0
    outer loop
      vertex 0.777998 -9.10514 -1
      vertex 0.811661 -9.06611 -3
      vertex 0.811661 -9.06611 -1
    endloop
  endfacet
  facet normal 0.757207 -0.653175 0
    outer loop
      vertex 0.811661 -9.06611 -3
      vertex 0.777998 -9.10514 -1
      vertex 0.777998 -9.10514 -3
    endloop
  endfacet
  facet normal 0.914212 -0.405237 0
    outer loop
      vertex 0.949188 -8.84893 -1
      vertex 0.970073 -8.80182 -3
      vertex 0.970073 -8.80182 -1
    endloop
  endfacet
  facet normal 0.914212 -0.405237 0
    outer loop
      vertex 0.970073 -8.80182 -3
      vertex 0.949188 -8.84893 -1
      vertex 0.949188 -8.84893 -3
    endloop
  endfacet
  facet normal 0.932991 -0.359899 0
    outer loop
      vertex 0.970073 -8.80182 -1
      vertex 0.988621 -8.75373 -3
      vertex 0.988621 -8.75373 -1
    endloop
  endfacet
  facet normal 0.932991 -0.359899 0
    outer loop
      vertex 0.988621 -8.75373 -3
      vertex 0.970073 -8.80182 -1
      vertex 0.970073 -8.80182 -3
    endloop
  endfacet
  facet normal 0.893225 -0.44961 0
    outer loop
      vertex 0.926017 -8.89497 -1
      vertex 0.949188 -8.84893 -3
      vertex 0.949188 -8.84893 -1
    endloop
  endfacet
  facet normal 0.893225 -0.44961 0
    outer loop
      vertex 0.949188 -8.84893 -3
      vertex 0.926017 -8.89497 -1
      vertex 0.926017 -8.89497 -3
    endloop
  endfacet
  facet normal 0.949529 -0.313678 0
    outer loop
      vertex 0.988621 -8.75373 -1
      vertex 1.00479 -8.7048 -3
      vertex 1.00479 -8.7048 -1
    endloop
  endfacet
  facet normal 0.949529 -0.313678 0
    outer loop
      vertex 1.00479 -8.7048 -3
      vertex 0.988621 -8.75373 -1
      vertex 0.988621 -8.75373 -3
    endloop
  endfacet
  facet normal 0.963773 -0.266725 0
    outer loop
      vertex 1.00479 -8.7048 -1
      vertex 1.01853 -8.65513 -3
      vertex 1.01853 -8.65513 -1
    endloop
  endfacet
  facet normal 0.963773 -0.266725 0
    outer loop
      vertex 1.01853 -8.65513 -3
      vertex 1.00479 -8.7048 -1
      vertex 1.00479 -8.7048 -3
    endloop
  endfacet
  facet normal -0.689546 -0.724242 0
    outer loop
      vertex -0.742461 -9.14246 -3
      vertex -0.705136 -9.178 -1
      vertex -0.742461 -9.14246 -1
    endloop
  endfacet
  facet normal -0.689546 -0.724242 -0
    outer loop
      vertex -0.705136 -9.178 -1
      vertex -0.742461 -9.14246 -3
      vertex -0.705136 -9.178 -3
    endloop
  endfacet
  facet normal -0.653173 -0.757209 0
    outer loop
      vertex -0.705136 -9.178 -3
      vertex -0.666113 -9.21166 -1
      vertex -0.705136 -9.178 -1
    endloop
  endfacet
  facet normal -0.653173 -0.757209 -0
    outer loop
      vertex -0.666113 -9.21166 -1
      vertex -0.705136 -9.178 -3
      vertex -0.666113 -9.21166 -3
    endloop
  endfacet
  facet normal -0.534993 -0.844856 0
    outer loop
      vertex -0.583348 -9.27304 -3
      vertex -0.539807 -9.30061 -1
      vertex -0.583348 -9.27304 -1
    endloop
  endfacet
  facet normal -0.534993 -0.844856 -0
    outer loop
      vertex -0.539807 -9.30061 -1
      vertex -0.583348 -9.27304 -3
      vertex -0.539807 -9.30061 -3
    endloop
  endfacet
  facet normal -0.44961 -0.893225 0
    outer loop
      vertex -0.494967 -9.32602 -3
      vertex -0.448933 -9.34919 -1
      vertex -0.494967 -9.32602 -1
    endloop
  endfacet
  facet normal -0.44961 -0.893225 -0
    outer loop
      vertex -0.448933 -9.34919 -1
      vertex -0.494967 -9.32602 -3
      vertex -0.448933 -9.34919 -3
    endloop
  endfacet
  facet normal -0.492899 -0.870086 0
    outer loop
      vertex -0.539807 -9.30061 -3
      vertex -0.494967 -9.32602 -1
      vertex -0.539807 -9.30061 -1
    endloop
  endfacet
  facet normal -0.492899 -0.870086 -0
    outer loop
      vertex -0.494967 -9.32602 -1
      vertex -0.539807 -9.30061 -3
      vertex -0.494967 -9.32602 -3
    endloop
  endfacet
  facet normal -0.31369 -0.949526 0
    outer loop
      vertex -0.353734 -9.38862 -3
      vertex -0.304798 -9.40479 -1
      vertex -0.353734 -9.38862 -1
    endloop
  endfacet
  facet normal -0.31369 -0.949526 -0
    outer loop
      vertex -0.304798 -9.40479 -1
      vertex -0.353734 -9.38862 -3
      vertex -0.304798 -9.40479 -3
    endloop
  endfacet
  facet normal -0.266712 -0.963776 0
    outer loop
      vertex -0.304798 -9.40479 -3
      vertex -0.255129 -9.41853 -1
      vertex -0.304798 -9.40479 -1
    endloop
  endfacet
  facet normal -0.266712 -0.963776 -0
    outer loop
      vertex -0.255129 -9.41853 -1
      vertex -0.304798 -9.40479 -3
      vertex -0.255129 -9.41853 -3
    endloop
  endfacet
  facet normal -0.0735561 -0.997291 0
    outer loop
      vertex -0.102918 -9.44494 -3
      vertex -0.0515203 -9.44873 -1
      vertex -0.102918 -9.44494 -1
    endloop
  endfacet
  facet normal -0.0735561 -0.997291 -0
    outer loop
      vertex -0.0515203 -9.44873 -1
      vertex -0.102918 -9.44494 -3
      vertex -0.0515203 -9.44873 -3
    endloop
  endfacet
  facet normal -0.724242 -0.689546 0
    outer loop
      vertex -0.742461 -9.14246 -3
      vertex -0.777998 -9.10514 -1
      vertex -0.777998 -9.10514 -3
    endloop
  endfacet
  facet normal -0.724242 -0.689546 0
    outer loop
      vertex -0.777998 -9.10514 -1
      vertex -0.742461 -9.14246 -3
      vertex -0.742461 -9.14246 -1
    endloop
  endfacet
  facet normal -0.914212 -0.405237 0
    outer loop
      vertex -0.949188 -8.84893 -3
      vertex -0.970073 -8.80182 -1
      vertex -0.970073 -8.80182 -3
    endloop
  endfacet
  facet normal -0.914212 -0.405237 0
    outer loop
      vertex -0.970073 -8.80182 -1
      vertex -0.949188 -8.84893 -3
      vertex -0.949188 -8.84893 -1
    endloop
  endfacet
  facet normal -0.893225 -0.44961 0
    outer loop
      vertex -0.926017 -8.89497 -3
      vertex -0.949188 -8.84893 -1
      vertex -0.949188 -8.84893 -3
    endloop
  endfacet
  facet normal -0.893225 -0.44961 0
    outer loop
      vertex -0.949188 -8.84893 -1
      vertex -0.926017 -8.89497 -3
      vertex -0.926017 -8.89497 -1
    endloop
  endfacet
  facet normal -0.870086 -0.492899 0
    outer loop
      vertex -0.900615 -8.93981 -3
      vertex -0.926017 -8.89497 -1
      vertex -0.926017 -8.89497 -3
    endloop
  endfacet
  facet normal -0.870086 -0.492899 0
    outer loop
      vertex -0.926017 -8.89497 -1
      vertex -0.900615 -8.93981 -3
      vertex -0.900615 -8.93981 -1
    endloop
  endfacet
  facet normal -0.817586 -0.575806 0
    outer loop
      vertex -0.843368 -9.02548 -3
      vertex -0.873043 -8.98335 -1
      vertex -0.873043 -8.98335 -3
    endloop
  endfacet
  facet normal -0.817586 -0.575806 0
    outer loop
      vertex -0.873043 -8.98335 -1
      vertex -0.843368 -9.02548 -3
      vertex -0.843368 -9.02548 -1
    endloop
  endfacet
  facet normal -0.975703 -0.219097 0
    outer loop
      vertex -1.01853 -8.65513 -3
      vertex -1.02982 -8.60484 -1
      vertex -1.02982 -8.60484 -3
    endloop
  endfacet
  facet normal -0.975703 -0.219097 0
    outer loop
      vertex -1.02982 -8.60484 -1
      vertex -1.01853 -8.65513 -3
      vertex -1.01853 -8.65513 -1
    endloop
  endfacet
  facet normal -0.999699 -0.0245373 0
    outer loop
      vertex -1.04873 -8.45152 -3
      vertex -1.05 -8.4 -1
      vertex -1.05 -8.4 -3
    endloop
  endfacet
  facet normal -0.999699 -0.0245373 0
    outer loop
      vertex -1.05 -8.4 -1
      vertex -1.04873 -8.45152 -3
      vertex -1.04873 -8.45152 -1
    endloop
  endfacet
  facet normal 0.844856 0.534993 0
    outer loop
      vertex 0.900615 -7.86019 -1
      vertex 0.873043 -7.81665 -3
      vertex 0.873043 -7.81665 -1
    endloop
  endfacet
  facet normal 0.844856 0.534993 0
    outer loop
      vertex 0.873043 -7.81665 -3
      vertex 0.900615 -7.86019 -1
      vertex 0.900615 -7.86019 -3
    endloop
  endfacet
  facet normal 0.405237 0.914212 -0
    outer loop
      vertex 0.448933 -7.45081 -3
      vertex 0.401817 -7.42993 -1
      vertex 0.448933 -7.45081 -1
    endloop
  endfacet
  facet normal 0.405237 0.914212 0
    outer loop
      vertex 0.401817 -7.42993 -1
      vertex 0.448933 -7.45081 -3
      vertex 0.401817 -7.42993 -3
    endloop
  endfacet
  facet normal -0.844856 0.534993 0
    outer loop
      vertex -0.900615 -7.86019 -3
      vertex -0.873043 -7.81665 -1
      vertex -0.873043 -7.81665 -3
    endloop
  endfacet
  facet normal -0.844856 0.534993 0
    outer loop
      vertex -0.873043 -7.81665 -1
      vertex -0.900615 -7.86019 -3
      vertex -0.900615 -7.86019 -1
    endloop
  endfacet
  facet normal -0.914212 0.405237 0
    outer loop
      vertex -0.970073 -7.99818 -3
      vertex -0.949188 -7.95107 -1
      vertex -0.949188 -7.95107 -3
    endloop
  endfacet
  facet normal -0.914212 0.405237 0
    outer loop
      vertex -0.949188 -7.95107 -1
      vertex -0.970073 -7.99818 -3
      vertex -0.970073 -7.99818 -1
    endloop
  endfacet
  facet normal -0.689546 0.724242 0
    outer loop
      vertex -0.705136 -7.622 -3
      vertex -0.742461 -7.65754 -1
      vertex -0.705136 -7.622 -1
    endloop
  endfacet
  facet normal -0.689546 0.724242 0
    outer loop
      vertex -0.742461 -7.65754 -1
      vertex -0.705136 -7.622 -3
      vertex -0.742461 -7.65754 -3
    endloop
  endfacet
  facet normal -0.359899 0.932991 0
    outer loop
      vertex -0.353734 -7.41138 -3
      vertex -0.401817 -7.42993 -1
      vertex -0.353734 -7.41138 -1
    endloop
  endfacet
  facet normal -0.359899 0.932991 0
    outer loop
      vertex -0.401817 -7.42993 -1
      vertex -0.353734 -7.41138 -3
      vertex -0.401817 -7.42993 -3
    endloop
  endfacet
  facet normal 0.0735561 -0.997291 0
    outer loop
      vertex 0.0515203 -9.44873 -3
      vertex 0.102918 -9.44494 -1
      vertex 0.0515203 -9.44873 -1
    endloop
  endfacet
  facet normal 0.0735561 -0.997291 0
    outer loop
      vertex 0.102918 -9.44494 -1
      vertex 0.0515203 -9.44873 -3
      vertex 0.102918 -9.44494 -3
    endloop
  endfacet
  facet normal 0.170964 -0.985277 0
    outer loop
      vertex 0.154066 -9.43863 -3
      vertex 0.204844 -9.42982 -1
      vertex 0.154066 -9.43863 -1
    endloop
  endfacet
  facet normal 0.170964 -0.985277 0
    outer loop
      vertex 0.204844 -9.42982 -1
      vertex 0.154066 -9.43863 -3
      vertex 0.204844 -9.42982 -3
    endloop
  endfacet
  facet normal 0.724242 -0.689546 0
    outer loop
      vertex 0.742461 -9.14246 -1
      vertex 0.777998 -9.10514 -3
      vertex 0.777998 -9.10514 -1
    endloop
  endfacet
  facet normal 0.724242 -0.689546 0
    outer loop
      vertex 0.777998 -9.10514 -3
      vertex 0.742461 -9.14246 -1
      vertex 0.742461 -9.14246 -3
    endloop
  endfacet
  facet normal 0.44961 -0.893225 0
    outer loop
      vertex 0.448933 -9.34919 -3
      vertex 0.494967 -9.32602 -1
      vertex 0.448933 -9.34919 -1
    endloop
  endfacet
  facet normal 0.44961 -0.893225 0
    outer loop
      vertex 0.494967 -9.32602 -1
      vertex 0.448933 -9.34919 -3
      vertex 0.494967 -9.32602 -3
    endloop
  endfacet
  facet normal 0.534993 -0.844856 0
    outer loop
      vertex 0.539807 -9.30061 -3
      vertex 0.583348 -9.27304 -1
      vertex 0.539807 -9.30061 -1
    endloop
  endfacet
  facet normal 0.534993 -0.844856 0
    outer loop
      vertex 0.583348 -9.27304 -1
      vertex 0.539807 -9.30061 -3
      vertex 0.583348 -9.27304 -3
    endloop
  endfacet
  facet normal 0.844856 -0.534993 0
    outer loop
      vertex 0.873043 -8.98335 -1
      vertex 0.900615 -8.93981 -3
      vertex 0.900615 -8.93981 -1
    endloop
  endfacet
  facet normal 0.844856 -0.534993 0
    outer loop
      vertex 0.900615 -8.93981 -3
      vertex 0.873043 -8.98335 -1
      vertex 0.873043 -8.98335 -3
    endloop
  endfacet
  facet normal 0.788346 -0.615232 0
    outer loop
      vertex 0.811661 -9.06611 -1
      vertex 0.843368 -9.02548 -3
      vertex 0.843368 -9.02548 -1
    endloop
  endfacet
  facet normal 0.788346 -0.615232 0
    outer loop
      vertex 0.843368 -9.02548 -3
      vertex 0.811661 -9.06611 -1
      vertex 0.811661 -9.06611 -3
    endloop
  endfacet
  facet normal 0.985277 -0.170967 0
    outer loop
      vertex 1.02982 -8.60484 -1
      vertex 1.03864 -8.55407 -3
      vertex 1.03864 -8.55407 -1
    endloop
  endfacet
  facet normal 0.985277 -0.170967 0
    outer loop
      vertex 1.03864 -8.55407 -3
      vertex 1.02982 -8.60484 -1
      vertex 1.02982 -8.60484 -3
    endloop
  endfacet
  facet normal 0.997291 -0.0735574 0
    outer loop
      vertex 1.04494 -8.50292 -1
      vertex 1.04873 -8.45152 -3
      vertex 1.04873 -8.45152 -1
    endloop
  endfacet
  facet normal 0.997291 -0.0735574 0
    outer loop
      vertex 1.04873 -8.45152 -3
      vertex 1.04494 -8.50292 -1
      vertex 1.04494 -8.50292 -3
    endloop
  endfacet
  facet normal -0.575815 -0.81758 0
    outer loop
      vertex -0.625484 -9.24337 -3
      vertex -0.583348 -9.27304 -1
      vertex -0.625484 -9.24337 -1
    endloop
  endfacet
  facet normal -0.575815 -0.81758 -0
    outer loop
      vertex -0.583348 -9.27304 -1
      vertex -0.625484 -9.24337 -3
      vertex -0.583348 -9.27304 -3
    endloop
  endfacet
  facet normal -0.219097 -0.975703 0
    outer loop
      vertex -0.255129 -9.41853 -3
      vertex -0.204844 -9.42982 -1
      vertex -0.255129 -9.41853 -1
    endloop
  endfacet
  facet normal -0.219097 -0.975703 -0
    outer loop
      vertex -0.204844 -9.42982 -1
      vertex -0.255129 -9.41853 -3
      vertex -0.204844 -9.42982 -3
    endloop
  endfacet
  facet normal -0.122411 -0.99248 0
    outer loop
      vertex -0.154066 -9.43863 -3
      vertex -0.102918 -9.44494 -1
      vertex -0.154066 -9.43863 -1
    endloop
  endfacet
  facet normal -0.122411 -0.99248 -0
    outer loop
      vertex -0.102918 -9.44494 -1
      vertex -0.154066 -9.43863 -3
      vertex -0.102918 -9.44494 -3
    endloop
  endfacet
  facet normal -0.844856 -0.534993 0
    outer loop
      vertex -0.873043 -8.98335 -3
      vertex -0.900615 -8.93981 -1
      vertex -0.900615 -8.93981 -3
    endloop
  endfacet
  facet normal -0.844856 -0.534993 0
    outer loop
      vertex -0.900615 -8.93981 -1
      vertex -0.873043 -8.98335 -3
      vertex -0.873043 -8.98335 -1
    endloop
  endfacet
  facet normal -0.788346 -0.615232 0
    outer loop
      vertex -0.811661 -9.06611 -3
      vertex -0.843368 -9.02548 -1
      vertex -0.843368 -9.02548 -3
    endloop
  endfacet
  facet normal -0.788346 -0.615232 0
    outer loop
      vertex -0.843368 -9.02548 -1
      vertex -0.811661 -9.06611 -3
      vertex -0.811661 -9.06611 -1
    endloop
  endfacet
  facet normal -0.963773 -0.266725 0
    outer loop
      vertex -1.00479 -8.7048 -3
      vertex -1.01853 -8.65513 -1
      vertex -1.01853 -8.65513 -3
    endloop
  endfacet
  facet normal -0.963773 -0.266725 0
    outer loop
      vertex -1.01853 -8.65513 -1
      vertex -1.00479 -8.7048 -3
      vertex -1.00479 -8.7048 -1
    endloop
  endfacet
  facet normal -0.985277 -0.170967 0
    outer loop
      vertex -1.02982 -8.60484 -3
      vertex -1.03864 -8.55407 -1
      vertex -1.03864 -8.55407 -3
    endloop
  endfacet
  facet normal -0.985277 -0.170967 0
    outer loop
      vertex -1.03864 -8.55407 -1
      vertex -1.02982 -8.60484 -3
      vertex -1.02982 -8.60484 -1
    endloop
  endfacet
  facet normal -0.997291 -0.0735574 0
    outer loop
      vertex -1.04494 -8.50292 -3
      vertex -1.04873 -8.45152 -1
      vertex -1.04873 -8.45152 -3
    endloop
  endfacet
  facet normal -0.997291 -0.0735574 0
    outer loop
      vertex -1.04873 -8.45152 -1
      vertex -1.04494 -8.50292 -3
      vertex -1.04494 -8.50292 -1
    endloop
  endfacet
endsolid OpenSCAD_Model
