solid OpenSCAD_Model
  facet normal -1 0 0
    outer loop
      vertex -7.65 -15.15 -8
      vertex -7.65 16.15 8
      vertex -7.65 16.15 -8
    endloop
  endfacet
  facet normal -1 -0 0
    outer loop
      vertex -7.65 16.15 8
      vertex -7.65 -15.15 -8
      vertex -7.65 -15.15 8
    endloop
  endfacet
  facet normal 0 0 1
    outer loop
      vertex 7.65 16.15 8
      vertex 6.65 15.15 8
      vertex 7.65 -15.15 8
    endloop
  endfacet
  facet normal 0 0 1
    outer loop
      vertex 7.65 16.15 8
      vertex -6.65 15.15 8
      vertex 6.65 15.15 8
    endloop
  endfacet
  facet normal -0 0 1
    outer loop
      vertex -7.65 16.15 8
      vertex -6.65 15.15 8
      vertex 7.65 16.15 8
    endloop
  endfacet
  facet normal 0 0 1
    outer loop
      vertex -7.65 -15.15 8
      vertex -6.65 15.15 8
      vertex -7.65 16.15 8
    endloop
  endfacet
  facet normal 0 0 1
    outer loop
      vertex -6.65 15.15 8
      vertex -7.65 -15.15 8
      vertex -6.65 -15.15 8
    endloop
  endfacet
  facet normal 0 0 1
    outer loop
      vertex 7.65 -15.15 8
      vertex 6.65 15.15 8
      vertex 6.65 -15.15 8
    endloop
  endfacet
  facet normal 1 -0 0
    outer loop
      vertex 7.65 -15.15 8
      vertex 7.65 16.15 -8
      vertex 7.65 16.15 8
    endloop
  endfacet
  facet normal 1 0 0
    outer loop
      vertex 7.65 16.15 -8
      vertex 7.65 -15.15 8
      vertex 7.65 -15.15 -8
    endloop
  endfacet
  facet normal 0 0 -1
    outer loop
      vertex -7.65 -15.15 -8
      vertex 7.65 16.15 -8
      vertex 7.65 -15.15 -8
    endloop
  endfacet
  facet normal -0 0 -1
    outer loop
      vertex 7.65 16.15 -8
      vertex -7.65 -15.15 -8
      vertex -7.65 16.15 -8
    endloop
  endfacet
  facet normal 0 1 -0
    outer loop
      vertex 7.65 16.15 -8
      vertex -7.65 16.15 8
      vertex 7.65 16.15 8
    endloop
  endfacet
  facet normal 0 1 0
    outer loop
      vertex -7.65 16.15 8
      vertex 7.65 16.15 -8
      vertex -7.65 16.15 -8
    endloop
  endfacet
  facet normal 1 -0 0
    outer loop
      vertex -6.65 -15.15 8
      vertex -6.65 15.15 -6
      vertex -6.65 15.15 8
    endloop
  endfacet
  facet normal 1 0 0
    outer loop
      vertex -6.65 15.15 -6
      vertex -6.65 -15.15 8
      vertex -6.65 -15.15 -6
    endloop
  endfacet
  facet normal -1 0 0
    outer loop
      vertex 6.65 -15.15 -6
      vertex 6.65 15.15 8
      vertex 6.65 15.15 -6
    endloop
  endfacet
  facet normal -1 -0 0
    outer loop
      vertex 6.65 15.15 8
      vertex 6.65 -15.15 -6
      vertex 6.65 -15.15 8
    endloop
  endfacet
  facet normal 0 -1 0
    outer loop
      vertex -6.65 15.15 -6
      vertex 6.65 15.15 8
      vertex -6.65 15.15 8
    endloop
  endfacet
  facet normal 0 -1 -0
    outer loop
      vertex 6.65 15.15 8
      vertex -6.65 15.15 -6
      vertex 6.65 15.15 -6
    endloop
  endfacet
  facet normal 0 0 1
    outer loop
      vertex 6.65 15.15 -6
      vertex 5 -13.15 -6
      vertex 6.65 -15.15 -6
    endloop
  endfacet
  facet normal -0 0 1
    outer loop
      vertex 0.926017 -7.90503 -6
      vertex 5 -13.15 -6
      vertex 6.65 15.15 -6
    endloop
  endfacet
  facet normal 0 0 1
    outer loop
      vertex 5 -13.15 -6
      vertex 1.04873 -8.34848 -6
      vertex 1.05 -8.4 -6
    endloop
  endfacet
  facet normal 0 0 1
    outer loop
      vertex 5 -13.15 -6
      vertex 1.04494 -8.29708 -6
      vertex 1.04873 -8.34848 -6
    endloop
  endfacet
  facet normal 0 0 1
    outer loop
      vertex 5 -13.15 -6
      vertex 1.03864 -8.24593 -6
      vertex 1.04494 -8.29708 -6
    endloop
  endfacet
  facet normal 0 0 1
    outer loop
      vertex 5 -13.15 -6
      vertex 1.02982 -8.19516 -6
      vertex 1.03864 -8.24593 -6
    endloop
  endfacet
  facet normal 0 0 1
    outer loop
      vertex 5 -13.15 -6
      vertex 1.01853 -8.14487 -6
      vertex 1.02982 -8.19516 -6
    endloop
  endfacet
  facet normal 0 0 1
    outer loop
      vertex 5 -13.15 -6
      vertex 1.00479 -8.0952 -6
      vertex 1.01853 -8.14487 -6
    endloop
  endfacet
  facet normal 0 0 1
    outer loop
      vertex 5 -13.15 -6
      vertex 0.988621 -8.04627 -6
      vertex 1.00479 -8.0952 -6
    endloop
  endfacet
  facet normal 0 0 1
    outer loop
      vertex 5 -13.15 -6
      vertex 0.970073 -7.99818 -6
      vertex 0.988621 -8.04627 -6
    endloop
  endfacet
  facet normal 0 0 1
    outer loop
      vertex 5 -13.15 -6
      vertex 0.949188 -7.95107 -6
      vertex 0.970073 -7.99818 -6
    endloop
  endfacet
  facet normal 0 0 1
    outer loop
      vertex 5 -13.15 -6
      vertex 0.926017 -7.90503 -6
      vertex 0.949188 -7.95107 -6
    endloop
  endfacet
  facet normal 0 0 1
    outer loop
      vertex 6.65 15.15 -6
      vertex 0.900615 -7.86019 -6
      vertex 0.926017 -7.90503 -6
    endloop
  endfacet
  facet normal 0 0 1
    outer loop
      vertex 6.65 15.15 -6
      vertex 0.873043 -7.81665 -6
      vertex 0.900615 -7.86019 -6
    endloop
  endfacet
  facet normal 0 0 1
    outer loop
      vertex 6.65 15.15 -6
      vertex 0.843368 -7.77452 -6
      vertex 0.873043 -7.81665 -6
    endloop
  endfacet
  facet normal 0 0 1
    outer loop
      vertex 6.65 15.15 -6
      vertex 0.811661 -7.73389 -6
      vertex 0.843368 -7.77452 -6
    endloop
  endfacet
  facet normal 0 0 1
    outer loop
      vertex 6.65 15.15 -6
      vertex 0.777998 -7.69486 -6
      vertex 0.811661 -7.73389 -6
    endloop
  endfacet
  facet normal 0 0 1
    outer loop
      vertex 6.65 15.15 -6
      vertex 0.742461 -7.65754 -6
      vertex 0.777998 -7.69486 -6
    endloop
  endfacet
  facet normal 0 0 1
    outer loop
      vertex 6.65 15.15 -6
      vertex 0.705136 -7.622 -6
      vertex 0.742461 -7.65754 -6
    endloop
  endfacet
  facet normal 0 0 1
    outer loop
      vertex 6.65 15.15 -6
      vertex 0.666113 -7.58834 -6
      vertex 0.705136 -7.622 -6
    endloop
  endfacet
  facet normal 0 0 1
    outer loop
      vertex 6.65 15.15 -6
      vertex 0.625484 -7.55663 -6
      vertex 0.666113 -7.58834 -6
    endloop
  endfacet
  facet normal 0 0 1
    outer loop
      vertex 6.65 15.15 -6
      vertex 0.583348 -7.52696 -6
      vertex 0.625484 -7.55663 -6
    endloop
  endfacet
  facet normal 0 0 1
    outer loop
      vertex 6.65 15.15 -6
      vertex 0.539807 -7.49938 -6
      vertex 0.583348 -7.52696 -6
    endloop
  endfacet
  facet normal 0 0 1
    outer loop
      vertex 6.65 15.15 -6
      vertex 0.494967 -7.47398 -6
      vertex 0.539807 -7.49938 -6
    endloop
  endfacet
  facet normal 0 0 1
    outer loop
      vertex 6.65 15.15 -6
      vertex 0.448933 -7.45081 -6
      vertex 0.494967 -7.47398 -6
    endloop
  endfacet
  facet normal 0 0 1
    outer loop
      vertex 6.65 15.15 -6
      vertex 0.401817 -7.42993 -6
      vertex 0.448933 -7.45081 -6
    endloop
  endfacet
  facet normal 0 0 1
    outer loop
      vertex 6.65 15.15 -6
      vertex 0.353734 -7.41138 -6
      vertex 0.401817 -7.42993 -6
    endloop
  endfacet
  facet normal 0 0 1
    outer loop
      vertex 6.65 15.15 -6
      vertex 0.304798 -7.39521 -6
      vertex 0.353734 -7.41138 -6
    endloop
  endfacet
  facet normal 0 0 1
    outer loop
      vertex 6.65 15.15 -6
      vertex 0.255129 -7.38147 -6
      vertex 0.304798 -7.39521 -6
    endloop
  endfacet
  facet normal 0 0 1
    outer loop
      vertex 6.65 15.15 -6
      vertex 0.204844 -7.37018 -6
      vertex 0.255129 -7.38147 -6
    endloop
  endfacet
  facet normal 0 0 1
    outer loop
      vertex 6.65 15.15 -6
      vertex 0.154066 -7.36136 -6
      vertex 0.204844 -7.37018 -6
    endloop
  endfacet
  facet normal 0 0 1
    outer loop
      vertex 6.65 15.15 -6
      vertex 0.102918 -7.35506 -6
      vertex 0.154066 -7.36136 -6
    endloop
  endfacet
  facet normal 0 0 1
    outer loop
      vertex 6.65 15.15 -6
      vertex 0.0515203 -7.35126 -6
      vertex 0.102918 -7.35506 -6
    endloop
  endfacet
  facet normal 0 0 1
    outer loop
      vertex 6.65 15.15 -6
      vertex 0 -7.35 -6
      vertex 0.0515203 -7.35126 -6
    endloop
  endfacet
  facet normal -0 0 1
    outer loop
      vertex -6.65 15.15 -6
      vertex 0 -7.35 -6
      vertex 6.65 15.15 -6
    endloop
  endfacet
  facet normal 0 0 1
    outer loop
      vertex 0 -7.35 -6
      vertex -6.65 15.15 -6
      vertex -0.0515203 -7.35126 -6
    endloop
  endfacet
  facet normal 0 0 1
    outer loop
      vertex -0.0515203 -7.35126 -6
      vertex -6.65 15.15 -6
      vertex -0.102918 -7.35506 -6
    endloop
  endfacet
  facet normal 0 0 1
    outer loop
      vertex -0.102918 -7.35506 -6
      vertex -6.65 15.15 -6
      vertex -0.154066 -7.36136 -6
    endloop
  endfacet
  facet normal 0 0 1
    outer loop
      vertex -0.154066 -7.36136 -6
      vertex -6.65 15.15 -6
      vertex -0.204844 -7.37018 -6
    endloop
  endfacet
  facet normal 0 0 1
    outer loop
      vertex -0.204844 -7.37018 -6
      vertex -6.65 15.15 -6
      vertex -0.255129 -7.38147 -6
    endloop
  endfacet
  facet normal 0 0 1
    outer loop
      vertex -0.255129 -7.38147 -6
      vertex -6.65 15.15 -6
      vertex -0.304798 -7.39521 -6
    endloop
  endfacet
  facet normal 0 0 1
    outer loop
      vertex -0.304798 -7.39521 -6
      vertex -6.65 15.15 -6
      vertex -0.353734 -7.41138 -6
    endloop
  endfacet
  facet normal 0 0 1
    outer loop
      vertex -0.353734 -7.41138 -6
      vertex -6.65 15.15 -6
      vertex -0.401817 -7.42993 -6
    endloop
  endfacet
  facet normal 0 0 1
    outer loop
      vertex -0.401817 -7.42993 -6
      vertex -6.65 15.15 -6
      vertex -0.448933 -7.45081 -6
    endloop
  endfacet
  facet normal 0 0 1
    outer loop
      vertex -0.448933 -7.45081 -6
      vertex -6.65 15.15 -6
      vertex -0.494967 -7.47398 -6
    endloop
  endfacet
  facet normal 0 0 1
    outer loop
      vertex -0.494967 -7.47398 -6
      vertex -6.65 15.15 -6
      vertex -0.539807 -7.49938 -6
    endloop
  endfacet
  facet normal 0 0 1
    outer loop
      vertex -0.539807 -7.49938 -6
      vertex -6.65 15.15 -6
      vertex -0.583348 -7.52696 -6
    endloop
  endfacet
  facet normal 0 0 1
    outer loop
      vertex -0.583348 -7.52696 -6
      vertex -6.65 15.15 -6
      vertex -0.625484 -7.55663 -6
    endloop
  endfacet
  facet normal 0 0 1
    outer loop
      vertex -0.625484 -7.55663 -6
      vertex -6.65 15.15 -6
      vertex -0.666113 -7.58834 -6
    endloop
  endfacet
  facet normal 0 0 1
    outer loop
      vertex -0.666113 -7.58834 -6
      vertex -6.65 15.15 -6
      vertex -0.705136 -7.622 -6
    endloop
  endfacet
  facet normal 0 0 1
    outer loop
      vertex -0.705136 -7.622 -6
      vertex -6.65 15.15 -6
      vertex -0.742461 -7.65754 -6
    endloop
  endfacet
  facet normal 0 0 1
    outer loop
      vertex -0.742461 -7.65754 -6
      vertex -6.65 15.15 -6
      vertex -0.777998 -7.69486 -6
    endloop
  endfacet
  facet normal 0 0 1
    outer loop
      vertex -0.777998 -7.69486 -6
      vertex -6.65 15.15 -6
      vertex -0.811661 -7.73389 -6
    endloop
  endfacet
  facet normal 0 0 1
    outer loop
      vertex -0.811661 -7.73389 -6
      vertex -6.65 15.15 -6
      vertex -0.843368 -7.77452 -6
    endloop
  endfacet
  facet normal 0 0 1
    outer loop
      vertex -0.843368 -7.77452 -6
      vertex -6.65 15.15 -6
      vertex -0.873043 -7.81665 -6
    endloop
  endfacet
  facet normal 0 0 1
    outer loop
      vertex -0.873043 -7.81665 -6
      vertex -6.65 15.15 -6
      vertex -0.900615 -7.86019 -6
    endloop
  endfacet
  facet normal 0 0 1
    outer loop
      vertex -0.900615 -7.86019 -6
      vertex -6.65 15.15 -6
      vertex -0.926017 -7.90503 -6
    endloop
  endfacet
  facet normal 0 -0 1
    outer loop
      vertex -5 -13.15 -6
      vertex -0.926017 -7.90503 -6
      vertex -6.65 15.15 -6
    endloop
  endfacet
  facet normal 0 0 1
    outer loop
      vertex -0.926017 -7.90503 -6
      vertex -5 -13.15 -6
      vertex -0.949188 -7.95107 -6
    endloop
  endfacet
  facet normal 0 0 1
    outer loop
      vertex -0.949188 -7.95107 -6
      vertex -5 -13.15 -6
      vertex -0.970073 -7.99818 -6
    endloop
  endfacet
  facet normal 0 0 1
    outer loop
      vertex -1.04873 -8.34848 -6
      vertex -5 -13.15 -6
      vertex -1.05 -8.4 -6
    endloop
  endfacet
  facet normal 0 0 1
    outer loop
      vertex -1.04494 -8.29708 -6
      vertex -5 -13.15 -6
      vertex -1.04873 -8.34848 -6
    endloop
  endfacet
  facet normal 0 0 1
    outer loop
      vertex -1.03864 -8.24593 -6
      vertex -5 -13.15 -6
      vertex -1.04494 -8.29708 -6
    endloop
  endfacet
  facet normal 0 0 1
    outer loop
      vertex -1.02982 -8.19516 -6
      vertex -5 -13.15 -6
      vertex -1.03864 -8.24593 -6
    endloop
  endfacet
  facet normal 0 0 1
    outer loop
      vertex -1.01853 -8.14487 -6
      vertex -5 -13.15 -6
      vertex -1.02982 -8.19516 -6
    endloop
  endfacet
  facet normal 0 0 1
    outer loop
      vertex -1.00479 -8.0952 -6
      vertex -5 -13.15 -6
      vertex -1.01853 -8.14487 -6
    endloop
  endfacet
  facet normal 0 0 1
    outer loop
      vertex -0.970073 -7.99818 -6
      vertex -5 -13.15 -6
      vertex -0.988621 -8.04627 -6
    endloop
  endfacet
  facet normal 0 0 1
    outer loop
      vertex -0.988621 -8.04627 -6
      vertex -5 -13.15 -6
      vertex -1.00479 -8.0952 -6
    endloop
  endfacet
  facet normal 0 0 1
    outer loop
      vertex -6.65 -15.15 -6
      vertex -5 -13.15 -6
      vertex -6.65 15.15 -6
    endloop
  endfacet
  facet normal 0 0 1
    outer loop
      vertex -5 -13.15 -6
      vertex -6.65 -15.15 -6
      vertex -5 -15.15 -6
    endloop
  endfacet
  facet normal 0 0 1
    outer loop
      vertex 6.65 -15.15 -6
      vertex 5 -13.15 -6
      vertex 5 -15.15 -6
    endloop
  endfacet
  facet normal -0 0 1
    outer loop
      vertex 1.04873 -8.45152 -6
      vertex 5 -13.15 -6
      vertex 1.05 -8.4 -6
    endloop
  endfacet
  facet normal -0 0 1
    outer loop
      vertex 1.04494 -8.50292 -6
      vertex 5 -13.15 -6
      vertex 1.04873 -8.45152 -6
    endloop
  endfacet
  facet normal -0 0 1
    outer loop
      vertex 1.03864 -8.55407 -6
      vertex 5 -13.15 -6
      vertex 1.04494 -8.50292 -6
    endloop
  endfacet
  facet normal -0 0 1
    outer loop
      vertex 1.02982 -8.60484 -6
      vertex 5 -13.15 -6
      vertex 1.03864 -8.55407 -6
    endloop
  endfacet
  facet normal -0 0 1
    outer loop
      vertex 1.01853 -8.65513 -6
      vertex 5 -13.15 -6
      vertex 1.02982 -8.60484 -6
    endloop
  endfacet
  facet normal -0 0 1
    outer loop
      vertex 1.00479 -8.7048 -6
      vertex 5 -13.15 -6
      vertex 1.01853 -8.65513 -6
    endloop
  endfacet
  facet normal -0 0 1
    outer loop
      vertex 0.988621 -8.75373 -6
      vertex 5 -13.15 -6
      vertex 1.00479 -8.7048 -6
    endloop
  endfacet
  facet normal -0 0 1
    outer loop
      vertex 0.970073 -8.80182 -6
      vertex 5 -13.15 -6
      vertex 0.988621 -8.75373 -6
    endloop
  endfacet
  facet normal -0 0 1
    outer loop
      vertex 0.949188 -8.84893 -6
      vertex 5 -13.15 -6
      vertex 0.970073 -8.80182 -6
    endloop
  endfacet
  facet normal -0 0 1
    outer loop
      vertex 0.926017 -8.89497 -6
      vertex 5 -13.15 -6
      vertex 0.949188 -8.84893 -6
    endloop
  endfacet
  facet normal -0 0 1
    outer loop
      vertex 0.900615 -8.93981 -6
      vertex 5 -13.15 -6
      vertex 0.926017 -8.89497 -6
    endloop
  endfacet
  facet normal -0 0 1
    outer loop
      vertex 0.873043 -8.98335 -6
      vertex 5 -13.15 -6
      vertex 0.900615 -8.93981 -6
    endloop
  endfacet
  facet normal -0 0 1
    outer loop
      vertex 0.843368 -9.02548 -6
      vertex 5 -13.15 -6
      vertex 0.873043 -8.98335 -6
    endloop
  endfacet
  facet normal -0 0 1
    outer loop
      vertex 0.811661 -9.06611 -6
      vertex 5 -13.15 -6
      vertex 0.843368 -9.02548 -6
    endloop
  endfacet
  facet normal -0 0 1
    outer loop
      vertex 0.777998 -9.10514 -6
      vertex 5 -13.15 -6
      vertex 0.811661 -9.06611 -6
    endloop
  endfacet
  facet normal -0 0 1
    outer loop
      vertex 0.742461 -9.14246 -6
      vertex 5 -13.15 -6
      vertex 0.777998 -9.10514 -6
    endloop
  endfacet
  facet normal -0 0 1
    outer loop
      vertex 0.705136 -9.178 -6
      vertex 5 -13.15 -6
      vertex 0.742461 -9.14246 -6
    endloop
  endfacet
  facet normal -0 0 1
    outer loop
      vertex 0.666113 -9.21166 -6
      vertex 5 -13.15 -6
      vertex 0.705136 -9.178 -6
    endloop
  endfacet
  facet normal -0 0 1
    outer loop
      vertex 0.625484 -9.24337 -6
      vertex 5 -13.15 -6
      vertex 0.666113 -9.21166 -6
    endloop
  endfacet
  facet normal -0 0 1
    outer loop
      vertex 0.583348 -9.27304 -6
      vertex 5 -13.15 -6
      vertex 0.625484 -9.24337 -6
    endloop
  endfacet
  facet normal -0 0 1
    outer loop
      vertex 0.539807 -9.30061 -6
      vertex 5 -13.15 -6
      vertex 0.583348 -9.27304 -6
    endloop
  endfacet
  facet normal -0 0 1
    outer loop
      vertex 0.494967 -9.32602 -6
      vertex 5 -13.15 -6
      vertex 0.539807 -9.30061 -6
    endloop
  endfacet
  facet normal -0 0 1
    outer loop
      vertex 0.448933 -9.34919 -6
      vertex 5 -13.15 -6
      vertex 0.494967 -9.32602 -6
    endloop
  endfacet
  facet normal -0 0 1
    outer loop
      vertex 0.401817 -9.37007 -6
      vertex 5 -13.15 -6
      vertex 0.448933 -9.34919 -6
    endloop
  endfacet
  facet normal -0 0 1
    outer loop
      vertex 0.353734 -9.38862 -6
      vertex 5 -13.15 -6
      vertex 0.401817 -9.37007 -6
    endloop
  endfacet
  facet normal -0 0 1
    outer loop
      vertex 0.304798 -9.40479 -6
      vertex 5 -13.15 -6
      vertex 0.353734 -9.38862 -6
    endloop
  endfacet
  facet normal -0 0 1
    outer loop
      vertex 0.255129 -9.41853 -6
      vertex 5 -13.15 -6
      vertex 0.304798 -9.40479 -6
    endloop
  endfacet
  facet normal -0 0 1
    outer loop
      vertex 0.204844 -9.42982 -6
      vertex 5 -13.15 -6
      vertex 0.255129 -9.41853 -6
    endloop
  endfacet
  facet normal -0 0 1
    outer loop
      vertex 0.154066 -9.43863 -6
      vertex 5 -13.15 -6
      vertex 0.204844 -9.42982 -6
    endloop
  endfacet
  facet normal -0 0 1
    outer loop
      vertex 0.102918 -9.44494 -6
      vertex 5 -13.15 -6
      vertex 0.154066 -9.43863 -6
    endloop
  endfacet
  facet normal -0 0 1
    outer loop
      vertex 0.0515203 -9.44873 -6
      vertex 5 -13.15 -6
      vertex 0.102918 -9.44494 -6
    endloop
  endfacet
  facet normal -0 0 1
    outer loop
      vertex 0 -9.45 -6
      vertex 5 -13.15 -6
      vertex 0.0515203 -9.44873 -6
    endloop
  endfacet
  facet normal 0 0 1
    outer loop
      vertex -5 -13.15 -6
      vertex 0 -9.45 -6
      vertex -0.0515203 -9.44873 -6
    endloop
  endfacet
  facet normal 0 0 1
    outer loop
      vertex -5 -13.15 -6
      vertex -0.0515203 -9.44873 -6
      vertex -0.102918 -9.44494 -6
    endloop
  endfacet
  facet normal 0 0 1
    outer loop
      vertex -5 -13.15 -6
      vertex -0.102918 -9.44494 -6
      vertex -0.154066 -9.43863 -6
    endloop
  endfacet
  facet normal 0 0 1
    outer loop
      vertex -5 -13.15 -6
      vertex -0.154066 -9.43863 -6
      vertex -0.204844 -9.42982 -6
    endloop
  endfacet
  facet normal 0 0 1
    outer loop
      vertex -5 -13.15 -6
      vertex -0.204844 -9.42982 -6
      vertex -0.255129 -9.41853 -6
    endloop
  endfacet
  facet normal 0 0 1
    outer loop
      vertex -5 -13.15 -6
      vertex -0.255129 -9.41853 -6
      vertex -0.304798 -9.40479 -6
    endloop
  endfacet
  facet normal 0 0 1
    outer loop
      vertex -5 -13.15 -6
      vertex -0.304798 -9.40479 -6
      vertex -0.353734 -9.38862 -6
    endloop
  endfacet
  facet normal 0 0 1
    outer loop
      vertex -5 -13.15 -6
      vertex -0.353734 -9.38862 -6
      vertex -0.401817 -9.37007 -6
    endloop
  endfacet
  facet normal 0 0 1
    outer loop
      vertex -5 -13.15 -6
      vertex -0.401817 -9.37007 -6
      vertex -0.448933 -9.34919 -6
    endloop
  endfacet
  facet normal 0 0 1
    outer loop
      vertex -5 -13.15 -6
      vertex -0.448933 -9.34919 -6
      vertex -0.494967 -9.32602 -6
    endloop
  endfacet
  facet normal 0 0 1
    outer loop
      vertex -5 -13.15 -6
      vertex -0.494967 -9.32602 -6
      vertex -0.539807 -9.30061 -6
    endloop
  endfacet
  facet normal 0 0 1
    outer loop
      vertex -5 -13.15 -6
      vertex -0.539807 -9.30061 -6
      vertex -0.583348 -9.27304 -6
    endloop
  endfacet
  facet normal 0 0 1
    outer loop
      vertex 0 -9.45 -6
      vertex -5 -13.15 -6
      vertex 5 -13.15 -6
    endloop
  endfacet
  facet normal 0 0 1
    outer loop
      vertex -0.625484 -9.24337 -6
      vertex -5 -13.15 -6
      vertex -0.583348 -9.27304 -6
    endloop
  endfacet
  facet normal 0 0 1
    outer loop
      vertex -0.666113 -9.21166 -6
      vertex -5 -13.15 -6
      vertex -0.625484 -9.24337 -6
    endloop
  endfacet
  facet normal 0 0 1
    outer loop
      vertex -0.705136 -9.178 -6
      vertex -5 -13.15 -6
      vertex -0.666113 -9.21166 -6
    endloop
  endfacet
  facet normal 0 0 1
    outer loop
      vertex -0.742461 -9.14246 -6
      vertex -5 -13.15 -6
      vertex -0.705136 -9.178 -6
    endloop
  endfacet
  facet normal 0 0 1
    outer loop
      vertex -0.777998 -9.10514 -6
      vertex -5 -13.15 -6
      vertex -0.742461 -9.14246 -6
    endloop
  endfacet
  facet normal 0 0 1
    outer loop
      vertex -0.811661 -9.06611 -6
      vertex -5 -13.15 -6
      vertex -0.777998 -9.10514 -6
    endloop
  endfacet
  facet normal 0 0 1
    outer loop
      vertex -0.843368 -9.02548 -6
      vertex -5 -13.15 -6
      vertex -0.811661 -9.06611 -6
    endloop
  endfacet
  facet normal 0 0 1
    outer loop
      vertex -0.873043 -8.98335 -6
      vertex -5 -13.15 -6
      vertex -0.843368 -9.02548 -6
    endloop
  endfacet
  facet normal 0 0 1
    outer loop
      vertex -0.900615 -8.93981 -6
      vertex -5 -13.15 -6
      vertex -0.873043 -8.98335 -6
    endloop
  endfacet
  facet normal 0 0 1
    outer loop
      vertex -0.926017 -8.89497 -6
      vertex -5 -13.15 -6
      vertex -0.900615 -8.93981 -6
    endloop
  endfacet
  facet normal 0 0 1
    outer loop
      vertex -0.949188 -8.84893 -6
      vertex -5 -13.15 -6
      vertex -0.926017 -8.89497 -6
    endloop
  endfacet
  facet normal 0 0 1
    outer loop
      vertex -0.970073 -8.80182 -6
      vertex -5 -13.15 -6
      vertex -0.949188 -8.84893 -6
    endloop
  endfacet
  facet normal 0 0 1
    outer loop
      vertex -0.988621 -8.75373 -6
      vertex -5 -13.15 -6
      vertex -0.970073 -8.80182 -6
    endloop
  endfacet
  facet normal 0 0 1
    outer loop
      vertex -1.00479 -8.7048 -6
      vertex -5 -13.15 -6
      vertex -0.988621 -8.75373 -6
    endloop
  endfacet
  facet normal 0 0 1
    outer loop
      vertex -1.01853 -8.65513 -6
      vertex -5 -13.15 -6
      vertex -1.00479 -8.7048 -6
    endloop
  endfacet
  facet normal 0 0 1
    outer loop
      vertex -1.02982 -8.60484 -6
      vertex -5 -13.15 -6
      vertex -1.01853 -8.65513 -6
    endloop
  endfacet
  facet normal 0 0 1
    outer loop
      vertex -1.03864 -8.55407 -6
      vertex -5 -13.15 -6
      vertex -1.02982 -8.60484 -6
    endloop
  endfacet
  facet normal 0 0 1
    outer loop
      vertex -1.04494 -8.50292 -6
      vertex -5 -13.15 -6
      vertex -1.03864 -8.55407 -6
    endloop
  endfacet
  facet normal 0 0 1
    outer loop
      vertex -1.04873 -8.45152 -6
      vertex -5 -13.15 -6
      vertex -1.04494 -8.50292 -6
    endloop
  endfacet
  facet normal 0 0 1
    outer loop
      vertex -5 -13.15 -6
      vertex -1.04873 -8.45152 -6
      vertex -1.05 -8.4 -6
    endloop
  endfacet
  facet normal 0 -1 0
    outer loop
      vertex -7.65 -15.15 8
      vertex -6.65 -15.15 -6
      vertex -6.65 -15.15 8
    endloop
  endfacet
  facet normal 0 -1 0
    outer loop
      vertex -6.65 -15.15 -6
      vertex -5 -15.15 -7
      vertex -5 -15.15 -6
    endloop
  endfacet
  facet normal 0 -1 -0
    outer loop
      vertex -5 -15.15 -7
      vertex -7.65 -15.15 -8
      vertex 5 -15.15 -7
    endloop
  endfacet
  facet normal 0 -1 -0
    outer loop
      vertex -6.65 -15.15 -6
      vertex -7.65 -15.15 -8
      vertex -5 -15.15 -7
    endloop
  endfacet
  facet normal 0 -1 0
    outer loop
      vertex -7.65 -15.15 -8
      vertex -6.65 -15.15 -6
      vertex -7.65 -15.15 8
    endloop
  endfacet
  facet normal 0 -1 0
    outer loop
      vertex 5 -15.15 -6
      vertex 5 -15.15 -7
      vertex 6.65 -15.15 -6
    endloop
  endfacet
  facet normal 0 -1 0
    outer loop
      vertex 6.65 -15.15 -6
      vertex 7.65 -15.15 8
      vertex 6.65 -15.15 8
    endloop
  endfacet
  facet normal 0 -1 0
    outer loop
      vertex 6.65 -15.15 -6
      vertex 7.65 -15.15 -8
      vertex 7.65 -15.15 8
    endloop
  endfacet
  facet normal 0 -1 0
    outer loop
      vertex 5 -15.15 -7
      vertex 7.65 -15.15 -8
      vertex 6.65 -15.15 -6
    endloop
  endfacet
  facet normal 0 -1 0
    outer loop
      vertex 7.65 -15.15 -8
      vertex 5 -15.15 -7
      vertex -7.65 -15.15 -8
    endloop
  endfacet
  facet normal 1 -0 0
    outer loop
      vertex -5 -15.15 -6
      vertex -5 -13.15 -7
      vertex -5 -13.15 -6
    endloop
  endfacet
  facet normal 1 0 0
    outer loop
      vertex -5 -13.15 -7
      vertex -5 -15.15 -6
      vertex -5 -15.15 -7
    endloop
  endfacet
  facet normal -1 0 0
    outer loop
      vertex 5 -15.15 -7
      vertex 5 -13.15 -6
      vertex 5 -13.15 -7
    endloop
  endfacet
  facet normal -1 -0 0
    outer loop
      vertex 5 -13.15 -6
      vertex 5 -15.15 -7
      vertex 5 -15.15 -6
    endloop
  endfacet
  facet normal -0 0 1
    outer loop
      vertex -5 -13.15 -7
      vertex 5 -15.15 -7
      vertex 5 -13.15 -7
    endloop
  endfacet
  facet normal 0 0 1
    outer loop
      vertex 5 -15.15 -7
      vertex -5 -13.15 -7
      vertex -5 -15.15 -7
    endloop
  endfacet
  facet normal 0 -1 0
    outer loop
      vertex -5 -13.15 -7
      vertex 5 -13.15 -6
      vertex -5 -13.15 -6
    endloop
  endfacet
  facet normal 0 -1 -0
    outer loop
      vertex 5 -13.15 -6
      vertex -5 -13.15 -7
      vertex 5 -13.15 -7
    endloop
  endfacet
  facet normal -1 0 0
    outer loop
      vertex -7.65 -33 -8
      vertex -7.65 -17 -7
      vertex -7.65 -17 -8
    endloop
  endfacet
  facet normal -1 -0 0
    outer loop
      vertex -7.65 -17 -7
      vertex -7.65 -33 -8
      vertex -7.65 -33 -7
    endloop
  endfacet
  facet normal 0 -1 0
    outer loop
      vertex -7.65 -33 -8
      vertex 7.65 -33 -7
      vertex -7.65 -33 -7
    endloop
  endfacet
  facet normal 0 -1 -0
    outer loop
      vertex 7.65 -33 -7
      vertex -7.65 -33 -8
      vertex 7.65 -33 -8
    endloop
  endfacet
  facet normal 1 0 0
    outer loop
      vertex 7.65 -33 -7
      vertex 7.65 -17 -8
      vertex 7.65 -17 -7
    endloop
  endfacet
  facet normal 1 0 0
    outer loop
      vertex 7.65 -17 -8
      vertex 7.65 -33 -7
      vertex 7.65 -33 -8
    endloop
  endfacet
  facet normal 2.59151e-008 5.96046e-008 1
    outer loop
      vertex 7.65 -17 -7
      vertex 4.2 -23.5 -7
      vertex 7.65 -33 -7
    endloop
  endfacet
  facet normal 0 7.33596e-008 1
    outer loop
      vertex 7.65 -17 -7
      vertex -4.2 -23.5 -7
      vertex 4.2 -23.5 -7
    endloop
  endfacet
  facet normal -2.59151e-008 5.96046e-008 1
    outer loop
      vertex -7.65 -33 -7
      vertex -4.2 -23.5 -7
      vertex -7.65 -17 -7
    endloop
  endfacet
  facet normal -0 7.33596e-008 1
    outer loop
      vertex -7.65 -17 -7
      vertex -4.2 -23.5 -7
      vertex 7.65 -17 -7
    endloop
  endfacet
  facet normal -1.38214e-007 0 1
    outer loop
      vertex 4.2 -28.5 -7
      vertex 7.65 -33 -7
      vertex 4.2 -23.5 -7
    endloop
  endfacet
  facet normal -0 1.05964e-007 1
    outer loop
      vertex -4.2 -28.5 -7
      vertex 7.65 -33 -7
      vertex 4.2 -28.5 -7
    endloop
  endfacet
  facet normal 0 1.05964e-007 1
    outer loop
      vertex -4.2 -28.5 -7
      vertex -7.65 -33 -7
      vertex 7.65 -33 -7
    endloop
  endfacet
  facet normal 1.38214e-007 0 1
    outer loop
      vertex -4.2 -23.5 -7
      vertex -7.65 -33 -7
      vertex -4.2 -28.5 -7
    endloop
  endfacet
  facet normal 0 1 -0
    outer loop
      vertex 7.65 -17 -8
      vertex -7.65 -17 -7
      vertex 7.65 -17 -7
    endloop
  endfacet
  facet normal 0 1 0
    outer loop
      vertex -7.65 -17 -7
      vertex 7.65 -17 -8
      vertex -7.65 -17 -8
    endloop
  endfacet
  facet normal 1.38214e-007 0 -1
    outer loop
      vertex 4.2 -23.5 -8
      vertex 7.65 -33 -8
      vertex 4.2 -28.5 -8
    endloop
  endfacet
  facet normal 0 -1.05964e-007 -1
    outer loop
      vertex 7.65 -33 -8
      vertex -4.2 -28.5 -8
      vertex 4.2 -28.5 -8
    endloop
  endfacet
  facet normal -1.38214e-007 0 -1
    outer loop
      vertex -4.2 -28.5 -8
      vertex -7.65 -33 -8
      vertex -4.2 -23.5 -8
    endloop
  endfacet
  facet normal 0 -1.05964e-007 -1
    outer loop
      vertex -7.65 -33 -8
      vertex -4.2 -28.5 -8
      vertex 7.65 -33 -8
    endloop
  endfacet
  facet normal -2.59151e-008 -5.96046e-008 -1
    outer loop
      vertex 7.65 -33 -8
      vertex 4.2 -23.5 -8
      vertex 7.65 -17 -8
    endloop
  endfacet
  facet normal 0 -7.33596e-008 -1
    outer loop
      vertex -4.2 -23.5 -8
      vertex 7.65 -17 -8
      vertex 4.2 -23.5 -8
    endloop
  endfacet
  facet normal 0 -7.33596e-008 -1
    outer loop
      vertex -4.2 -23.5 -8
      vertex -7.65 -17 -8
      vertex 7.65 -17 -8
    endloop
  endfacet
  facet normal 2.59151e-008 -5.96046e-008 -1
    outer loop
      vertex -7.65 -17 -8
      vertex -4.2 -23.5 -8
      vertex -7.65 -33 -8
    endloop
  endfacet
  facet normal 1 -0 0
    outer loop
      vertex -4.2 -28.5 -7
      vertex -4.2 -23.5 -8
      vertex -4.2 -23.5 -7
    endloop
  endfacet
  facet normal 1 0 0
    outer loop
      vertex -4.2 -23.5 -8
      vertex -4.2 -28.5 -7
      vertex -4.2 -28.5 -8
    endloop
  endfacet
  facet normal -1 0 0
    outer loop
      vertex 4.2 -28.5 -8
      vertex 4.2 -23.5 -7
      vertex 4.2 -23.5 -8
    endloop
  endfacet
  facet normal -1 -0 0
    outer loop
      vertex 4.2 -23.5 -7
      vertex 4.2 -28.5 -8
      vertex 4.2 -28.5 -7
    endloop
  endfacet
  facet normal 0 -1 0
    outer loop
      vertex -4.2 -23.5 -8
      vertex 4.2 -23.5 -7
      vertex -4.2 -23.5 -7
    endloop
  endfacet
  facet normal 0 -1 -0
    outer loop
      vertex 4.2 -23.5 -7
      vertex -4.2 -23.5 -8
      vertex 4.2 -23.5 -8
    endloop
  endfacet
  facet normal 0 1 -0
    outer loop
      vertex 4.2 -28.5 -8
      vertex -4.2 -28.5 -7
      vertex 4.2 -28.5 -7
    endloop
  endfacet
  facet normal 0 1 0
    outer loop
      vertex -4.2 -28.5 -7
      vertex 4.2 -28.5 -8
      vertex -4.2 -28.5 -8
    endloop
  endfacet
  facet normal 0.653173 0.757209 -0
    outer loop
      vertex 0.705136 -7.622 -6
      vertex 0.666113 -7.58834 -2.5
      vertex 0.705136 -7.622 -2.5
    endloop
  endfacet
  facet normal 0.653173 0.757209 0
    outer loop
      vertex 0.666113 -7.58834 -2.5
      vertex 0.705136 -7.622 -6
      vertex 0.666113 -7.58834 -6
    endloop
  endfacet
  facet normal -0.405237 0.914212 0
    outer loop
      vertex -0.401817 -7.42993 -6
      vertex -0.448933 -7.45081 -2.5
      vertex -0.401817 -7.42993 -2.5
    endloop
  endfacet
  facet normal -0.405237 0.914212 0
    outer loop
      vertex -0.448933 -7.45081 -2.5
      vertex -0.401817 -7.42993 -6
      vertex -0.448933 -7.45081 -6
    endloop
  endfacet
  facet normal -0.932991 0.359899 0
    outer loop
      vertex -0.988621 -8.04627 -6
      vertex -0.970073 -7.99818 -2.5
      vertex -0.970073 -7.99818 -6
    endloop
  endfacet
  facet normal -0.932991 0.359899 0
    outer loop
      vertex -0.970073 -7.99818 -2.5
      vertex -0.988621 -8.04627 -6
      vertex -0.988621 -8.04627 -2.5
    endloop
  endfacet
  facet normal 0.534993 -0.844856 0
    outer loop
      vertex 0.539807 -9.30061 -6
      vertex 0.583348 -9.27304 -2.5
      vertex 0.539807 -9.30061 -2.5
    endloop
  endfacet
  facet normal 0.534993 -0.844856 0
    outer loop
      vertex 0.583348 -9.27304 -2.5
      vertex 0.539807 -9.30061 -6
      vertex 0.583348 -9.27304 -6
    endloop
  endfacet
  facet normal -0.405252 -0.914205 0
    outer loop
      vertex -0.448933 -9.34919 -6
      vertex -0.401817 -9.37007 -2.5
      vertex -0.448933 -9.34919 -2.5
    endloop
  endfacet
  facet normal -0.405252 -0.914205 -0
    outer loop
      vertex -0.401817 -9.37007 -2.5
      vertex -0.448933 -9.34919 -6
      vertex -0.401817 -9.37007 -6
    endloop
  endfacet
  facet normal 0.949529 0.313678 0
    outer loop
      vertex 1.00479 -8.0952 -2.5
      vertex 0.988621 -8.04627 -6
      vertex 0.988621 -8.04627 -2.5
    endloop
  endfacet
  facet normal 0.949529 0.313678 0
    outer loop
      vertex 0.988621 -8.04627 -6
      vertex 1.00479 -8.0952 -2.5
      vertex 1.00479 -8.0952 -6
    endloop
  endfacet
  facet normal 0.893225 0.44961 0
    outer loop
      vertex 0.949188 -7.95107 -2.5
      vertex 0.926017 -7.90503 -6
      vertex 0.926017 -7.90503 -2.5
    endloop
  endfacet
  facet normal 0.893225 0.44961 0
    outer loop
      vertex 0.926017 -7.90503 -6
      vertex 0.949188 -7.95107 -2.5
      vertex 0.949188 -7.95107 -6
    endloop
  endfacet
  facet normal 0.359899 0.932991 -0
    outer loop
      vertex 0.401817 -7.42993 -6
      vertex 0.353734 -7.41138 -2.5
      vertex 0.401817 -7.42993 -2.5
    endloop
  endfacet
  facet normal 0.359899 0.932991 0
    outer loop
      vertex 0.353734 -7.41138 -2.5
      vertex 0.401817 -7.42993 -6
      vertex 0.353734 -7.41138 -6
    endloop
  endfacet
  facet normal -0.99248 0.122408 0
    outer loop
      vertex -1.04494 -8.29708 -6
      vertex -1.03864 -8.24593 -2.5
      vertex -1.03864 -8.24593 -6
    endloop
  endfacet
  facet normal -0.99248 0.122408 0
    outer loop
      vertex -1.03864 -8.24593 -2.5
      vertex -1.04494 -8.29708 -6
      vertex -1.04494 -8.29708 -2.5
    endloop
  endfacet
  facet normal -0.757207 0.653175 0
    outer loop
      vertex -0.811661 -7.73389 -6
      vertex -0.777998 -7.69486 -2.5
      vertex -0.777998 -7.69486 -6
    endloop
  endfacet
  facet normal -0.757207 0.653175 0
    outer loop
      vertex -0.777998 -7.69486 -2.5
      vertex -0.811661 -7.73389 -6
      vertex -0.811661 -7.73389 -2.5
    endloop
  endfacet
  facet normal -0.219097 0.975703 0
    outer loop
      vertex -0.204844 -7.37018 -6
      vertex -0.255129 -7.38147 -2.5
      vertex -0.204844 -7.37018 -2.5
    endloop
  endfacet
  facet normal -0.219097 0.975703 0
    outer loop
      vertex -0.255129 -7.38147 -2.5
      vertex -0.204844 -7.37018 -6
      vertex -0.255129 -7.38147 -6
    endloop
  endfacet
  facet normal 0.757207 -0.653175 0
    outer loop
      vertex 0.777998 -9.10514 -2.5
      vertex 0.811661 -9.06611 -6
      vertex 0.811661 -9.06611 -2.5
    endloop
  endfacet
  facet normal 0.757207 -0.653175 0
    outer loop
      vertex 0.811661 -9.06611 -6
      vertex 0.777998 -9.10514 -2.5
      vertex 0.777998 -9.10514 -6
    endloop
  endfacet
  facet normal -0.689546 -0.724242 0
    outer loop
      vertex -0.742461 -9.14246 -6
      vertex -0.705136 -9.178 -2.5
      vertex -0.742461 -9.14246 -2.5
    endloop
  endfacet
  facet normal -0.689546 -0.724242 -0
    outer loop
      vertex -0.705136 -9.178 -2.5
      vertex -0.742461 -9.14246 -6
      vertex -0.705136 -9.178 -6
    endloop
  endfacet
  facet normal -0.985277 -0.170967 0
    outer loop
      vertex -1.02982 -8.60484 -6
      vertex -1.03864 -8.55407 -2.5
      vertex -1.03864 -8.55407 -6
    endloop
  endfacet
  facet normal -0.985277 -0.170967 0
    outer loop
      vertex -1.03864 -8.55407 -2.5
      vertex -1.02982 -8.60484 -6
      vertex -1.02982 -8.60484 -2.5
    endloop
  endfacet
  facet normal 0.975703 0.219097 0
    outer loop
      vertex 1.02982 -8.19516 -2.5
      vertex 1.01853 -8.14487 -6
      vertex 1.01853 -8.14487 -2.5
    endloop
  endfacet
  facet normal 0.975703 0.219097 0
    outer loop
      vertex 1.01853 -8.14487 -6
      vertex 1.02982 -8.19516 -2.5
      vertex 1.02982 -8.19516 -6
    endloop
  endfacet
  facet normal 0.81758 0.575815 0
    outer loop
      vertex 0.873043 -7.81665 -2.5
      vertex 0.843368 -7.77452 -6
      vertex 0.843368 -7.77452 -2.5
    endloop
  endfacet
  facet normal 0.81758 0.575815 0
    outer loop
      vertex 0.843368 -7.77452 -6
      vertex 0.873043 -7.81665 -2.5
      vertex 0.873043 -7.81665 -6
    endloop
  endfacet
  facet normal 0.534993 0.844856 -0
    outer loop
      vertex 0.583348 -7.52696 -6
      vertex 0.539807 -7.49938 -2.5
      vertex 0.583348 -7.52696 -2.5
    endloop
  endfacet
  facet normal 0.534993 0.844856 0
    outer loop
      vertex 0.539807 -7.49938 -2.5
      vertex 0.583348 -7.52696 -6
      vertex 0.539807 -7.49938 -6
    endloop
  endfacet
  facet normal -0.0245377 0.999699 0
    outer loop
      vertex 0 -7.35 -6
      vertex -0.0515203 -7.35126 -2.5
      vertex 0 -7.35 -2.5
    endloop
  endfacet
  facet normal -0.0245377 0.999699 0
    outer loop
      vertex -0.0515203 -7.35126 -2.5
      vertex 0 -7.35 -6
      vertex -0.0515203 -7.35126 -6
    endloop
  endfacet
  facet normal 0.170964 0.985277 -0
    outer loop
      vertex 0.204844 -7.37018 -6
      vertex 0.154066 -7.36136 -2.5
      vertex 0.204844 -7.37018 -2.5
    endloop
  endfacet
  facet normal 0.170964 0.985277 0
    outer loop
      vertex 0.154066 -7.36136 -2.5
      vertex 0.204844 -7.37018 -6
      vertex 0.154066 -7.36136 -6
    endloop
  endfacet
  facet normal -0.999699 0.0245373 0
    outer loop
      vertex -1.05 -8.4 -6
      vertex -1.04873 -8.34848 -2.5
      vertex -1.04873 -8.34848 -6
    endloop
  endfacet
  facet normal -0.999699 0.0245373 0
    outer loop
      vertex -1.04873 -8.34848 -2.5
      vertex -1.05 -8.4 -6
      vertex -1.05 -8.4 -2.5
    endloop
  endfacet
  facet normal -0.985277 0.170967 0
    outer loop
      vertex -1.03864 -8.24593 -6
      vertex -1.02982 -8.19516 -2.5
      vertex -1.02982 -8.19516 -6
    endloop
  endfacet
  facet normal -0.985277 0.170967 0
    outer loop
      vertex -1.02982 -8.19516 -2.5
      vertex -1.03864 -8.24593 -6
      vertex -1.03864 -8.24593 -2.5
    endloop
  endfacet
  facet normal -0.844856 0.534993 0
    outer loop
      vertex -0.900615 -7.86019 -6
      vertex -0.873043 -7.81665 -2.5
      vertex -0.873043 -7.81665 -6
    endloop
  endfacet
  facet normal -0.844856 0.534993 0
    outer loop
      vertex -0.873043 -7.81665 -2.5
      vertex -0.900615 -7.86019 -6
      vertex -0.900615 -7.86019 -2.5
    endloop
  endfacet
  facet normal -0.122411 0.99248 0
    outer loop
      vertex -0.102918 -7.35506 -6
      vertex -0.154066 -7.36136 -2.5
      vertex -0.102918 -7.35506 -2.5
    endloop
  endfacet
  facet normal -0.122411 0.99248 0
    outer loop
      vertex -0.154066 -7.36136 -2.5
      vertex -0.102918 -7.35506 -6
      vertex -0.154066 -7.36136 -6
    endloop
  endfacet
  facet normal -0.575815 0.81758 0
    outer loop
      vertex -0.583348 -7.52696 -6
      vertex -0.625484 -7.55663 -2.5
      vertex -0.583348 -7.52696 -2.5
    endloop
  endfacet
  facet normal -0.575815 0.81758 0
    outer loop
      vertex -0.625484 -7.55663 -2.5
      vertex -0.583348 -7.52696 -6
      vertex -0.625484 -7.55663 -6
    endloop
  endfacet
  facet normal -0.492913 0.870079 0
    outer loop
      vertex -0.494967 -7.47398 -6
      vertex -0.539807 -7.49938 -2.5
      vertex -0.494967 -7.47398 -2.5
    endloop
  endfacet
  facet normal -0.492913 0.870079 0
    outer loop
      vertex -0.539807 -7.49938 -2.5
      vertex -0.494967 -7.47398 -6
      vertex -0.539807 -7.49938 -6
    endloop
  endfacet
  facet normal 0.999699 0.0245373 0
    outer loop
      vertex 1.05 -8.4 -2.5
      vertex 1.04873 -8.34848 -6
      vertex 1.04873 -8.34848 -2.5
    endloop
  endfacet
  facet normal 0.999699 0.0245373 0
    outer loop
      vertex 1.04873 -8.34848 -6
      vertex 1.05 -8.4 -2.5
      vertex 1.05 -8.4 -6
    endloop
  endfacet
  facet normal 0.985277 -0.170967 0
    outer loop
      vertex 1.02982 -8.60484 -2.5
      vertex 1.03864 -8.55407 -6
      vertex 1.03864 -8.55407 -2.5
    endloop
  endfacet
  facet normal 0.985277 -0.170967 0
    outer loop
      vertex 1.03864 -8.55407 -6
      vertex 1.02982 -8.60484 -2.5
      vertex 1.02982 -8.60484 -6
    endloop
  endfacet
  facet normal 0.844856 -0.534993 0
    outer loop
      vertex 0.873043 -8.98335 -2.5
      vertex 0.900615 -8.93981 -6
      vertex 0.900615 -8.93981 -2.5
    endloop
  endfacet
  facet normal 0.844856 -0.534993 0
    outer loop
      vertex 0.900615 -8.93981 -6
      vertex 0.873043 -8.98335 -2.5
      vertex 0.873043 -8.98335 -6
    endloop
  endfacet
  facet normal -0.0245562 -0.999698 0
    outer loop
      vertex -0.0515203 -9.44873 -6
      vertex 0 -9.45 -2.5
      vertex -0.0515203 -9.44873 -2.5
    endloop
  endfacet
  facet normal -0.0245562 -0.999698 -0
    outer loop
      vertex 0 -9.45 -2.5
      vertex -0.0515203 -9.44873 -6
      vertex 0 -9.45 -6
    endloop
  endfacet
  facet normal 0.99248 0.122408 0
    outer loop
      vertex 1.04494 -8.29708 -2.5
      vertex 1.03864 -8.24593 -6
      vertex 1.03864 -8.24593 -2.5
    endloop
  endfacet
  facet normal 0.99248 0.122408 0
    outer loop
      vertex 1.03864 -8.24593 -6
      vertex 1.04494 -8.29708 -2.5
      vertex 1.04494 -8.29708 -6
    endloop
  endfacet
  facet normal 0.997291 0.0735574 0
    outer loop
      vertex 1.04873 -8.34848 -2.5
      vertex 1.04494 -8.29708 -6
      vertex 1.04494 -8.29708 -2.5
    endloop
  endfacet
  facet normal 0.997291 0.0735574 0
    outer loop
      vertex 1.04494 -8.29708 -6
      vertex 1.04873 -8.34848 -2.5
      vertex 1.04873 -8.34848 -6
    endloop
  endfacet
  facet normal 0.985277 0.170967 0
    outer loop
      vertex 1.03864 -8.24593 -2.5
      vertex 1.02982 -8.19516 -6
      vertex 1.02982 -8.19516 -2.5
    endloop
  endfacet
  facet normal 0.985277 0.170967 0
    outer loop
      vertex 1.02982 -8.19516 -6
      vertex 1.03864 -8.24593 -2.5
      vertex 1.03864 -8.24593 -6
    endloop
  endfacet
  facet normal 0.914212 0.405237 0
    outer loop
      vertex 0.970073 -7.99818 -2.5
      vertex 0.949188 -7.95107 -6
      vertex 0.949188 -7.95107 -2.5
    endloop
  endfacet
  facet normal 0.914212 0.405237 0
    outer loop
      vertex 0.949188 -7.95107 -6
      vertex 0.970073 -7.99818 -2.5
      vertex 0.970073 -7.99818 -6
    endloop
  endfacet
  facet normal 0.932991 0.359899 0
    outer loop
      vertex 0.988621 -8.04627 -2.5
      vertex 0.970073 -7.99818 -6
      vertex 0.970073 -7.99818 -2.5
    endloop
  endfacet
  facet normal 0.932991 0.359899 0
    outer loop
      vertex 0.970073 -7.99818 -6
      vertex 0.988621 -8.04627 -2.5
      vertex 0.988621 -8.04627 -6
    endloop
  endfacet
  facet normal 0.963773 0.266725 0
    outer loop
      vertex 1.01853 -8.14487 -2.5
      vertex 1.00479 -8.0952 -6
      vertex 1.00479 -8.0952 -2.5
    endloop
  endfacet
  facet normal 0.963773 0.266725 0
    outer loop
      vertex 1.00479 -8.0952 -6
      vertex 1.01853 -8.14487 -2.5
      vertex 1.01853 -8.14487 -6
    endloop
  endfacet
  facet normal 0.870091 0.492891 0
    outer loop
      vertex 0.926017 -7.90503 -2.5
      vertex 0.900615 -7.86019 -6
      vertex 0.900615 -7.86019 -2.5
    endloop
  endfacet
  facet normal 0.870091 0.492891 0
    outer loop
      vertex 0.900615 -7.86019 -6
      vertex 0.926017 -7.90503 -2.5
      vertex 0.926017 -7.90503 -6
    endloop
  endfacet
  facet normal 0.844856 0.534993 0
    outer loop
      vertex 0.900615 -7.86019 -2.5
      vertex 0.873043 -7.81665 -6
      vertex 0.873043 -7.81665 -2.5
    endloop
  endfacet
  facet normal 0.844856 0.534993 0
    outer loop
      vertex 0.873043 -7.81665 -6
      vertex 0.900615 -7.86019 -2.5
      vertex 0.900615 -7.86019 -6
    endloop
  endfacet
  facet normal 0.757207 0.653175 0
    outer loop
      vertex 0.811661 -7.73389 -2.5
      vertex 0.777998 -7.69486 -6
      vertex 0.777998 -7.69486 -2.5
    endloop
  endfacet
  facet normal 0.757207 0.653175 0
    outer loop
      vertex 0.777998 -7.69486 -6
      vertex 0.811661 -7.73389 -2.5
      vertex 0.811661 -7.73389 -6
    endloop
  endfacet
  facet normal 0.724242 0.689546 0
    outer loop
      vertex 0.777998 -7.69486 -2.5
      vertex 0.742461 -7.65754 -6
      vertex 0.742461 -7.65754 -2.5
    endloop
  endfacet
  facet normal 0.724242 0.689546 0
    outer loop
      vertex 0.742461 -7.65754 -6
      vertex 0.777998 -7.69486 -2.5
      vertex 0.777998 -7.69486 -6
    endloop
  endfacet
  facet normal 0.788346 0.615232 0
    outer loop
      vertex 0.843368 -7.77452 -2.5
      vertex 0.811661 -7.73389 -6
      vertex 0.811661 -7.73389 -2.5
    endloop
  endfacet
  facet normal 0.788346 0.615232 0
    outer loop
      vertex 0.811661 -7.73389 -6
      vertex 0.843368 -7.77452 -2.5
      vertex 0.843368 -7.77452 -6
    endloop
  endfacet
  facet normal 0.689546 0.724242 -0
    outer loop
      vertex 0.742461 -7.65754 -6
      vertex 0.705136 -7.622 -2.5
      vertex 0.742461 -7.65754 -2.5
    endloop
  endfacet
  facet normal 0.689546 0.724242 0
    outer loop
      vertex 0.705136 -7.622 -2.5
      vertex 0.742461 -7.65754 -6
      vertex 0.705136 -7.622 -6
    endloop
  endfacet
  facet normal 0.615223 0.788353 -0
    outer loop
      vertex 0.666113 -7.58834 -6
      vertex 0.625484 -7.55663 -2.5
      vertex 0.666113 -7.58834 -2.5
    endloop
  endfacet
  facet normal 0.615223 0.788353 0
    outer loop
      vertex 0.625484 -7.55663 -2.5
      vertex 0.666113 -7.58834 -6
      vertex 0.625484 -7.55663 -6
    endloop
  endfacet
  facet normal 0.0735745 0.99729 -0
    outer loop
      vertex 0.102918 -7.35506 -6
      vertex 0.0515203 -7.35126 -2.5
      vertex 0.102918 -7.35506 -2.5
    endloop
  endfacet
  facet normal 0.0735745 0.99729 0
    outer loop
      vertex 0.0515203 -7.35126 -2.5
      vertex 0.102918 -7.35506 -6
      vertex 0.0515203 -7.35126 -6
    endloop
  endfacet
  facet normal 0.575815 0.81758 -0
    outer loop
      vertex 0.625484 -7.55663 -6
      vertex 0.583348 -7.52696 -2.5
      vertex 0.625484 -7.55663 -2.5
    endloop
  endfacet
  facet normal 0.575815 0.81758 0
    outer loop
      vertex 0.583348 -7.52696 -2.5
      vertex 0.625484 -7.55663 -6
      vertex 0.583348 -7.52696 -6
    endloop
  endfacet
  facet normal 0.44961 0.893225 -0
    outer loop
      vertex 0.494967 -7.47398 -6
      vertex 0.448933 -7.45081 -2.5
      vertex 0.494967 -7.47398 -2.5
    endloop
  endfacet
  facet normal 0.44961 0.893225 0
    outer loop
      vertex 0.448933 -7.45081 -2.5
      vertex 0.494967 -7.47398 -6
      vertex 0.448933 -7.45081 -6
    endloop
  endfacet
  facet normal 0.405237 0.914212 -0
    outer loop
      vertex 0.448933 -7.45081 -6
      vertex 0.401817 -7.42993 -2.5
      vertex 0.448933 -7.45081 -2.5
    endloop
  endfacet
  facet normal 0.405237 0.914212 0
    outer loop
      vertex 0.401817 -7.42993 -2.5
      vertex 0.448933 -7.45081 -6
      vertex 0.401817 -7.42993 -6
    endloop
  endfacet
  facet normal 0.492913 0.870079 -0
    outer loop
      vertex 0.539807 -7.49938 -6
      vertex 0.494967 -7.47398 -2.5
      vertex 0.539807 -7.49938 -2.5
    endloop
  endfacet
  facet normal 0.492913 0.870079 0
    outer loop
      vertex 0.494967 -7.47398 -2.5
      vertex 0.539807 -7.49938 -6
      vertex 0.494967 -7.47398 -6
    endloop
  endfacet
  facet normal 0.266712 0.963776 -0
    outer loop
      vertex 0.304798 -7.39521 -6
      vertex 0.255129 -7.38147 -2.5
      vertex 0.304798 -7.39521 -2.5
    endloop
  endfacet
  facet normal 0.266712 0.963776 0
    outer loop
      vertex 0.255129 -7.38147 -2.5
      vertex 0.304798 -7.39521 -6
      vertex 0.255129 -7.38147 -6
    endloop
  endfacet
  facet normal 0.313673 0.949531 -0
    outer loop
      vertex 0.353734 -7.41138 -6
      vertex 0.304798 -7.39521 -2.5
      vertex 0.353734 -7.41138 -2.5
    endloop
  endfacet
  facet normal 0.313673 0.949531 0
    outer loop
      vertex 0.304798 -7.39521 -2.5
      vertex 0.353734 -7.41138 -6
      vertex 0.304798 -7.39521 -6
    endloop
  endfacet
  facet normal 0.122411 0.99248 -0
    outer loop
      vertex 0.154066 -7.36136 -6
      vertex 0.102918 -7.35506 -2.5
      vertex 0.154066 -7.36136 -2.5
    endloop
  endfacet
  facet normal 0.122411 0.99248 0
    outer loop
      vertex 0.102918 -7.35506 -2.5
      vertex 0.154066 -7.36136 -6
      vertex 0.102918 -7.35506 -6
    endloop
  endfacet
  facet normal 0.0245377 0.999699 -0
    outer loop
      vertex 0.0515203 -7.35126 -6
      vertex 0 -7.35 -2.5
      vertex 0.0515203 -7.35126 -2.5
    endloop
  endfacet
  facet normal 0.0245377 0.999699 0
    outer loop
      vertex 0 -7.35 -2.5
      vertex 0.0515203 -7.35126 -6
      vertex 0 -7.35 -6
    endloop
  endfacet
  facet normal 0.219097 0.975703 -0
    outer loop
      vertex 0.255129 -7.38147 -6
      vertex 0.204844 -7.37018 -2.5
      vertex 0.255129 -7.38147 -2.5
    endloop
  endfacet
  facet normal 0.219097 0.975703 0
    outer loop
      vertex 0.204844 -7.37018 -2.5
      vertex 0.255129 -7.38147 -6
      vertex 0.204844 -7.37018 -6
    endloop
  endfacet
  facet normal -0.963773 0.266725 0
    outer loop
      vertex -1.01853 -8.14487 -6
      vertex -1.00479 -8.0952 -2.5
      vertex -1.00479 -8.0952 -6
    endloop
  endfacet
  facet normal -0.963773 0.266725 0
    outer loop
      vertex -1.00479 -8.0952 -2.5
      vertex -1.01853 -8.14487 -6
      vertex -1.01853 -8.14487 -2.5
    endloop
  endfacet
  facet normal -0.949529 0.313678 0
    outer loop
      vertex -1.00479 -8.0952 -6
      vertex -0.988621 -8.04627 -2.5
      vertex -0.988621 -8.04627 -6
    endloop
  endfacet
  facet normal -0.949529 0.313678 0
    outer loop
      vertex -0.988621 -8.04627 -2.5
      vertex -1.00479 -8.0952 -6
      vertex -1.00479 -8.0952 -2.5
    endloop
  endfacet
  facet normal -0.997291 0.0735574 0
    outer loop
      vertex -1.04873 -8.34848 -6
      vertex -1.04494 -8.29708 -2.5
      vertex -1.04494 -8.29708 -6
    endloop
  endfacet
  facet normal -0.997291 0.0735574 0
    outer loop
      vertex -1.04494 -8.29708 -2.5
      vertex -1.04873 -8.34848 -6
      vertex -1.04873 -8.34848 -2.5
    endloop
  endfacet
  facet normal 0 0 1
    outer loop
      vertex 1.04873 -8.34848 -2.5
      vertex 1.04873 -8.45152 -2.5
      vertex 1.05 -8.4 -2.5
    endloop
  endfacet
  facet normal 0 0 1
    outer loop
      vertex 1.04494 -8.29708 -2.5
      vertex 1.04873 -8.45152 -2.5
      vertex 1.04873 -8.34848 -2.5
    endloop
  endfacet
  facet normal 0 0 1
    outer loop
      vertex 1.04494 -8.29708 -2.5
      vertex 1.04494 -8.50292 -2.5
      vertex 1.04873 -8.45152 -2.5
    endloop
  endfacet
  facet normal 0 0 1
    outer loop
      vertex 1.03864 -8.24593 -2.5
      vertex 1.04494 -8.50292 -2.5
      vertex 1.04494 -8.29708 -2.5
    endloop
  endfacet
  facet normal 0 0 1
    outer loop
      vertex 1.03864 -8.24593 -2.5
      vertex 1.03864 -8.55407 -2.5
      vertex 1.04494 -8.50292 -2.5
    endloop
  endfacet
  facet normal 0 0 1
    outer loop
      vertex 1.02982 -8.19516 -2.5
      vertex 1.03864 -8.55407 -2.5
      vertex 1.03864 -8.24593 -2.5
    endloop
  endfacet
  facet normal 0 0 1
    outer loop
      vertex 1.02982 -8.19516 -2.5
      vertex 1.02982 -8.60484 -2.5
      vertex 1.03864 -8.55407 -2.5
    endloop
  endfacet
  facet normal 0 0 1
    outer loop
      vertex 1.01853 -8.14487 -2.5
      vertex 1.02982 -8.60484 -2.5
      vertex 1.02982 -8.19516 -2.5
    endloop
  endfacet
  facet normal 0 0 1
    outer loop
      vertex 1.01853 -8.14487 -2.5
      vertex 1.01853 -8.65513 -2.5
      vertex 1.02982 -8.60484 -2.5
    endloop
  endfacet
  facet normal 0 0 1
    outer loop
      vertex 1.00479 -8.0952 -2.5
      vertex 1.01853 -8.65513 -2.5
      vertex 1.01853 -8.14487 -2.5
    endloop
  endfacet
  facet normal 0 0 1
    outer loop
      vertex 1.00479 -8.0952 -2.5
      vertex 1.00479 -8.7048 -2.5
      vertex 1.01853 -8.65513 -2.5
    endloop
  endfacet
  facet normal 0 0 1
    outer loop
      vertex 0.988621 -8.04627 -2.5
      vertex 1.00479 -8.7048 -2.5
      vertex 1.00479 -8.0952 -2.5
    endloop
  endfacet
  facet normal 0 0 1
    outer loop
      vertex 0.988621 -8.04627 -2.5
      vertex 0.988621 -8.75373 -2.5
      vertex 1.00479 -8.7048 -2.5
    endloop
  endfacet
  facet normal 0 0 1
    outer loop
      vertex 0.970073 -7.99818 -2.5
      vertex 0.988621 -8.75373 -2.5
      vertex 0.988621 -8.04627 -2.5
    endloop
  endfacet
  facet normal 0 0 1
    outer loop
      vertex 0.970073 -7.99818 -2.5
      vertex 0.970073 -8.80182 -2.5
      vertex 0.988621 -8.75373 -2.5
    endloop
  endfacet
  facet normal 0 0 1
    outer loop
      vertex 0.949188 -7.95107 -2.5
      vertex 0.970073 -8.80182 -2.5
      vertex 0.970073 -7.99818 -2.5
    endloop
  endfacet
  facet normal 0 0 1
    outer loop
      vertex 0.949188 -7.95107 -2.5
      vertex 0.949188 -8.84893 -2.5
      vertex 0.970073 -8.80182 -2.5
    endloop
  endfacet
  facet normal 0 0 1
    outer loop
      vertex 0.926017 -7.90503 -2.5
      vertex 0.949188 -8.84893 -2.5
      vertex 0.949188 -7.95107 -2.5
    endloop
  endfacet
  facet normal 0 0 1
    outer loop
      vertex 0.926017 -7.90503 -2.5
      vertex 0.926017 -8.89497 -2.5
      vertex 0.949188 -8.84893 -2.5
    endloop
  endfacet
  facet normal 0 0 1
    outer loop
      vertex 0.900615 -7.86019 -2.5
      vertex 0.926017 -8.89497 -2.5
      vertex 0.926017 -7.90503 -2.5
    endloop
  endfacet
  facet normal 0 0 1
    outer loop
      vertex 0.900615 -7.86019 -2.5
      vertex 0.900615 -8.93981 -2.5
      vertex 0.926017 -8.89497 -2.5
    endloop
  endfacet
  facet normal 0 0 1
    outer loop
      vertex 0.873043 -7.81665 -2.5
      vertex 0.900615 -8.93981 -2.5
      vertex 0.900615 -7.86019 -2.5
    endloop
  endfacet
  facet normal 0 0 1
    outer loop
      vertex 0.873043 -7.81665 -2.5
      vertex 0.873043 -8.98335 -2.5
      vertex 0.900615 -8.93981 -2.5
    endloop
  endfacet
  facet normal 0 0 1
    outer loop
      vertex 0.843368 -7.77452 -2.5
      vertex 0.873043 -8.98335 -2.5
      vertex 0.873043 -7.81665 -2.5
    endloop
  endfacet
  facet normal 0 0 1
    outer loop
      vertex 0.843368 -7.77452 -2.5
      vertex 0.843368 -9.02548 -2.5
      vertex 0.873043 -8.98335 -2.5
    endloop
  endfacet
  facet normal 0 0 1
    outer loop
      vertex 0.811661 -7.73389 -2.5
      vertex 0.843368 -9.02548 -2.5
      vertex 0.843368 -7.77452 -2.5
    endloop
  endfacet
  facet normal 0 0 1
    outer loop
      vertex 0.811661 -7.73389 -2.5
      vertex 0.811661 -9.06611 -2.5
      vertex 0.843368 -9.02548 -2.5
    endloop
  endfacet
  facet normal 0 0 1
    outer loop
      vertex 0.777998 -7.69486 -2.5
      vertex 0.811661 -9.06611 -2.5
      vertex 0.811661 -7.73389 -2.5
    endloop
  endfacet
  facet normal 0 0 1
    outer loop
      vertex 0.777998 -7.69486 -2.5
      vertex 0.777998 -9.10514 -2.5
      vertex 0.811661 -9.06611 -2.5
    endloop
  endfacet
  facet normal 0 0 1
    outer loop
      vertex 0.742461 -7.65754 -2.5
      vertex 0.777998 -9.10514 -2.5
      vertex 0.777998 -7.69486 -2.5
    endloop
  endfacet
  facet normal 0 0 1
    outer loop
      vertex 0.742461 -7.65754 -2.5
      vertex 0.742461 -9.14246 -2.5
      vertex 0.777998 -9.10514 -2.5
    endloop
  endfacet
  facet normal 0 0 1
    outer loop
      vertex 0.705136 -7.622 -2.5
      vertex 0.742461 -9.14246 -2.5
      vertex 0.742461 -7.65754 -2.5
    endloop
  endfacet
  facet normal 0 0 1
    outer loop
      vertex 0.705136 -7.622 -2.5
      vertex 0.705136 -9.178 -2.5
      vertex 0.742461 -9.14246 -2.5
    endloop
  endfacet
  facet normal 0 0 1
    outer loop
      vertex 0.666113 -7.58834 -2.5
      vertex 0.705136 -9.178 -2.5
      vertex 0.705136 -7.622 -2.5
    endloop
  endfacet
  facet normal 0 0 1
    outer loop
      vertex 0.666113 -7.58834 -2.5
      vertex 0.666113 -9.21166 -2.5
      vertex 0.705136 -9.178 -2.5
    endloop
  endfacet
  facet normal 0 0 1
    outer loop
      vertex 0.625484 -7.55663 -2.5
      vertex 0.666113 -9.21166 -2.5
      vertex 0.666113 -7.58834 -2.5
    endloop
  endfacet
  facet normal 0 0 1
    outer loop
      vertex 0.625484 -7.55663 -2.5
      vertex 0.625484 -9.24337 -2.5
      vertex 0.666113 -9.21166 -2.5
    endloop
  endfacet
  facet normal 0 0 1
    outer loop
      vertex 0.583348 -7.52696 -2.5
      vertex 0.625484 -9.24337 -2.5
      vertex 0.625484 -7.55663 -2.5
    endloop
  endfacet
  facet normal 0 0 1
    outer loop
      vertex 0.583348 -7.52696 -2.5
      vertex 0.583348 -9.27304 -2.5
      vertex 0.625484 -9.24337 -2.5
    endloop
  endfacet
  facet normal 0 0 1
    outer loop
      vertex 0.539807 -7.49938 -2.5
      vertex 0.583348 -9.27304 -2.5
      vertex 0.583348 -7.52696 -2.5
    endloop
  endfacet
  facet normal 0 0 1
    outer loop
      vertex 0.539807 -7.49938 -2.5
      vertex 0.539807 -9.30061 -2.5
      vertex 0.583348 -9.27304 -2.5
    endloop
  endfacet
  facet normal 0 0 1
    outer loop
      vertex 0.494967 -7.47398 -2.5
      vertex 0.539807 -9.30061 -2.5
      vertex 0.539807 -7.49938 -2.5
    endloop
  endfacet
  facet normal 0 0 1
    outer loop
      vertex 0.494967 -7.47398 -2.5
      vertex 0.494967 -9.32602 -2.5
      vertex 0.539807 -9.30061 -2.5
    endloop
  endfacet
  facet normal 0 0 1
    outer loop
      vertex 0.448933 -7.45081 -2.5
      vertex 0.494967 -9.32602 -2.5
      vertex 0.494967 -7.47398 -2.5
    endloop
  endfacet
  facet normal 0 0 1
    outer loop
      vertex 0.448933 -7.45081 -2.5
      vertex 0.448933 -9.34919 -2.5
      vertex 0.494967 -9.32602 -2.5
    endloop
  endfacet
  facet normal 0 0 1
    outer loop
      vertex 0.401817 -7.42993 -2.5
      vertex 0.448933 -9.34919 -2.5
      vertex 0.448933 -7.45081 -2.5
    endloop
  endfacet
  facet normal 0 0 1
    outer loop
      vertex 0.401817 -7.42993 -2.5
      vertex 0.401817 -9.37007 -2.5
      vertex 0.448933 -9.34919 -2.5
    endloop
  endfacet
  facet normal 0 0 1
    outer loop
      vertex 0.353734 -7.41138 -2.5
      vertex 0.401817 -9.37007 -2.5
      vertex 0.401817 -7.42993 -2.5
    endloop
  endfacet
  facet normal 0 0 1
    outer loop
      vertex 0.353734 -7.41138 -2.5
      vertex 0.353734 -9.38862 -2.5
      vertex 0.401817 -9.37007 -2.5
    endloop
  endfacet
  facet normal 0 0 1
    outer loop
      vertex 0.304798 -7.39521 -2.5
      vertex 0.353734 -9.38862 -2.5
      vertex 0.353734 -7.41138 -2.5
    endloop
  endfacet
  facet normal 0 0 1
    outer loop
      vertex 0.304798 -7.39521 -2.5
      vertex 0.304798 -9.40479 -2.5
      vertex 0.353734 -9.38862 -2.5
    endloop
  endfacet
  facet normal 0 0 1
    outer loop
      vertex 0.255129 -7.38147 -2.5
      vertex 0.304798 -9.40479 -2.5
      vertex 0.304798 -7.39521 -2.5
    endloop
  endfacet
  facet normal 0 0 1
    outer loop
      vertex 0.255129 -7.38147 -2.5
      vertex 0.255129 -9.41853 -2.5
      vertex 0.304798 -9.40479 -2.5
    endloop
  endfacet
  facet normal 0 0 1
    outer loop
      vertex 0.204844 -7.37018 -2.5
      vertex 0.255129 -9.41853 -2.5
      vertex 0.255129 -7.38147 -2.5
    endloop
  endfacet
  facet normal 0 0 1
    outer loop
      vertex 0.204844 -7.37018 -2.5
      vertex 0.204844 -9.42982 -2.5
      vertex 0.255129 -9.41853 -2.5
    endloop
  endfacet
  facet normal 0 0 1
    outer loop
      vertex 0.154066 -7.36136 -2.5
      vertex 0.204844 -9.42982 -2.5
      vertex 0.204844 -7.37018 -2.5
    endloop
  endfacet
  facet normal 0 0 1
    outer loop
      vertex 0.154066 -7.36136 -2.5
      vertex 0.154066 -9.43863 -2.5
      vertex 0.204844 -9.42982 -2.5
    endloop
  endfacet
  facet normal 0 0 1
    outer loop
      vertex 0.102918 -7.35506 -2.5
      vertex 0.154066 -9.43863 -2.5
      vertex 0.154066 -7.36136 -2.5
    endloop
  endfacet
  facet normal 0 0 1
    outer loop
      vertex 0.102918 -7.35506 -2.5
      vertex 0.102918 -9.44494 -2.5
      vertex 0.154066 -9.43863 -2.5
    endloop
  endfacet
  facet normal 0 0 1
    outer loop
      vertex 0.0515203 -7.35126 -2.5
      vertex 0.102918 -9.44494 -2.5
      vertex 0.102918 -7.35506 -2.5
    endloop
  endfacet
  facet normal 0 0 1
    outer loop
      vertex 0.0515203 -7.35126 -2.5
      vertex 0.0515203 -9.44873 -2.5
      vertex 0.102918 -9.44494 -2.5
    endloop
  endfacet
  facet normal 0 0 1
    outer loop
      vertex 0 -7.35 -2.5
      vertex 0.0515203 -9.44873 -2.5
      vertex 0.0515203 -7.35126 -2.5
    endloop
  endfacet
  facet normal 0 0 1
    outer loop
      vertex 0 -7.35 -2.5
      vertex 0 -9.45 -2.5
      vertex 0.0515203 -9.44873 -2.5
    endloop
  endfacet
  facet normal -0 0 1
    outer loop
      vertex -0.0515203 -7.35126 -2.5
      vertex 0 -9.45 -2.5
      vertex 0 -7.35 -2.5
    endloop
  endfacet
  facet normal 0 0 1
    outer loop
      vertex -0.0515203 -7.35126 -2.5
      vertex -0.0515203 -9.44873 -2.5
      vertex 0 -9.45 -2.5
    endloop
  endfacet
  facet normal -0 0 1
    outer loop
      vertex -0.102918 -7.35506 -2.5
      vertex -0.0515203 -9.44873 -2.5
      vertex -0.0515203 -7.35126 -2.5
    endloop
  endfacet
  facet normal 0 0 1
    outer loop
      vertex -0.102918 -7.35506 -2.5
      vertex -0.102918 -9.44494 -2.5
      vertex -0.0515203 -9.44873 -2.5
    endloop
  endfacet
  facet normal -0 0 1
    outer loop
      vertex -0.154066 -7.36136 -2.5
      vertex -0.102918 -9.44494 -2.5
      vertex -0.102918 -7.35506 -2.5
    endloop
  endfacet
  facet normal 0 0 1
    outer loop
      vertex -0.154066 -7.36136 -2.5
      vertex -0.154066 -9.43863 -2.5
      vertex -0.102918 -9.44494 -2.5
    endloop
  endfacet
  facet normal -0 0 1
    outer loop
      vertex -0.204844 -7.37018 -2.5
      vertex -0.154066 -9.43863 -2.5
      vertex -0.154066 -7.36136 -2.5
    endloop
  endfacet
  facet normal 0 0 1
    outer loop
      vertex -0.204844 -7.37018 -2.5
      vertex -0.204844 -9.42982 -2.5
      vertex -0.154066 -9.43863 -2.5
    endloop
  endfacet
  facet normal -0 0 1
    outer loop
      vertex -0.255129 -7.38147 -2.5
      vertex -0.204844 -9.42982 -2.5
      vertex -0.204844 -7.37018 -2.5
    endloop
  endfacet
  facet normal 0 0 1
    outer loop
      vertex -0.255129 -7.38147 -2.5
      vertex -0.255129 -9.41853 -2.5
      vertex -0.204844 -9.42982 -2.5
    endloop
  endfacet
  facet normal -0 0 1
    outer loop
      vertex -0.304798 -7.39521 -2.5
      vertex -0.255129 -9.41853 -2.5
      vertex -0.255129 -7.38147 -2.5
    endloop
  endfacet
  facet normal 0 0 1
    outer loop
      vertex -0.304798 -7.39521 -2.5
      vertex -0.304798 -9.40479 -2.5
      vertex -0.255129 -9.41853 -2.5
    endloop
  endfacet
  facet normal -0 0 1
    outer loop
      vertex -0.353734 -7.41138 -2.5
      vertex -0.304798 -9.40479 -2.5
      vertex -0.304798 -7.39521 -2.5
    endloop
  endfacet
  facet normal 0 0 1
    outer loop
      vertex -0.353734 -7.41138 -2.5
      vertex -0.353734 -9.38862 -2.5
      vertex -0.304798 -9.40479 -2.5
    endloop
  endfacet
  facet normal -0 0 1
    outer loop
      vertex -0.401817 -7.42993 -2.5
      vertex -0.353734 -9.38862 -2.5
      vertex -0.353734 -7.41138 -2.5
    endloop
  endfacet
  facet normal 0 0 1
    outer loop
      vertex -0.401817 -7.42993 -2.5
      vertex -0.401817 -9.37007 -2.5
      vertex -0.353734 -9.38862 -2.5
    endloop
  endfacet
  facet normal -0 0 1
    outer loop
      vertex -0.448933 -7.45081 -2.5
      vertex -0.401817 -9.37007 -2.5
      vertex -0.401817 -7.42993 -2.5
    endloop
  endfacet
  facet normal 0 0 1
    outer loop
      vertex -0.448933 -7.45081 -2.5
      vertex -0.448933 -9.34919 -2.5
      vertex -0.401817 -9.37007 -2.5
    endloop
  endfacet
  facet normal -0 0 1
    outer loop
      vertex -0.494967 -7.47398 -2.5
      vertex -0.448933 -9.34919 -2.5
      vertex -0.448933 -7.45081 -2.5
    endloop
  endfacet
  facet normal 0 0 1
    outer loop
      vertex -0.494967 -7.47398 -2.5
      vertex -0.494967 -9.32602 -2.5
      vertex -0.448933 -9.34919 -2.5
    endloop
  endfacet
  facet normal -0 0 1
    outer loop
      vertex -0.539807 -7.49938 -2.5
      vertex -0.494967 -9.32602 -2.5
      vertex -0.494967 -7.47398 -2.5
    endloop
  endfacet
  facet normal 0 0 1
    outer loop
      vertex -0.539807 -7.49938 -2.5
      vertex -0.539807 -9.30061 -2.5
      vertex -0.494967 -9.32602 -2.5
    endloop
  endfacet
  facet normal -0 0 1
    outer loop
      vertex -0.583348 -7.52696 -2.5
      vertex -0.539807 -9.30061 -2.5
      vertex -0.539807 -7.49938 -2.5
    endloop
  endfacet
  facet normal 0 0 1
    outer loop
      vertex -0.583348 -7.52696 -2.5
      vertex -0.583348 -9.27304 -2.5
      vertex -0.539807 -9.30061 -2.5
    endloop
  endfacet
  facet normal -0 0 1
    outer loop
      vertex -0.625484 -7.55663 -2.5
      vertex -0.583348 -9.27304 -2.5
      vertex -0.583348 -7.52696 -2.5
    endloop
  endfacet
  facet normal 0 0 1
    outer loop
      vertex -0.625484 -7.55663 -2.5
      vertex -0.625484 -9.24337 -2.5
      vertex -0.583348 -9.27304 -2.5
    endloop
  endfacet
  facet normal -0 0 1
    outer loop
      vertex -0.666113 -7.58834 -2.5
      vertex -0.625484 -9.24337 -2.5
      vertex -0.625484 -7.55663 -2.5
    endloop
  endfacet
  facet normal 0 0 1
    outer loop
      vertex -0.666113 -7.58834 -2.5
      vertex -0.666113 -9.21166 -2.5
      vertex -0.625484 -9.24337 -2.5
    endloop
  endfacet
  facet normal -0 0 1
    outer loop
      vertex -0.705136 -7.622 -2.5
      vertex -0.666113 -9.21166 -2.5
      vertex -0.666113 -7.58834 -2.5
    endloop
  endfacet
  facet normal 0 0 1
    outer loop
      vertex -0.705136 -7.622 -2.5
      vertex -0.705136 -9.178 -2.5
      vertex -0.666113 -9.21166 -2.5
    endloop
  endfacet
  facet normal -0 0 1
    outer loop
      vertex -0.742461 -7.65754 -2.5
      vertex -0.705136 -9.178 -2.5
      vertex -0.705136 -7.622 -2.5
    endloop
  endfacet
  facet normal 0 0 1
    outer loop
      vertex -0.742461 -7.65754 -2.5
      vertex -0.742461 -9.14246 -2.5
      vertex -0.705136 -9.178 -2.5
    endloop
  endfacet
  facet normal -0 0 1
    outer loop
      vertex -0.777998 -7.69486 -2.5
      vertex -0.742461 -9.14246 -2.5
      vertex -0.742461 -7.65754 -2.5
    endloop
  endfacet
  facet normal 0 0 1
    outer loop
      vertex -0.777998 -7.69486 -2.5
      vertex -0.777998 -9.10514 -2.5
      vertex -0.742461 -9.14246 -2.5
    endloop
  endfacet
  facet normal -0 0 1
    outer loop
      vertex -0.811661 -7.73389 -2.5
      vertex -0.777998 -9.10514 -2.5
      vertex -0.777998 -7.69486 -2.5
    endloop
  endfacet
  facet normal 0 0 1
    outer loop
      vertex -0.811661 -7.73389 -2.5
      vertex -0.811661 -9.06611 -2.5
      vertex -0.777998 -9.10514 -2.5
    endloop
  endfacet
  facet normal -0 0 1
    outer loop
      vertex -0.843368 -7.77452 -2.5
      vertex -0.811661 -9.06611 -2.5
      vertex -0.811661 -7.73389 -2.5
    endloop
  endfacet
  facet normal 0 0 1
    outer loop
      vertex -0.843368 -7.77452 -2.5
      vertex -0.843368 -9.02548 -2.5
      vertex -0.811661 -9.06611 -2.5
    endloop
  endfacet
  facet normal -0 0 1
    outer loop
      vertex -0.873043 -7.81665 -2.5
      vertex -0.843368 -9.02548 -2.5
      vertex -0.843368 -7.77452 -2.5
    endloop
  endfacet
  facet normal 0 0 1
    outer loop
      vertex -0.873043 -7.81665 -2.5
      vertex -0.873043 -8.98335 -2.5
      vertex -0.843368 -9.02548 -2.5
    endloop
  endfacet
  facet normal -0 0 1
    outer loop
      vertex -0.900615 -7.86019 -2.5
      vertex -0.873043 -8.98335 -2.5
      vertex -0.873043 -7.81665 -2.5
    endloop
  endfacet
  facet normal 0 0 1
    outer loop
      vertex -0.900615 -7.86019 -2.5
      vertex -0.900615 -8.93981 -2.5
      vertex -0.873043 -8.98335 -2.5
    endloop
  endfacet
  facet normal -0 0 1
    outer loop
      vertex -0.926017 -7.90503 -2.5
      vertex -0.900615 -8.93981 -2.5
      vertex -0.900615 -7.86019 -2.5
    endloop
  endfacet
  facet normal 0 0 1
    outer loop
      vertex -0.926017 -7.90503 -2.5
      vertex -0.926017 -8.89497 -2.5
      vertex -0.900615 -8.93981 -2.5
    endloop
  endfacet
  facet normal -0 0 1
    outer loop
      vertex -0.949188 -7.95107 -2.5
      vertex -0.926017 -8.89497 -2.5
      vertex -0.926017 -7.90503 -2.5
    endloop
  endfacet
  facet normal 0 0 1
    outer loop
      vertex -0.949188 -7.95107 -2.5
      vertex -0.949188 -8.84893 -2.5
      vertex -0.926017 -8.89497 -2.5
    endloop
  endfacet
  facet normal -0 0 1
    outer loop
      vertex -0.970073 -7.99818 -2.5
      vertex -0.949188 -8.84893 -2.5
      vertex -0.949188 -7.95107 -2.5
    endloop
  endfacet
  facet normal 0 0 1
    outer loop
      vertex -0.970073 -7.99818 -2.5
      vertex -0.970073 -8.80182 -2.5
      vertex -0.949188 -8.84893 -2.5
    endloop
  endfacet
  facet normal -0 0 1
    outer loop
      vertex -0.988621 -8.04627 -2.5
      vertex -0.970073 -8.80182 -2.5
      vertex -0.970073 -7.99818 -2.5
    endloop
  endfacet
  facet normal 0 0 1
    outer loop
      vertex -0.988621 -8.04627 -2.5
      vertex -0.988621 -8.75373 -2.5
      vertex -0.970073 -8.80182 -2.5
    endloop
  endfacet
  facet normal -0 0 1
    outer loop
      vertex -1.00479 -8.0952 -2.5
      vertex -0.988621 -8.75373 -2.5
      vertex -0.988621 -8.04627 -2.5
    endloop
  endfacet
  facet normal 0 0 1
    outer loop
      vertex -1.00479 -8.0952 -2.5
      vertex -1.00479 -8.7048 -2.5
      vertex -0.988621 -8.75373 -2.5
    endloop
  endfacet
  facet normal -0 0 1
    outer loop
      vertex -1.01853 -8.14487 -2.5
      vertex -1.00479 -8.7048 -2.5
      vertex -1.00479 -8.0952 -2.5
    endloop
  endfacet
  facet normal 0 0 1
    outer loop
      vertex -1.01853 -8.14487 -2.5
      vertex -1.01853 -8.65513 -2.5
      vertex -1.00479 -8.7048 -2.5
    endloop
  endfacet
  facet normal -0 0 1
    outer loop
      vertex -1.02982 -8.19516 -2.5
      vertex -1.01853 -8.65513 -2.5
      vertex -1.01853 -8.14487 -2.5
    endloop
  endfacet
  facet normal 0 0 1
    outer loop
      vertex -1.02982 -8.19516 -2.5
      vertex -1.02982 -8.60484 -2.5
      vertex -1.01853 -8.65513 -2.5
    endloop
  endfacet
  facet normal -0 0 1
    outer loop
      vertex -1.03864 -8.24593 -2.5
      vertex -1.02982 -8.60484 -2.5
      vertex -1.02982 -8.19516 -2.5
    endloop
  endfacet
  facet normal 0 0 1
    outer loop
      vertex -1.03864 -8.24593 -2.5
      vertex -1.03864 -8.55407 -2.5
      vertex -1.02982 -8.60484 -2.5
    endloop
  endfacet
  facet normal -0 0 1
    outer loop
      vertex -1.04494 -8.29708 -2.5
      vertex -1.03864 -8.55407 -2.5
      vertex -1.03864 -8.24593 -2.5
    endloop
  endfacet
  facet normal 0 0 1
    outer loop
      vertex -1.04494 -8.29708 -2.5
      vertex -1.04494 -8.50292 -2.5
      vertex -1.03864 -8.55407 -2.5
    endloop
  endfacet
  facet normal -0 0 1
    outer loop
      vertex -1.04873 -8.34848 -2.5
      vertex -1.04494 -8.50292 -2.5
      vertex -1.04494 -8.29708 -2.5
    endloop
  endfacet
  facet normal 0 0 1
    outer loop
      vertex -1.04873 -8.34848 -2.5
      vertex -1.04873 -8.45152 -2.5
      vertex -1.04494 -8.50292 -2.5
    endloop
  endfacet
  facet normal 0 -0 1
    outer loop
      vertex -1.04873 -8.45152 -2.5
      vertex -1.04873 -8.34848 -2.5
      vertex -1.05 -8.4 -2.5
    endloop
  endfacet
  facet normal -0.975703 0.219097 0
    outer loop
      vertex -1.02982 -8.19516 -6
      vertex -1.01853 -8.14487 -2.5
      vertex -1.01853 -8.14487 -6
    endloop
  endfacet
  facet normal -0.975703 0.219097 0
    outer loop
      vertex -1.01853 -8.14487 -2.5
      vertex -1.02982 -8.19516 -6
      vertex -1.02982 -8.19516 -2.5
    endloop
  endfacet
  facet normal -0.893225 0.44961 0
    outer loop
      vertex -0.949188 -7.95107 -6
      vertex -0.926017 -7.90503 -2.5
      vertex -0.926017 -7.90503 -6
    endloop
  endfacet
  facet normal -0.893225 0.44961 0
    outer loop
      vertex -0.926017 -7.90503 -2.5
      vertex -0.949188 -7.95107 -6
      vertex -0.949188 -7.95107 -2.5
    endloop
  endfacet
  facet normal -0.870091 0.492891 0
    outer loop
      vertex -0.926017 -7.90503 -6
      vertex -0.900615 -7.86019 -2.5
      vertex -0.900615 -7.86019 -6
    endloop
  endfacet
  facet normal -0.870091 0.492891 0
    outer loop
      vertex -0.900615 -7.86019 -2.5
      vertex -0.926017 -7.90503 -6
      vertex -0.926017 -7.90503 -2.5
    endloop
  endfacet
  facet normal -0.914212 0.405237 0
    outer loop
      vertex -0.970073 -7.99818 -6
      vertex -0.949188 -7.95107 -2.5
      vertex -0.949188 -7.95107 -6
    endloop
  endfacet
  facet normal -0.914212 0.405237 0
    outer loop
      vertex -0.949188 -7.95107 -2.5
      vertex -0.970073 -7.99818 -6
      vertex -0.970073 -7.99818 -2.5
    endloop
  endfacet
  facet normal -0.788346 0.615232 0
    outer loop
      vertex -0.843368 -7.77452 -6
      vertex -0.811661 -7.73389 -2.5
      vertex -0.811661 -7.73389 -6
    endloop
  endfacet
  facet normal -0.788346 0.615232 0
    outer loop
      vertex -0.811661 -7.73389 -2.5
      vertex -0.843368 -7.77452 -6
      vertex -0.843368 -7.77452 -2.5
    endloop
  endfacet
  facet normal -0.81758 0.575815 0
    outer loop
      vertex -0.873043 -7.81665 -6
      vertex -0.843368 -7.77452 -2.5
      vertex -0.843368 -7.77452 -6
    endloop
  endfacet
  facet normal -0.81758 0.575815 0
    outer loop
      vertex -0.843368 -7.77452 -2.5
      vertex -0.873043 -7.81665 -6
      vertex -0.873043 -7.81665 -2.5
    endloop
  endfacet
  facet normal -0.313673 0.949531 0
    outer loop
      vertex -0.304798 -7.39521 -6
      vertex -0.353734 -7.41138 -2.5
      vertex -0.304798 -7.39521 -2.5
    endloop
  endfacet
  facet normal -0.313673 0.949531 0
    outer loop
      vertex -0.353734 -7.41138 -2.5
      vertex -0.304798 -7.39521 -6
      vertex -0.353734 -7.41138 -6
    endloop
  endfacet
  facet normal -0.266712 0.963776 0
    outer loop
      vertex -0.255129 -7.38147 -6
      vertex -0.304798 -7.39521 -2.5
      vertex -0.255129 -7.38147 -2.5
    endloop
  endfacet
  facet normal -0.266712 0.963776 0
    outer loop
      vertex -0.304798 -7.39521 -2.5
      vertex -0.255129 -7.38147 -6
      vertex -0.304798 -7.39521 -6
    endloop
  endfacet
  facet normal -0.359899 0.932991 0
    outer loop
      vertex -0.353734 -7.41138 -6
      vertex -0.401817 -7.42993 -2.5
      vertex -0.353734 -7.41138 -2.5
    endloop
  endfacet
  facet normal -0.359899 0.932991 0
    outer loop
      vertex -0.401817 -7.42993 -2.5
      vertex -0.353734 -7.41138 -6
      vertex -0.401817 -7.42993 -6
    endloop
  endfacet
  facet normal -0.170964 0.985277 0
    outer loop
      vertex -0.154066 -7.36136 -6
      vertex -0.204844 -7.37018 -2.5
      vertex -0.154066 -7.36136 -2.5
    endloop
  endfacet
  facet normal -0.170964 0.985277 0
    outer loop
      vertex -0.204844 -7.37018 -2.5
      vertex -0.154066 -7.36136 -6
      vertex -0.204844 -7.37018 -6
    endloop
  endfacet
  facet normal -0.0735745 0.99729 0
    outer loop
      vertex -0.0515203 -7.35126 -6
      vertex -0.102918 -7.35506 -2.5
      vertex -0.0515203 -7.35126 -2.5
    endloop
  endfacet
  facet normal -0.0735745 0.99729 0
    outer loop
      vertex -0.102918 -7.35506 -2.5
      vertex -0.0515203 -7.35126 -6
      vertex -0.102918 -7.35506 -6
    endloop
  endfacet
  facet normal -0.534993 0.844856 0
    outer loop
      vertex -0.539807 -7.49938 -6
      vertex -0.583348 -7.52696 -2.5
      vertex -0.539807 -7.49938 -2.5
    endloop
  endfacet
  facet normal -0.534993 0.844856 0
    outer loop
      vertex -0.583348 -7.52696 -2.5
      vertex -0.539807 -7.49938 -6
      vertex -0.583348 -7.52696 -6
    endloop
  endfacet
  facet normal -0.44961 0.893225 0
    outer loop
      vertex -0.448933 -7.45081 -6
      vertex -0.494967 -7.47398 -2.5
      vertex -0.448933 -7.45081 -2.5
    endloop
  endfacet
  facet normal -0.44961 0.893225 0
    outer loop
      vertex -0.494967 -7.47398 -2.5
      vertex -0.448933 -7.45081 -6
      vertex -0.494967 -7.47398 -6
    endloop
  endfacet
  facet normal -0.653173 0.757209 0
    outer loop
      vertex -0.666113 -7.58834 -6
      vertex -0.705136 -7.622 -2.5
      vertex -0.666113 -7.58834 -2.5
    endloop
  endfacet
  facet normal -0.653173 0.757209 0
    outer loop
      vertex -0.705136 -7.622 -2.5
      vertex -0.666113 -7.58834 -6
      vertex -0.705136 -7.622 -6
    endloop
  endfacet
  facet normal -0.689546 0.724242 0
    outer loop
      vertex -0.705136 -7.622 -6
      vertex -0.742461 -7.65754 -2.5
      vertex -0.705136 -7.622 -2.5
    endloop
  endfacet
  facet normal -0.689546 0.724242 0
    outer loop
      vertex -0.742461 -7.65754 -2.5
      vertex -0.705136 -7.622 -6
      vertex -0.742461 -7.65754 -6
    endloop
  endfacet
  facet normal -0.615223 0.788353 0
    outer loop
      vertex -0.625484 -7.55663 -6
      vertex -0.666113 -7.58834 -2.5
      vertex -0.625484 -7.55663 -2.5
    endloop
  endfacet
  facet normal -0.615223 0.788353 0
    outer loop
      vertex -0.666113 -7.58834 -2.5
      vertex -0.625484 -7.55663 -6
      vertex -0.666113 -7.58834 -6
    endloop
  endfacet
  facet normal -0.724242 0.689546 0
    outer loop
      vertex -0.777998 -7.69486 -6
      vertex -0.742461 -7.65754 -2.5
      vertex -0.742461 -7.65754 -6
    endloop
  endfacet
  facet normal -0.724242 0.689546 0
    outer loop
      vertex -0.742461 -7.65754 -2.5
      vertex -0.777998 -7.69486 -6
      vertex -0.777998 -7.69486 -2.5
    endloop
  endfacet
  facet normal 0.999699 -0.0245373 0
    outer loop
      vertex 1.04873 -8.45152 -2.5
      vertex 1.05 -8.4 -6
      vertex 1.05 -8.4 -2.5
    endloop
  endfacet
  facet normal 0.999699 -0.0245373 0
    outer loop
      vertex 1.05 -8.4 -6
      vertex 1.04873 -8.45152 -2.5
      vertex 1.04873 -8.45152 -6
    endloop
  endfacet
  facet normal 0.0245562 -0.999698 0
    outer loop
      vertex 0 -9.45 -6
      vertex 0.0515203 -9.44873 -2.5
      vertex 0 -9.45 -2.5
    endloop
  endfacet
  facet normal 0.0245562 -0.999698 0
    outer loop
      vertex 0.0515203 -9.44873 -2.5
      vertex 0 -9.45 -6
      vertex 0.0515203 -9.44873 -6
    endloop
  endfacet
  facet normal 0.949529 -0.313678 0
    outer loop
      vertex 0.988621 -8.75373 -2.5
      vertex 1.00479 -8.7048 -6
      vertex 1.00479 -8.7048 -2.5
    endloop
  endfacet
  facet normal 0.949529 -0.313678 0
    outer loop
      vertex 1.00479 -8.7048 -6
      vertex 0.988621 -8.75373 -2.5
      vertex 0.988621 -8.75373 -6
    endloop
  endfacet
  facet normal 0.99248 -0.122408 0
    outer loop
      vertex 1.03864 -8.55407 -2.5
      vertex 1.04494 -8.50292 -6
      vertex 1.04494 -8.50292 -2.5
    endloop
  endfacet
  facet normal 0.99248 -0.122408 0
    outer loop
      vertex 1.04494 -8.50292 -6
      vertex 1.03864 -8.55407 -2.5
      vertex 1.03864 -8.55407 -6
    endloop
  endfacet
  facet normal 0.975703 -0.219097 0
    outer loop
      vertex 1.01853 -8.65513 -2.5
      vertex 1.02982 -8.60484 -6
      vertex 1.02982 -8.60484 -2.5
    endloop
  endfacet
  facet normal 0.975703 -0.219097 0
    outer loop
      vertex 1.02982 -8.60484 -6
      vertex 1.01853 -8.65513 -2.5
      vertex 1.01853 -8.65513 -6
    endloop
  endfacet
  facet normal 0.122411 -0.99248 0
    outer loop
      vertex 0.102918 -9.44494 -6
      vertex 0.154066 -9.43863 -2.5
      vertex 0.102918 -9.44494 -2.5
    endloop
  endfacet
  facet normal 0.122411 -0.99248 0
    outer loop
      vertex 0.154066 -9.43863 -2.5
      vertex 0.102918 -9.44494 -6
      vertex 0.154066 -9.43863 -6
    endloop
  endfacet
  facet normal 0.31369 -0.949526 0
    outer loop
      vertex 0.304798 -9.40479 -6
      vertex 0.353734 -9.38862 -2.5
      vertex 0.304798 -9.40479 -2.5
    endloop
  endfacet
  facet normal 0.31369 -0.949526 0
    outer loop
      vertex 0.353734 -9.38862 -2.5
      vertex 0.304798 -9.40479 -6
      vertex 0.353734 -9.38862 -6
    endloop
  endfacet
  facet normal 0.219097 -0.975703 0
    outer loop
      vertex 0.204844 -9.42982 -6
      vertex 0.255129 -9.41853 -2.5
      vertex 0.204844 -9.42982 -2.5
    endloop
  endfacet
  facet normal 0.219097 -0.975703 0
    outer loop
      vertex 0.255129 -9.41853 -2.5
      vertex 0.204844 -9.42982 -6
      vertex 0.255129 -9.41853 -6
    endloop
  endfacet
  facet normal 0.575815 -0.81758 0
    outer loop
      vertex 0.583348 -9.27304 -6
      vertex 0.625484 -9.24337 -2.5
      vertex 0.583348 -9.27304 -2.5
    endloop
  endfacet
  facet normal 0.575815 -0.81758 0
    outer loop
      vertex 0.625484 -9.24337 -2.5
      vertex 0.583348 -9.27304 -6
      vertex 0.625484 -9.24337 -6
    endloop
  endfacet
  facet normal 0.653173 -0.757209 0
    outer loop
      vertex 0.666113 -9.21166 -6
      vertex 0.705136 -9.178 -2.5
      vertex 0.666113 -9.21166 -2.5
    endloop
  endfacet
  facet normal 0.653173 -0.757209 0
    outer loop
      vertex 0.705136 -9.178 -2.5
      vertex 0.666113 -9.21166 -6
      vertex 0.705136 -9.178 -6
    endloop
  endfacet
  facet normal 0.492899 -0.870086 0
    outer loop
      vertex 0.494967 -9.32602 -6
      vertex 0.539807 -9.30061 -2.5
      vertex 0.494967 -9.32602 -2.5
    endloop
  endfacet
  facet normal 0.492899 -0.870086 0
    outer loop
      vertex 0.539807 -9.30061 -2.5
      vertex 0.494967 -9.32602 -6
      vertex 0.539807 -9.30061 -6
    endloop
  endfacet
  facet normal 0.405252 -0.914205 0
    outer loop
      vertex 0.401817 -9.37007 -6
      vertex 0.448933 -9.34919 -2.5
      vertex 0.401817 -9.37007 -2.5
    endloop
  endfacet
  facet normal 0.405252 -0.914205 0
    outer loop
      vertex 0.448933 -9.34919 -2.5
      vertex 0.401817 -9.37007 -6
      vertex 0.448933 -9.34919 -6
    endloop
  endfacet
  facet normal 0.870086 -0.492899 0
    outer loop
      vertex 0.900615 -8.93981 -2.5
      vertex 0.926017 -8.89497 -6
      vertex 0.926017 -8.89497 -2.5
    endloop
  endfacet
  facet normal 0.870086 -0.492899 0
    outer loop
      vertex 0.926017 -8.89497 -6
      vertex 0.900615 -8.93981 -2.5
      vertex 0.900615 -8.93981 -6
    endloop
  endfacet
  facet normal 0.914212 -0.405237 0
    outer loop
      vertex 0.949188 -8.84893 -2.5
      vertex 0.970073 -8.80182 -6
      vertex 0.970073 -8.80182 -2.5
    endloop
  endfacet
  facet normal 0.914212 -0.405237 0
    outer loop
      vertex 0.970073 -8.80182 -6
      vertex 0.949188 -8.84893 -2.5
      vertex 0.949188 -8.84893 -6
    endloop
  endfacet
  facet normal 0.817586 -0.575806 0
    outer loop
      vertex 0.843368 -9.02548 -2.5
      vertex 0.873043 -8.98335 -6
      vertex 0.873043 -8.98335 -2.5
    endloop
  endfacet
  facet normal 0.817586 -0.575806 0
    outer loop
      vertex 0.873043 -8.98335 -6
      vertex 0.843368 -9.02548 -2.5
      vertex 0.843368 -9.02548 -6
    endloop
  endfacet
  facet normal -0.359883 -0.932997 0
    outer loop
      vertex -0.401817 -9.37007 -6
      vertex -0.353734 -9.38862 -2.5
      vertex -0.401817 -9.37007 -2.5
    endloop
  endfacet
  facet normal -0.359883 -0.932997 -0
    outer loop
      vertex -0.353734 -9.38862 -2.5
      vertex -0.401817 -9.37007 -6
      vertex -0.353734 -9.38862 -6
    endloop
  endfacet
  facet normal -0.170964 -0.985277 0
    outer loop
      vertex -0.204844 -9.42982 -6
      vertex -0.154066 -9.43863 -2.5
      vertex -0.204844 -9.42982 -2.5
    endloop
  endfacet
  facet normal -0.170964 -0.985277 -0
    outer loop
      vertex -0.154066 -9.43863 -2.5
      vertex -0.204844 -9.42982 -6
      vertex -0.154066 -9.43863 -6
    endloop
  endfacet
  facet normal -0.0735561 -0.997291 0
    outer loop
      vertex -0.102918 -9.44494 -6
      vertex -0.0515203 -9.44873 -2.5
      vertex -0.102918 -9.44494 -2.5
    endloop
  endfacet
  facet normal -0.0735561 -0.997291 -0
    outer loop
      vertex -0.0515203 -9.44873 -2.5
      vertex -0.102918 -9.44494 -6
      vertex -0.0515203 -9.44873 -6
    endloop
  endfacet
  facet normal -0.266712 -0.963776 0
    outer loop
      vertex -0.304798 -9.40479 -6
      vertex -0.255129 -9.41853 -2.5
      vertex -0.304798 -9.40479 -2.5
    endloop
  endfacet
  facet normal -0.266712 -0.963776 -0
    outer loop
      vertex -0.255129 -9.41853 -2.5
      vertex -0.304798 -9.40479 -6
      vertex -0.255129 -9.41853 -6
    endloop
  endfacet
  facet normal -0.534993 -0.844856 0
    outer loop
      vertex -0.583348 -9.27304 -6
      vertex -0.539807 -9.30061 -2.5
      vertex -0.583348 -9.27304 -2.5
    endloop
  endfacet
  facet normal -0.534993 -0.844856 -0
    outer loop
      vertex -0.539807 -9.30061 -2.5
      vertex -0.583348 -9.27304 -6
      vertex -0.539807 -9.30061 -6
    endloop
  endfacet
  facet normal -0.44961 -0.893225 0
    outer loop
      vertex -0.494967 -9.32602 -6
      vertex -0.448933 -9.34919 -2.5
      vertex -0.494967 -9.32602 -2.5
    endloop
  endfacet
  facet normal -0.44961 -0.893225 -0
    outer loop
      vertex -0.448933 -9.34919 -2.5
      vertex -0.494967 -9.32602 -6
      vertex -0.448933 -9.34919 -6
    endloop
  endfacet
  facet normal -0.615223 -0.788353 0
    outer loop
      vertex -0.666113 -9.21166 -6
      vertex -0.625484 -9.24337 -2.5
      vertex -0.666113 -9.21166 -2.5
    endloop
  endfacet
  facet normal -0.615223 -0.788353 -0
    outer loop
      vertex -0.625484 -9.24337 -2.5
      vertex -0.666113 -9.21166 -6
      vertex -0.625484 -9.24337 -6
    endloop
  endfacet
  facet normal -0.975703 -0.219097 0
    outer loop
      vertex -1.01853 -8.65513 -6
      vertex -1.02982 -8.60484 -2.5
      vertex -1.02982 -8.60484 -6
    endloop
  endfacet
  facet normal -0.975703 -0.219097 0
    outer loop
      vertex -1.02982 -8.60484 -2.5
      vertex -1.01853 -8.65513 -6
      vertex -1.01853 -8.65513 -2.5
    endloop
  endfacet
  facet normal -0.949529 -0.313678 0
    outer loop
      vertex -0.988621 -8.75373 -6
      vertex -1.00479 -8.7048 -2.5
      vertex -1.00479 -8.7048 -6
    endloop
  endfacet
  facet normal -0.949529 -0.313678 0
    outer loop
      vertex -1.00479 -8.7048 -2.5
      vertex -0.988621 -8.75373 -6
      vertex -0.988621 -8.75373 -2.5
    endloop
  endfacet
  facet normal -0.99248 -0.122408 0
    outer loop
      vertex -1.03864 -8.55407 -6
      vertex -1.04494 -8.50292 -2.5
      vertex -1.04494 -8.50292 -6
    endloop
  endfacet
  facet normal -0.99248 -0.122408 0
    outer loop
      vertex -1.04494 -8.50292 -2.5
      vertex -1.03864 -8.55407 -6
      vertex -1.03864 -8.55407 -2.5
    endloop
  endfacet
  facet normal -0.999699 -0.0245373 0
    outer loop
      vertex -1.04873 -8.45152 -6
      vertex -1.05 -8.4 -2.5
      vertex -1.05 -8.4 -6
    endloop
  endfacet
  facet normal -0.999699 -0.0245373 0
    outer loop
      vertex -1.05 -8.4 -2.5
      vertex -1.04873 -8.45152 -6
      vertex -1.04873 -8.45152 -2.5
    endloop
  endfacet
  facet normal -0.870086 -0.492899 0
    outer loop
      vertex -0.900615 -8.93981 -6
      vertex -0.926017 -8.89497 -2.5
      vertex -0.926017 -8.89497 -6
    endloop
  endfacet
  facet normal -0.870086 -0.492899 0
    outer loop
      vertex -0.926017 -8.89497 -2.5
      vertex -0.900615 -8.93981 -6
      vertex -0.900615 -8.93981 -2.5
    endloop
  endfacet
  facet normal -0.914212 -0.405237 0
    outer loop
      vertex -0.949188 -8.84893 -6
      vertex -0.970073 -8.80182 -2.5
      vertex -0.970073 -8.80182 -6
    endloop
  endfacet
  facet normal -0.914212 -0.405237 0
    outer loop
      vertex -0.970073 -8.80182 -2.5
      vertex -0.949188 -8.84893 -6
      vertex -0.949188 -8.84893 -2.5
    endloop
  endfacet
  facet normal -0.757207 -0.653175 0
    outer loop
      vertex -0.777998 -9.10514 -6
      vertex -0.811661 -9.06611 -2.5
      vertex -0.811661 -9.06611 -6
    endloop
  endfacet
  facet normal -0.757207 -0.653175 0
    outer loop
      vertex -0.811661 -9.06611 -2.5
      vertex -0.777998 -9.10514 -6
      vertex -0.777998 -9.10514 -2.5
    endloop
  endfacet
  facet normal -0.817586 -0.575806 0
    outer loop
      vertex -0.843368 -9.02548 -6
      vertex -0.873043 -8.98335 -2.5
      vertex -0.873043 -8.98335 -6
    endloop
  endfacet
  facet normal -0.817586 -0.575806 0
    outer loop
      vertex -0.873043 -8.98335 -2.5
      vertex -0.843368 -9.02548 -6
      vertex -0.843368 -9.02548 -2.5
    endloop
  endfacet
  facet normal 0.997291 -0.0735574 0
    outer loop
      vertex 1.04494 -8.50292 -2.5
      vertex 1.04873 -8.45152 -6
      vertex 1.04873 -8.45152 -2.5
    endloop
  endfacet
  facet normal 0.997291 -0.0735574 0
    outer loop
      vertex 1.04873 -8.45152 -6
      vertex 1.04494 -8.50292 -2.5
      vertex 1.04494 -8.50292 -6
    endloop
  endfacet
  facet normal 0.963773 -0.266725 0
    outer loop
      vertex 1.00479 -8.7048 -2.5
      vertex 1.01853 -8.65513 -6
      vertex 1.01853 -8.65513 -2.5
    endloop
  endfacet
  facet normal 0.963773 -0.266725 0
    outer loop
      vertex 1.01853 -8.65513 -6
      vertex 1.00479 -8.7048 -2.5
      vertex 1.00479 -8.7048 -6
    endloop
  endfacet
  facet normal 0.0735561 -0.997291 0
    outer loop
      vertex 0.0515203 -9.44873 -6
      vertex 0.102918 -9.44494 -2.5
      vertex 0.0515203 -9.44873 -2.5
    endloop
  endfacet
  facet normal 0.0735561 -0.997291 0
    outer loop
      vertex 0.102918 -9.44494 -2.5
      vertex 0.0515203 -9.44873 -6
      vertex 0.102918 -9.44494 -6
    endloop
  endfacet
  facet normal 0.170964 -0.985277 0
    outer loop
      vertex 0.154066 -9.43863 -6
      vertex 0.204844 -9.42982 -2.5
      vertex 0.154066 -9.43863 -2.5
    endloop
  endfacet
  facet normal 0.170964 -0.985277 0
    outer loop
      vertex 0.204844 -9.42982 -2.5
      vertex 0.154066 -9.43863 -6
      vertex 0.204844 -9.42982 -6
    endloop
  endfacet
  facet normal 0.359883 -0.932997 0
    outer loop
      vertex 0.353734 -9.38862 -6
      vertex 0.401817 -9.37007 -2.5
      vertex 0.353734 -9.38862 -2.5
    endloop
  endfacet
  facet normal 0.359883 -0.932997 0
    outer loop
      vertex 0.401817 -9.37007 -2.5
      vertex 0.353734 -9.38862 -6
      vertex 0.401817 -9.37007 -6
    endloop
  endfacet
  facet normal 0.266712 -0.963776 0
    outer loop
      vertex 0.255129 -9.41853 -6
      vertex 0.304798 -9.40479 -2.5
      vertex 0.255129 -9.41853 -2.5
    endloop
  endfacet
  facet normal 0.266712 -0.963776 0
    outer loop
      vertex 0.304798 -9.40479 -2.5
      vertex 0.255129 -9.41853 -6
      vertex 0.304798 -9.40479 -6
    endloop
  endfacet
  facet normal 0.615223 -0.788353 0
    outer loop
      vertex 0.625484 -9.24337 -6
      vertex 0.666113 -9.21166 -2.5
      vertex 0.625484 -9.24337 -2.5
    endloop
  endfacet
  facet normal 0.615223 -0.788353 0
    outer loop
      vertex 0.666113 -9.21166 -2.5
      vertex 0.625484 -9.24337 -6
      vertex 0.666113 -9.21166 -6
    endloop
  endfacet
  facet normal 0.689546 -0.724242 0
    outer loop
      vertex 0.705136 -9.178 -6
      vertex 0.742461 -9.14246 -2.5
      vertex 0.705136 -9.178 -2.5
    endloop
  endfacet
  facet normal 0.689546 -0.724242 0
    outer loop
      vertex 0.742461 -9.14246 -2.5
      vertex 0.705136 -9.178 -6
      vertex 0.742461 -9.14246 -6
    endloop
  endfacet
  facet normal 0.44961 -0.893225 0
    outer loop
      vertex 0.448933 -9.34919 -6
      vertex 0.494967 -9.32602 -2.5
      vertex 0.448933 -9.34919 -2.5
    endloop
  endfacet
  facet normal 0.44961 -0.893225 0
    outer loop
      vertex 0.494967 -9.32602 -2.5
      vertex 0.448933 -9.34919 -6
      vertex 0.494967 -9.32602 -6
    endloop
  endfacet
  facet normal 0.893225 -0.44961 0
    outer loop
      vertex 0.926017 -8.89497 -2.5
      vertex 0.949188 -8.84893 -6
      vertex 0.949188 -8.84893 -2.5
    endloop
  endfacet
  facet normal 0.893225 -0.44961 0
    outer loop
      vertex 0.949188 -8.84893 -6
      vertex 0.926017 -8.89497 -2.5
      vertex 0.926017 -8.89497 -6
    endloop
  endfacet
  facet normal 0.932991 -0.359899 0
    outer loop
      vertex 0.970073 -8.80182 -2.5
      vertex 0.988621 -8.75373 -6
      vertex 0.988621 -8.75373 -2.5
    endloop
  endfacet
  facet normal 0.932991 -0.359899 0
    outer loop
      vertex 0.988621 -8.75373 -6
      vertex 0.970073 -8.80182 -2.5
      vertex 0.970073 -8.80182 -6
    endloop
  endfacet
  facet normal 0.788346 -0.615232 0
    outer loop
      vertex 0.811661 -9.06611 -2.5
      vertex 0.843368 -9.02548 -6
      vertex 0.843368 -9.02548 -2.5
    endloop
  endfacet
  facet normal 0.788346 -0.615232 0
    outer loop
      vertex 0.843368 -9.02548 -6
      vertex 0.811661 -9.06611 -2.5
      vertex 0.811661 -9.06611 -6
    endloop
  endfacet
  facet normal -0.122411 -0.99248 0
    outer loop
      vertex -0.154066 -9.43863 -6
      vertex -0.102918 -9.44494 -2.5
      vertex -0.154066 -9.43863 -2.5
    endloop
  endfacet
  facet normal -0.122411 -0.99248 -0
    outer loop
      vertex -0.102918 -9.44494 -2.5
      vertex -0.154066 -9.43863 -6
      vertex -0.102918 -9.44494 -6
    endloop
  endfacet
  facet normal -0.31369 -0.949526 0
    outer loop
      vertex -0.353734 -9.38862 -6
      vertex -0.304798 -9.40479 -2.5
      vertex -0.353734 -9.38862 -2.5
    endloop
  endfacet
  facet normal -0.31369 -0.949526 -0
    outer loop
      vertex -0.304798 -9.40479 -2.5
      vertex -0.353734 -9.38862 -6
      vertex -0.304798 -9.40479 -6
    endloop
  endfacet
  facet normal -0.219097 -0.975703 0
    outer loop
      vertex -0.255129 -9.41853 -6
      vertex -0.204844 -9.42982 -2.5
      vertex -0.255129 -9.41853 -2.5
    endloop
  endfacet
  facet normal -0.219097 -0.975703 -0
    outer loop
      vertex -0.204844 -9.42982 -2.5
      vertex -0.255129 -9.41853 -6
      vertex -0.204844 -9.42982 -6
    endloop
  endfacet
  facet normal -0.492899 -0.870086 0
    outer loop
      vertex -0.539807 -9.30061 -6
      vertex -0.494967 -9.32602 -2.5
      vertex -0.539807 -9.30061 -2.5
    endloop
  endfacet
  facet normal -0.492899 -0.870086 -0
    outer loop
      vertex -0.494967 -9.32602 -2.5
      vertex -0.539807 -9.30061 -6
      vertex -0.494967 -9.32602 -6
    endloop
  endfacet
  facet normal -0.653173 -0.757209 0
    outer loop
      vertex -0.705136 -9.178 -6
      vertex -0.666113 -9.21166 -2.5
      vertex -0.705136 -9.178 -2.5
    endloop
  endfacet
  facet normal -0.653173 -0.757209 -0
    outer loop
      vertex -0.666113 -9.21166 -2.5
      vertex -0.705136 -9.178 -6
      vertex -0.666113 -9.21166 -6
    endloop
  endfacet
  facet normal -0.575815 -0.81758 0
    outer loop
      vertex -0.625484 -9.24337 -6
      vertex -0.583348 -9.27304 -2.5
      vertex -0.625484 -9.24337 -2.5
    endloop
  endfacet
  facet normal -0.575815 -0.81758 -0
    outer loop
      vertex -0.583348 -9.27304 -2.5
      vertex -0.625484 -9.24337 -6
      vertex -0.583348 -9.27304 -6
    endloop
  endfacet
  facet normal -0.963773 -0.266725 0
    outer loop
      vertex -1.00479 -8.7048 -6
      vertex -1.01853 -8.65513 -2.5
      vertex -1.01853 -8.65513 -6
    endloop
  endfacet
  facet normal -0.963773 -0.266725 0
    outer loop
      vertex -1.01853 -8.65513 -2.5
      vertex -1.00479 -8.7048 -6
      vertex -1.00479 -8.7048 -2.5
    endloop
  endfacet
  facet normal -0.932991 -0.359899 0
    outer loop
      vertex -0.970073 -8.80182 -6
      vertex -0.988621 -8.75373 -2.5
      vertex -0.988621 -8.75373 -6
    endloop
  endfacet
  facet normal -0.932991 -0.359899 0
    outer loop
      vertex -0.988621 -8.75373 -2.5
      vertex -0.970073 -8.80182 -6
      vertex -0.970073 -8.80182 -2.5
    endloop
  endfacet
  facet normal -0.997291 -0.0735574 0
    outer loop
      vertex -1.04494 -8.50292 -6
      vertex -1.04873 -8.45152 -2.5
      vertex -1.04873 -8.45152 -6
    endloop
  endfacet
  facet normal -0.997291 -0.0735574 0
    outer loop
      vertex -1.04873 -8.45152 -2.5
      vertex -1.04494 -8.50292 -6
      vertex -1.04494 -8.50292 -2.5
    endloop
  endfacet
  facet normal -0.844856 -0.534993 0
    outer loop
      vertex -0.873043 -8.98335 -6
      vertex -0.900615 -8.93981 -2.5
      vertex -0.900615 -8.93981 -6
    endloop
  endfacet
  facet normal -0.844856 -0.534993 0
    outer loop
      vertex -0.900615 -8.93981 -2.5
      vertex -0.873043 -8.98335 -6
      vertex -0.873043 -8.98335 -2.5
    endloop
  endfacet
  facet normal -0.893225 -0.44961 0
    outer loop
      vertex -0.926017 -8.89497 -6
      vertex -0.949188 -8.84893 -2.5
      vertex -0.949188 -8.84893 -6
    endloop
  endfacet
  facet normal -0.893225 -0.44961 0
    outer loop
      vertex -0.949188 -8.84893 -2.5
      vertex -0.926017 -8.89497 -6
      vertex -0.926017 -8.89497 -2.5
    endloop
  endfacet
  facet normal -0.788346 -0.615232 0
    outer loop
      vertex -0.811661 -9.06611 -6
      vertex -0.843368 -9.02548 -2.5
      vertex -0.843368 -9.02548 -6
    endloop
  endfacet
  facet normal -0.788346 -0.615232 0
    outer loop
      vertex -0.843368 -9.02548 -2.5
      vertex -0.811661 -9.06611 -6
      vertex -0.811661 -9.06611 -2.5
    endloop
  endfacet
  facet normal -0.724242 -0.689546 0
    outer loop
      vertex -0.742461 -9.14246 -6
      vertex -0.777998 -9.10514 -2.5
      vertex -0.777998 -9.10514 -6
    endloop
  endfacet
  facet normal -0.724242 -0.689546 0
    outer loop
      vertex -0.777998 -9.10514 -2.5
      vertex -0.742461 -9.14246 -6
      vertex -0.742461 -9.14246 -2.5
    endloop
  endfacet
  facet normal 0.724242 -0.689546 0
    outer loop
      vertex 0.742461 -9.14246 -2.5
      vertex 0.777998 -9.10514 -6
      vertex 0.777998 -9.10514 -2.5
    endloop
  endfacet
  facet normal 0.724242 -0.689546 0
    outer loop
      vertex 0.777998 -9.10514 -6
      vertex 0.742461 -9.14246 -2.5
      vertex 0.742461 -9.14246 -6
    endloop
  endfacet
endsolid OpenSCAD_Model
